{
.appVersion = "3428";
.formatVersion = 3;
DisplayStrings = (
"nĥn"
);
axes = (
{
name = Weight;
tag = wght;
}
);
customParameters = (
{
name = vendorID;
value = " ";
},
{
name = panose;
value = (
0,
0,
0,
0,
0,
0,
0,
0,
0,
0
);
},
{
name = unicodeRanges;
value = (
0,
1,
2,
5,
6,
7,
31,
32
);
},
{
name = codePageRanges;
value = (
"1252",
"1250",
"1253",
"1254",
"1257"
);
},
{
name = fsType;
value = (
);
},
{
disabled = 1;
name = glyphOrder;
value = (
.notdef,
.null,
uni000D,
space,
exclam,
quotedbl,
numbersign,
dollar,
percent,
ampersand,
quotesingle,
parenleft,
parenright,
asterisk,
plus,
comma,
hyphen,
period,
slash,
zero,
one,
two,
three,
four,
five,
six,
seven,
eight,
nine,
colon,
semicolon,
less,
equal,
greater,
question,
at,
A,
B,
C,
D,
E,
F,
G,
H,
J,
K,
L,
M,
N,
O,
P,
Q,
R,
S,
T,
U,
V,
W,
X,
Y,
Z,
bracketleft,
backslash,
bracketright,
asciicircum,
underscore,
grave,
a,
b,
c,
d,
e,
f,
g,
h,
i,
j,
k,
l,
m,
n,
o,
p,
q,
r,
s,
t,
u,
v,
w,
x,
y,
z,
braceleft,
bar,
braceright,
asciitilde,
uni00A0,
exclamdown,
cent,
sterling,
currency,
yen,
brokenbar,
section,
dieresis,
copyright,
ordfeminine,
guillemotleft,
logicalnot,
uni00AD,
registered,
degree,
plusminus,
twosuperior,
threesuperior,
acute,
uni03BC,
paragraph,
periodcentered,
cedilla,
onesuperior,
ordmasculine,
guillemotright,
onequarter,
onehalf,
threequarters,
questiondown,
Agrave,
Aacute,
Acircumflex,
Atilde,
Adieresis,
Aring,
AE,
Egrave,
Eacute,
Ecircumflex,
Edieresis,
Eth,
Ntilde,
Ograve,
Oacute,
Ocircumflex,
Otilde,
Odieresis,
multiply,
Oslash,
Ugrave,
Uacute,
Ucircumflex,
Udieresis,
Yacute,
Thorn,
germandbls,
agrave,
aacute,
acircumflex,
atilde,
adieresis,
aring,
ae,
ccedilla,
egrave,
eacute,
ecircumflex,
edieresis,
igrave,
iacute,
idieresis,
eth,
ntilde,
ograve,
oacute,
ocircumflex,
otilde,
odieresis,
divide,
oslash,
ugrave,
uacute,
ucircumflex,
udieresis,
yacute,
thorn,
ydieresis,
Amacron,
amacron,
Abreve,
abreve,
Aogonek,
aogonek,
Cacute,
cacute,
Ccircumflex,
ccircumflex,
cdotaccent,
Ccaron,
ccaron,

glyphs = (
{
color = 1;
glyphname = A;
lastChange = "2025-10-31 11:44:26 +0000";
layers = (
{
anchors = (
{
name = bottom;
pos = (384,0);
},
{
name = ogonek;
pos = (775,0);
},
{
name = top;
pos = (384,712);
}
);
layerId = "F6364453-91B0-4CE2-A857-F52B6F68B874";
shapes = (
{
closed = 1;
nodes = (
(196,0,l),
(246,125,l),
(516,125,l),
(567,0,l),
(775,0,l),
(477,705,l),
(290,705,l),
(-8,0,l)
);
},
{
closed = 1;
nodes = (
(382,475,l),
(460,276,l),
(303,276,l)
);
}
);
width = 767;
},
{
anchors = (
{
name = bottom;
pos = (346,0);
},
{
name = ogonek;
pos = (698,0);
},
{
name = top;
pos = (346,712);
}
);
layerId = "8AF3DB8E-7EC5-4D7D-A87A-6DF3FCB8CADF";
shapes = (
{
closed = 1;
nodes = (
(104,0,l),
(184,185,l),
(507,185,l),
(585,0,l),
(698,0,l),
(390,705,l),
(301,705,l),
(-6,0,l)
);
},
{
closed = 1;
nodes = (
(345,584,l),
(471,273,l),
(220,273,l)
);
}
);
width = 692;
},
{
anchors = (
{
name = bottom;
pos = (339,0);
},
{
name = ogonek;
pos = (682,0);
},
{
name = top;
pos = (339,712);
}
);
layerId = "F1A19D98-9E48-4F05-B6A0-CD51606DBCB8";
shapes = (
{
closed = 1;
nodes = (
(86,0,l),
(171,197,l),
(505,197,l),
(589,0,l),
(682,0,l),
(373,705,l),
(303,705,l),
(-5,0,l)
);
},
{
closed = 1;
nodes = (
(338,606,l),
(473,272,l),
(203,272,l)
);
}
);
width = 677;
}
);
unicode = 65;
},
{
glyphname = Aringacute;
lastChange = "2025-10-31 11:44:26 +0000";
layers = (
{
layerId = "F6364453-91B0-4CE2-A857-F52B6F68B874";
shapes = (
{
closed = 1;
nodes = (
(196,0,l),
(236,95,l),
(527,95,l),
(567,0,l),
(775,0,l),
(478,646,l),
(495,667,o),
(507,693,o),
(507,724,cs),
(507,790,o),
(451,843,o),
(383,843,cs),
(318,843,o),
(260,790,o),
(260,723,cs),
(260,692,o),
(270,667,o),
(289,646,c),
(-8,0,l)
);
},
{
closed = 1;
nodes = (
(381,438,l),
(463,246,l),
(300,246,l)
);
},
{
closed = 1;
nodes = (
(371,700,o),
(361,710,o),
(361,724,cs),
(361,737,o),
(371,747,o),
(386,747,cs),
(398,747,o),
(409,737,o),
(409,724,cs),
(409,709,o),
(398,700,o),
(385,700,cs)
);
},
{
closed = 1;
nodes = (
(451,871,l),
(598,999,l),
(421,1056,l),
(317,871,l)
);
}
);
width = 767;
},
{
layerId = "8AF3DB8E-7EC5-4D7D-A87A-6DF3FCB8CADF";
shapes = (
{
closed = 1;
nodes = (
(104,0,l),
(172,155,l),
(501,155,l),
(569,0,l),
(681,0,l),
(391,625,l),
(423,641,o),
(445,673,o),
(445,712,cs),
(445,771,o),
(397,817,o),
(338,817,cs),
(283,817,o),
(234,772,o),
(234,713,cs),
(234,676,o),
(253,646,o),
(284,627,c),
(-6,0,l)
);
},
{
closed = 1;
nodes = (
(337,536,l),
(464,243,l),
(210,243,l)
);
},
{
closed = 1;
nodes = (
(310,663,o),
(288,684,o),
(288,714,cs),
(288,742,o),
(309,765,o),
(340,765,cs),
(371,765,o),
(392,741,o),
(392,713,cs),
(392,685,o),
(371,663,o),
(340,663,cs)
);
},
{
closed = 1;
nodes = (
(384,833,l),
(515,962,l),
(405,988,l),
(312,833,l)
);
}
);
width = 675;
},
{
layerId = "F1A19D98-9E48-4F05-B6A0-CD51606DBCB8";
shapes = (
{
closed = 1;
nodes = (
(86,0,l),
(159,167,l),
(496,167,l),
(569,0,l),
(662,0,l),
(374,621,l),
(409,636,o),
(432,669,o),
(432,709,cs),
(432,766,o),
(386,812,o),
(329,812,cs),
(276,812,o),
(229,767,o),
(229,711,cs),
(229,672,o),
(251,640,o),
(283,623,c),
(-5,0,l)
);
},
{
closed = 1;
nodes = (
(328,555,l),
(464,242,l),
(192,242,l)
);
},
{
closed = 1;
nodes = (
(298,656,o),
(273,678,o),
(273,712,cs),
(273,743,o),
(298,768,o),
(331,768,cs),
(364,768,o),
(388,742,o),
(388,711,cs),
(388,680,o),
(366,656,o),
(331,656,cs)
);
},
{
closed = 1;
nodes = (
(366,825,l),
(494,954,l),
(398,974,l),
(307,825,l)
);
}
);
width = 657;
}
);
unicode = (506,507);
},
{
glyphname = AE;
lastChange = "2025-10-31 11:44:26 +0000";
layers = (
{
layerId = "F6364453-91B0-4CE2-A857-F52B6F68B874";
shapes = (
{
closed = 1;
nodes = (
(196,0,l),
(255,125,l),
(445,125,l),
(445,0,l),
(1015,0,l),
(1015,165,l),
(637,165,l),
(637,276,l),
(975,276,l),
(975,429,l),
(637,429,l),
(637,535,l),
(1010,535,l),
(1010,700,l),
(290,700,l),
(-8,0,l)
);
},
{
closed = 1;
nodes = (
(445,582,l),
(445,276,l),
(312,276,l)
);
}
);
width = 1007;
},
{
layerId = "8AF3DB8E-7EC5-4D7D-A87A-6DF3FCB8CADF";
shapes = (
{
closed = 1;
nodes = (
(104,0,l),
(214,185,l),
(453,185,l),
(453,0,l),
(941,0,l),
(941,91,l),
(557,91,l),
(557,314,l),
(901,314,l),
(901,402,l),
(557,402,l),
(557,613,l),
(931,613,l),
(931,704,l),
(407,704,l),
(-6,0,l)
);
},
{
closed = 1;
nodes = (
(453,599,l),
(453,273,l),
(262,273,l)
);
}
);
width = 940;
},
{
layerId = "F1A19D98-9E48-4F05-B6A0-CD51606DBCB8";
shapes = (
{
closed = 1;
nodes = (
(86,0,l),
(206,197,l),
(455,197,l),
(455,0,l),
(926,0,l),
(926,76,l),
(541,76,l),
(541,321,l),
(886,321,l),
(886,397,l),
(541,397,l),
(541,629,l),
(915,629,l),
(915,705,l),
(430,705,l),
(-5,0,l)
);
},
{
closed = 1;
nodes = (
(455,602,l),
(455,272,l),
(252,272,l)
);
}
);
width = 926;
}
);
unicode = 198;
},
{
color = 1;
glyphname = B;
lastChange = "2025-10-31 11:44:26 +0000";
layers = (
{
anchors = (
{
name = bottom;
pos = (359,0);
},
{
name = center;
pos = (359,356);
},
{
name = top;
pos = (359,712);
}
);
layerId = "F6364453-91B0-4CE2-A857-F52B6F68B874";
shapes = (
{
closed = 1;
nodes = (
(417,0,ls),
(586,0,o),
(684,75,o),
(684,195,cs),
(684,290,o),
(630,341,o),
(545,366,c),
(609,393,o),
(653,443,o),
(653,524,cs),
(653,635,o),
(562,700,o),
(415,700,cs),
(58,700,l),
(58,0,l)
);
},
{
closed = 1;
nodes = (
(247,285,l),
(394,285,ls),
(458,285,o),
(490,260,o),
(490,222,cs),
(490,181,o),
(456,156,o),
(396,156,cs),
(247,156,l)
);
},
{
closed = 1;
nodes = (
(247,544,l),
(372,544,ls),
(429,544,o),
(459,523,o),
(459,484,cs),
(459,443,o),
(427,421,o),
(368,421,cs),
(247,421,l)
);
}
);
width = 718;
},
{
anchors = (
{
name = bottom;
pos = (326,0);
},
{
name = center;
pos = (326,356);
},
{
name = top;
pos = (326,712);
}
);
layerId = "8AF3DB8E-7EC5-4D7D-A87A-6DF3FCB8CADF";
shapes = (
{
closed = 1;
nodes = (
(327,0,ls),
(524,0,o),
(607,87,o),
(607,194,cs),
(607,281,o),
(557,349,o),
(445,366,c),
(513,391,o),
(548,451,o),
(548,527,cs),
(548,656,o),
(431,704,o),
(303,704,cs),
(76,704,l),
(76,0,l)
);
},
{
closed = 1;
nodes = (
(178,316,l),
(307,316,ls),
(451,316,o),
(504,275,o),
(504,202,cs),
(504,129,o),
(452,88,o),
(335,88,cs),
(178,88,l)
);
},
{
closed = 1;
nodes = (
(178,617,l),
(305,617,ls),
(392,617,o),
(446,583,o),
(446,510,cs),
(446,447,o),
(401,400,o),
(304,400,cs),
(178,400,l)
);
}
);
width = 651;
},
{
anchors = (
{
name = bottom;
pos = (319,0);
},
{
name = center;
pos = (319,356);
},
{
name = top;
pos = (319,712);
}
);
layerId = "F1A19D98-9E48-4F05-B6A0-CD51606DBCB8";
shapes = (
{
closed = 1;
nodes = (
(309,0,ls),
(512,0,o),
(591,89,o),
(591,194,cs),
(591,279,o),
(542,350,o),
(425,366,c),
(493,391,o),
(527,451,o),
(527,527,cs),
(527,660,o),
(405,705,o),
(281,705,cs),
(80,705,l),
(80,0,l)
);
},
{
closed = 1;
nodes = (
(164,322,l),
(290,322,ls),
(450,322,o),
(507,278,o),
(507,198,cs),
(507,118,o),
(452,74,o),
(323,74,cs),
(164,74,l)
);
},
{
closed = 1;
nodes = (
(164,631,l),
(291,631,ls),
(383,631,o),
(443,595,o),
(443,515,cs),
(443,448,o),
(396,396,o),
(291,396,cs),
(164,396,l)
);
}
);
width = 637;
}
);
unicode = 66;
},
{
color = 1;
glyphname = C;
lastChange = "2025-10-31 11:44:26 +0000";
layers = (
{
anchors = (
{
name = bottom;
pos = (333,0);
},
{
name = top;
pos = (333,712);
}
);
layerId = "F6364453-91B0-4CE2-A857-F52B6F68B874";
shapes = (
{
closed = 1;
nodes = (
(486,-14,o),
(557,9,o),
(622,54,c),
(622,248,l),
(561,192,o),
(498,163,o),
(424,163,cs),
(305,163,o),
(237,245,o),
(237,352,cs),
(237,454,o),
(306,537,o),
(424,537,cs),
(503,537,o),
(572,502,o),
(617,455,c),
(617,652,l),
(561,691,o),
(494,714,o),
(406,714,cs),
(194,714,o),
(37,554,o),
(37,350,cs),
(37,141,o),
(198,-14,o),
(398,-14,cs)
);
}
);
width = 665;
},
{
anchors = (
{
name = bottom;
pos = (350,0);
},
{
name = top;
pos = (350,712);
}
);
layerId = "8AF3DB8E-7EC5-4D7D-A87A-6DF3FCB8CADF";
shapes = (
{
closed = 1;
nodes = (
(509,-14,o),
(579,21,o),
(643,74,c),
(643,187,l),
(576,128,o),
(511,80,o),
(412,80,cs),
(259,80,o),
(155,201,o),
(155,352,cs),
(155,502,o),
(259,625,o),
(412,625,cs),
(516,625,o),
(581,587,o),
(630,532,c),
(630,645,l),
(574,688,o),
(507,718,o),
(414,718,cs),
(203,718,o),
(49,556,o),
(49,351,cs),
(49,144,o),
(206,-14,o),
(410,-14,cs)
);
}
);
width = 699;
},
{
anchors = (
{
name = bottom;
pos = (413,0);
},
{
name = top;
pos = (393,712);
}
);
layerId = "F1A19D98-9E48-4F05-B6A0-CD51606DBCB8";
shapes = (
{
closed = 1;
nodes = (
(512,-14,o),
(583,22,o),
(647,78,c),
(647,175,l),
(579,116,o),
(512,63,o),
(410,63,cs),
(250,63,o),
(138,192,o),
(138,352,cs),
(138,512,o),
(250,643,o),
(410,643,cs),
(519,643,o),
(582,604,o),
(633,547,c),
(633,643,l),
(576,687,o),
(511,719,o),
(415,719,cs),
(205,719,o),
(51,558,o),
(51,351,cs),
(51,144,o),
(207,-14,o),
(412,-14,cs)
);
}
);
width = 706;
}
);
unicode = 67;
},
{
color = 1;
glyphname = D;
lastChange = "2025-10-31 11:44:26 +0000";
layers = (
{
anchors = (
{
name = bottom;
pos = (381,0);
},
{
name = center;
pos = (381,356);
},
{
name = top;
pos = (381,712);
}
);
layerId = "F6364453-91B0-4CE2-A857-F52B6F68B874";
shapes = (
{
closed = 1;
nodes = (
(324,0,ls),
(576,0,o),
(723,152,o),
(723,354,cs),
(723,557,o),
(579,700,o),
(328,700,cs),
(58,700,l),
(58,0,l)
);
},
{
closed = 1;
nodes = (
(252,528,l),
(331,528,ls),
(446,528,o),
(524,463,o),
(524,351,cs),
(524,238,o),
(447,172,o),
(331,172,cs),
(252,172,l)
);
}
);
width = 761;
},
{
anchors = (
{
name = bottom;
pos = (367,0);
},
{
name = center;
pos = (367,356);
},
{
name = top;
pos = (367,712);
}
);
layerId = "8AF3DB8E-7EC5-4D7D-A87A-6DF3FCB8CADF";
shapes = (
{
closed = 1;
nodes = (
(304,0,ls),
(535,0,o),
(685,147,o),
(685,353,cs),
(685,565,o),
(526,704,o),
(306,704,cs),
(76,704,l),
(76,0,l)
);
},
{
closed = 1;
nodes = (
(180,611,l),
(342,611,ls),
(493,611,o),
(577,479,o),
(577,351,cs),
(577,199,o),
(478,92,o),
(302,92,cs),
(180,92,l)
);
}
);
width = 734;
},
{
anchors = (
{
name = bottom;
pos = (365,0);
},
{
name = center;
pos = (365,356);
},
{
name = top;
pos = (365,712);
}
);
layerId = "F1A19D98-9E48-4F05-B6A0-CD51606DBCB8";
shapes = (
{
closed = 1;
nodes = (
(300,0,ls),
(527,0,o),
(677,146,o),
(677,353,cs),
(677,566,o),
(534,705,o),
(301,705,cs),
(80,705,l),
(80,0,l)
);
},
{
closed = 1;
nodes = (
(165,628,l),
(332,628,ls),
(490,628,o),
(587,502,o),
(587,351,cs),
(587,191,o),
(484,76,o),
(296,76,cs),
(165,76,l)
);
}
);
width = 729;
}
);
unicode = 68;
},
{
glyphname = Eth;
lastChange = "2025-10-31 11:44:26 +0000";
layers = (
{
layerId = "F6364453-91B0-4CE2-A857-F52B6F68B874";
shapes = (
{
closed = 1;
nodes = (
(347,0,ls),
(599,0,o),
(746,152,o),
(746,354,cs),
(746,557,o),
(602,700,o),
(351,700,cs),
(81,700,l),
(81,0,l)
);
},
{
closed = 1;
nodes = (
(335,249,l),
(335,416,l),
(7,416,l),
(7,249,l)
);
},
{
closed = 1;
nodes = (
(275,528,l),
(354,528,ls),
(469,528,o),
(547,463,o),
(547,351,cs),
(547,238,o),
(470,172,o),
(354,172,cs),
(275,172,l)
);
}
);
width = 784;
},
{
layerId = "8AF3DB8E-7EC5-4D7D-A87A-6DF3FCB8CADF";
shapes = (
{
closed = 1;
nodes = (
(335,0,ls),
(566,0,o),
(715,147,o),
(715,353,cs),
(715,565,o),
(556,704,o),
(336,704,cs),
(107,704,l),
(107,0,l)
);
},
{
closed = 1;
nodes = (
(295,307,l),
(295,399,l),
(15,399,l),
(15,307,l)
);
},
{
closed = 1;
nodes = (
(210,611,l),
(372,611,ls),
(523,611,o),
(607,479,o),
(607,351,cs),
(607,199,o),
(508,92,o),
(332,92,cs),
(210,92,l)
);
}
);
width = 765;
},
{
layerId = "F1A19D98-9E48-4F05-B6A0-CD51606DBCB8";
shapes = (
{
closed = 1;
nodes = (
(332,0,ls),
(559,0,o),
(709,146,o),
(709,353,cs),
(709,566,o),
(547,705,o),
(333,705,cs),
(112,705,l),
(112,0,l)
);
},
{
closed = 1;
nodes = (
(287,319,l),
(287,396,l),
(16,396,l),
(16,319,l)
);
},
{
closed = 1;
nodes = (
(197,628,l),
(376,628,ls),
(534,628,o),
(619,482,o),
(619,351,cs),
(619,191,o),
(516,76,o),
(328,76,cs),
(197,76,l)
);
}
);
width = 761;
}
);
unicode = 208;
},
{
color = 1;
glyphname = E;
lastChange = "2025-10-31 11:44:26 +0000";
layers = (
{
anchors = (
{
name = bottom;
pos = (338,0);
},
{
name = ogonek;
pos = (626,0);
},
{
name = top;
pos = (338,712);
},
{
name = topleft;
pos = (20,712);
}
);
layerId = "F6364453-91B0-4CE2-A857-F52B6F68B874";
shapes = (
{
closed = 1;
nodes = (
(626,0,l),
(626,165,l),
(250,165,l),
(250,276,l),
(586,276,l),
(586,429,l),
(250,429,l),
(250,535,l),
(621,535,l),
(621,700,l),
(58,700,l),
(58,0,l)
);
}
);
width = 675;
},
{
anchors = (
{
name = bottom;
pos = (314,0);
},
{
name = ogonek;
pos = (564,0);
},
{
name = top;
pos = (314,712);
},
{
name = topleft;
pos = (20,712);
}
);
layerId = "8AF3DB8E-7EC5-4D7D-A87A-6DF3FCB8CADF";
shapes = (
{
closed = 1;
nodes = (
(564,0,l),
(564,91,l),
(180,91,l),
(180,314,l),
(524,314,l),
(524,402,l),
(180,402,l),
(180,613,l),
(554,613,l),
(554,704,l),
(76,704,l),
(76,0,l)
);
}
);
width = 628;
},
{
anchors = (
{
name = bottom;
pos = (309,0);
},
{
name = ogonek;
pos = (551,0);
},
{
name = top;
pos = (309,712);
},
{
name = topleft;
pos = (20,712);
}
);
layerId = "F1A19D98-9E48-4F05-B6A0-CD51606DBCB8";
shapes = (
{
closed = 1;
nodes = (
(551,0,l),
(551,76,l),
(166,76,l),
(166,321,l),
(511,321,l),
(511,397,l),
(166,397,l),
(166,629,l),
(540,629,l),
(540,705,l),
(80,705,l),
(80,0,l)
);
}
);
width = 618;
}
);
unicode = 69;
},
{
color = 3;
glyphname = F;
lastChange = "2025-10-31 11:44:26 +0000";
layers = (
{
anchors = (
{
name = bottom;
pos = (330,0);
},
{
name = top;
pos = (330,712);
}
);
layerId = "F6364453-91B0-4CE2-A857-F52B6F68B874";
shapes = (
{
closed = 1;
nodes = (
(252,0,l),
(252,250,l),
(583,250,l),
(583,411,l),
(252,411,l),
(252,530,l),
(618,530,l),
(618,700,l),
(58,700,l),
(58,0,l)
);
}
);
width = 659;
},
{
anchors = (
{
name = bottom;
pos = (301,0);
},
{
name = top;
pos = (301,712);
}
);
layerId = "8AF3DB8E-7EC5-4D7D-A87A-6DF3FCB8CADF";
shapes = (
{
closed = 1;
nodes = (
(180,-2,l),
(180,303,l),
(519,303,l),
(519,393,l),
(180,393,l),
(180,613,l),
(551,613,l),
(551,704,l),
(76,704,l),
(76,-2,l)
);
}
);
width = 601;
},
{
anchors = (
{
name = bottom;
pos = (295,0);
},
{
name = top;
pos = (295,712);
}
);
layerId = "F1A19D98-9E48-4F05-B6A0-CD51606DBCB8";
shapes = (
{
closed = 1;
nodes = (
(165,0,l),
(165,313,l),
(506,313,l),
(506,389,l),
(165,389,l),
(165,629,l),
(537,629,l),
(537,705,l),
(80,705,l),
(80,0,l)
);
}
);
width = 589;
}
);
unicode = 70;
},
{
color = 1;
glyphname = G;
lastChange = "2025-10-31 11:44:26 +0000";
layers = (
{
anchors = (
{
name = bottom;
pos = (380,0);
},
{
name = top;
pos = (380,712);
}
);
layerId = "F6364453-91B0-4CE2-A857-F52B6F68B874";
shapes = (
{
closed = 1;
nodes = (
(553,-14,o),
(722,68,o),
(722,369,cs),
(722,409,l),
(400,409,l),
(400,267,l),
(538,267,l),
(538,183,o),
(462,153,o),
(408,153,cs),
(314,153,o),
(236,234,o),
(236,349,cs),
(236,456,o),
(314,541,o),
(425,541,cs),
(490,541,o),
(553,518,o),
(604,475,c),
(604,680,l),
(555,701,o),
(482,714,o),
(414,714,cs),
(197,714,o),
(37,554,o),
(37,350,cs),
(37,138,o),
(200,-14,o),
(398,-14,cs)
);
}
);
width = 759;
},
{
anchors = (
{
name = bottom;
pos = (410,0);
},
{
name = top;
pos = (410,712);
}
);
layerId = "8AF3DB8E-7EC5-4D7D-A87A-6DF3FCB8CADF";
shapes = (
{
closed = 1;
nodes = (
(648,-16,o),
(770,147,o),
(770,372,cs),
(770,401,l),
(474,401,l),
(474,312,l),
(673,312,l),
(673,168,o),
(562,77,o),
(422,77,cs),
(269,77,o),
(153,195,o),
(153,352,cs),
(153,500,o),
(282,626,o),
(437,626,cs),
(529,626,o),
(602,591,o),
(653,540,c),
(653,653,l),
(585,700,o),
(507,718,o),
(430,718,cs),
(218,718,o),
(49,556,o),
(49,352,cs),
(49,147,o),
(204,-16,o),
(416,-16,cs)
);
}
);
width = 819;
},
{
anchors = (
{
name = bottom;
pos = (416,0);
},
{
name = top;
pos = (416,712);
}
);
layerId = "F1A19D98-9E48-4F05-B6A0-CD51606DBCB8";
shapes = (
{
closed = 1;
nodes = (
(667,-16,o),
(780,163,o),
(780,373,cs),
(780,399,l),
(489,399,l),
(489,321,l),
(700,321,l),
(700,165,o),
(581,62,o),
(425,62,cs),
(260,62,o),
(136,187,o),
(136,352,cs),
(136,510,o),
(276,643,o),
(439,643,cs),
(536,643,o),
(612,604,o),
(663,553,c),
(663,647,l),
(591,699,o),
(513,719,o),
(433,719,cs),
(222,719,o),
(51,557,o),
(51,352,cs),
(51,149,o),
(206,-16,o),
(419,-16,cs)
);
}
);
width = 831;
}
);
unicode = 71;
},
{
color = 1;
glyphname = H;
lastChange = "2025-10-31 11:44:26 +0000";
layers = (
{
anchors = (
{
name = bottom;
pos = (377,0);
},
{
name = center;
pos = (377,356);
},
{
name = top;
pos = (377,712);
},
{
name = topleft;
pos = (20,712);
}
);
layerId = "F6364453-91B0-4CE2-A857-F52B6F68B874";
shapes = (
{
closed = 1;
nodes = (
(252,0,l),
(252,266,l),
(501,266,l),
(501,0,l),
(695,0,l),
(695,700,l),
(501,700,l),
(501,438,l),
(252,438,l),
(252,700,l),
(58,700,l),
(58,0,l)
);
}
);
width = 754;
},
{
anchors = (
{
name = bottom;
pos = (359,0);
},
{
name = center;
pos = (359,356);
},
{
name = top;
pos = (359,712);
},
{
name = topleft;
pos = (20,712);
}
);
layerId = "8AF3DB8E-7EC5-4D7D-A87A-6DF3FCB8CADF";
shapes = (
{
closed = 1;
nodes = (
(179,0,l),
(179,311,l),
(539,311,l),
(539,0,l),
(641,0,l),
(641,705,l),
(539,705,l),
(539,405,l),
(179,405,l),
(179,705,l),
(76,705,l),
(76,0,l)
);
}
);
width = 717;
},
{
anchors = (
{
name = bottom;
pos = (355,0);
},
{
name = center;
pos = (355,356);
},
{
name = top;
pos = (355,712);
},
{
name = topleft;
pos = (20,712);
}
);
layerId = "F1A19D98-9E48-4F05-B6A0-CD51606DBCB8";
shapes = (
{
closed = 1;
nodes = (
(164,0,l),
(164,320,l),
(546,320,l),
(546,0,l),
(630,0,l),
(630,706,l),
(546,706,l),
(546,398,l),
(164,398,l),
(164,706,l),
(80,706,l),
(80,0,l)
);
}
);
width = 709;
}
);
unicode = 72;
},
{
color = 1;
glyphname = I;
lastChange = "2025-10-31 11:44:26 +0000";
layers = (
{
anchors = (
{
name = bottom;
pos = (156,0);
},
{
name = ogonek;
pos = (253,0);
},
{
name = top;
pos = (156,712);
},
{
name = topleft;
pos = (20,712);
}
);
layerId = "F6364453-91B0-4CE2-A857-F52B6F68B874";
shapes = (
{
closed = 1;
nodes = (
(253,0,l),
(253,700,l),
(58,700,l),
(58,0,l)
);
}
);
width = 311;
},
{
anchors = (
{
name = bottom;
pos = (127,0);
},
{
name = ogonek;
pos = (179,0);
},
{
name = top;
pos = (127,712);
},
{
name = topleft;
pos = (20,712);
}
);
layerId = "8AF3DB8E-7EC5-4D7D-A87A-6DF3FCB8CADF";
shapes = (
{
closed = 1;
nodes = (
(179,0,l),
(179,704,l),
(76,704,l),
(76,0,l)
);
}
);
width = 254;
},
{
anchors = (
{
name = bottom;
pos = (122,0);
},
{
name = ogonek;
pos = (164,0);
},
{
name = top;
pos = (122,712);
},
{
name = topleft;
pos = (20,712);
}
);
layerId = "F1A19D98-9E48-4F05-B6A0-CD51606DBCB8";
shapes = (
{
closed = 1;
nodes = (
(164,0,l),
(164,705,l),
(80,705,l),
(80,0,l)
);
}
);
width = 243;
}
);
unicode = 73;
},
{
color = 1;
glyphname = J;
lastChange = "2025-10-31 11:44:26 +0000";
layers = (
{
anchors = (
{
name = bottom;
pos = (238,0);
},
{
name = top;
pos = (238,712);
}
);
layerId = "F6364453-91B0-4CE2-A857-F52B6F68B874";
shapes = (
{
closed = 1;
nodes = (
(321,-12,o),
(422,96,o),
(422,256,cs),
(422,700,l),
(229,700,l),
(229,257,ls),
(229,192,o),
(190,159,o),
(139,159,cs),
(82,159,o),
(39,198,o),
(0,235,c),
(0,41,l),
(47,9,o),
(97,-12,o),
(154,-12,cs)
);
}
);
width = 475;
},
{
anchors = (
{
name = bottom;
pos = (193,0);
},
{
name = top;
pos = (193,712);
}
);
layerId = "8AF3DB8E-7EC5-4D7D-A87A-6DF3FCB8CADF";
shapes = (
{
closed = 1;
nodes = (
(243,-11,o),
(317,69,o),
(317,217,cs),
(317,704,l),
(213,704,l),
(213,215,ls),
(213,116,o),
(178,81,o),
(117,81,cs),
(72,81,o),
(36,101,o),
(0,124,c),
(0,25,l),
(35,2,o),
(76,-11,o),
(117,-11,cs)
);
}
);
width = 386;
},
{
anchors = (
{
name = bottom;
pos = (184,0);
},
{
name = top;
pos = (184,712);
}
);
layerId = "F1A19D98-9E48-4F05-B6A0-CD51606DBCB8";
shapes = (
{
closed = 1;
nodes = (
(227,-11,o),
(296,64,o),
(296,209,cs),
(296,705,l),
(210,705,l),
(210,207,ls),
(210,102,o),
(176,65,o),
(112,65,cs),
(69,65,o),
(35,81,o),
(0,102,c),
(0,22,l),
(32,1,o),
(71,-11,o),
(110,-11,cs)
);
}
);
width = 368;
}
);
unicode = 74;
},
{
color = 1;
glyphname = K;
lastChange = "2025-10-31 11:44:26 +0000";
layers = (
{
anchors = (
{
name = bottom;
pos = (362,0);
},
{
name = top;
pos = (362,712);
}
);
layerId = "F6364453-91B0-4CE2-A857-F52B6F68B874";
shapes = (
{
closed = 1;
nodes = (
(252,0,l),
(252,368,l),
(499,0,l),
(732,0,l),
(458,399,l),
(723,700,l),
(493,700,l),
(252,416,l),
(252,700,l),
(58,700,l),
(58,0,l)
);
}
);
width = 724;
},
{
anchors = (
{
name = bottom;
pos = (297,0);
},
{
name = top;
pos = (297,712);
}
);
layerId = "8AF3DB8E-7EC5-4D7D-A87A-6DF3FCB8CADF";
shapes = (
{
closed = 1;
nodes = (
(179,0,l),
(179,336,l),
(466,0,l),
(595,0,l),
(273,379,l),
(570,704,l),
(441,704,l),
(179,410,l),
(179,704,l),
(76,704,l),
(76,0,l)
);
}
);
width = 593;
},
{
anchors = (
{
name = bottom;
pos = (284,0);
},
{
name = top;
pos = (284,712);
}
);
layerId = "F1A19D98-9E48-4F05-B6A0-CD51606DBCB8";
shapes = (
{
closed = 1;
nodes = (
(164,0,l),
(164,330,l),
(459,0,l),
(567,0,l),
(236,375,l),
(539,705,l),
(431,705,l),
(164,409,l),
(164,705,l),
(80,705,l),
(80,0,l)
);
}
);
width = 567;
}
);
unicode = 75;
},
{
color = 1;
glyphname = L;
lastChange = "2025-10-31 11:44:26 +0000";
layers = (
{
anchors = (
{
name = bottom;
pos = (304,0);
},
{
name = center;
pos = (304,356);
},
{
name = top;
pos = (304,712);
},
{
name = topright;
pos = (517,712);
}
);
layerId = "F6364453-91B0-4CE2-A857-F52B6F68B874";
shapes = (
{
closed = 1;
nodes = (
(591,0,l),
(591,170,l),
(252,170,l),
(252,700,l),
(58,700,l),
(58,0,l)
);
}
);
width = 607;
},
{
anchors = (
{
name = bottom;
pos = (270,0);
},
{
name = center;
pos = (270,356);
},
{
name = top;
pos = (270,712);
},
{
name = topright;
pos = (490,712);
}
);
layerId = "8AF3DB8E-7EC5-4D7D-A87A-6DF3FCB8CADF";
shapes = (
{
closed = 1;
nodes = (
(524,0,l),
(524,92,l),
(180,92,l),
(180,704,l),
(76,704,l),
(76,0,l)
);
}
);
width = 540;
},
{
anchors = (
{
name = bottom;
pos = (263,0);
},
{
name = center;
pos = (263,356);
},
{
name = top;
pos = (263,712);
},
{
name = topright;
pos = (487,712);
}
);
layerId = "F1A19D98-9E48-4F05-B6A0-CD51606DBCB8";
shapes = (
{
closed = 1;
nodes = (
(510,0,l),
(510,76,l),
(165,76,l),
(165,705,l),
(80,705,l),
(80,0,l)
);
}
);
width = 526;
}
);
unicode = 76;
},
{
glyphname = Lslash;
lastChange = "2025-10-31 11:44:26 +0000";
layers = (
{
layerId = "F6364453-91B0-4CE2-A857-F52B6F68B874";
shapes = (
{
closed = 1;
nodes = (
(380,398,l),
(380,561,l),
(-8,371,l),
(-8,208,l)
);
},
{
alignment = -1;
pos = (-4,0);
ref = L;
}
);
width = 590;
},
{
layerId = "8AF3DB8E-7EC5-4D7D-A87A-6DF3FCB8CADF";
shapes = (
{
closed = 1;
nodes = (
(298,386,l),
(298,476,l),
(8,276,l),
(8,186,l)
);
},
{
alignment = -1;
pos = (2,0);
ref = L;
}
);
width = 541;
},
{
layerId = "F1A19D98-9E48-4F05-B6A0-CD51606DBCB8";
shapes = (
{
closed = 1;
nodes = (
(319,399,l),
(319,475,l),
(11,265,l),
(11,189,l)
);
},
{
alignment = -1;
pos = (4,0);
ref = L;
}
);
width = 522;
}
);
unicode = 321;
},
{
color = 1;
glyphname = M;
lastChange = "2025-10-31 11:44:26 +0000";
layers = (
{
anchors = (
{
name = bottom;
pos = (390,0);
},
{
name = top;
pos = (390,712);
}
);
layerId = "F6364453-91B0-4CE2-A857-F52B6F68B874";
shapes = (
{
closed = 1;
nodes = (
(208,0,l),
(208,400,l),
(388,128,l),
(569,402,l),
(569,0,l),
(762,0,l),
(762,700,l),
(557,700,l),
(390,429,l),
(223,700,l),
(18,700,l),
(18,0,l)
);
}
);
width = 780;
},
{
anchors = (
{
name = bottom;
pos = (387,0);
},
{
name = top;
pos = (387,712);
}
);
layerId = "8AF3DB8E-7EC5-4D7D-A87A-6DF3FCB8CADF";
shapes = (
{
closed = 1;
nodes = (
(128,0,l),
(128,538,l),
(386,149,l),
(643,538,l),
(643,0,l),
(745,0,l),
(745,700,l),
(643,700,l),
(386,304,l),
(129,700,l),
(26,700,l),
(26,0,l)
);
}
);
width = 773;
},
{
anchors = (
{
name = bottom;
pos = (386,0);
},
{
name = top;
pos = (386,712);
}
);
layerId = "F1A19D98-9E48-4F05-B6A0-CD51606DBCB8";
shapes = (
{
closed = 1;
nodes = (
(112,0,l),
(112,565,l),
(385,153,l),
(658,565,l),
(658,0,l),
(742,0,l),
(742,700,l),
(660,700,l),
(385,279,l),
(110,700,l),
(28,700,l),
(28,0,l)
);
}
);
width = 771;
}
);
unicode = 77;
},
{
color = 1;
glyphname = N;
lastChange = "2025-10-31 11:44:26 +0000";
layers = (
{
anchors = (
{
name = bottom;
pos = (389,0);
},
{
name = top;
pos = (389,712);
}
);
layerId = "F6364453-91B0-4CE2-A857-F52B6F68B874";
shapes = (
{
closed = 1;
nodes = (
(250,0,l),
(250,384,l),
(549,0,l),
(719,0,l),
(719,700,l),
(527,700,l),
(527,330,l),
(239,700,l),
(58,700,l),
(58,0,l)
);
}
);
width = 778;
},
{
anchors = (
{
name = bottom;
pos = (376,0);
},
{
name = top;
pos = (376,712);
}
);
layerId = "8AF3DB8E-7EC5-4D7D-A87A-6DF3FCB8CADF";
shapes = (
{
closed = 1;
nodes = (
(177,0,l),
(177,545,l),
(577,0,l),
(675,0,l),
(675,704,l),
(575,704,l),
(575,160,l),
(177,700,l),
(76,700,l),
(76,0,l)
);
}
);
width = 751;
},
{
anchors = (
{
name = bottom;
pos = (373,0);
},
{
name = top;
pos = (373,712);
}
);
layerId = "F1A19D98-9E48-4F05-B6A0-CD51606DBCB8";
shapes = (
{
closed = 1;
nodes = (
(162,0,l),
(162,577,l),
(582,0,l),
(666,0,l),
(666,705,l),
(584,705,l),
(584,126,l),
(165,700,l),
(80,700,l),
(80,0,l)
);
}
);
width = 746;
}
);
unicode = 78;
},
{
glyphname = Eng;
lastChange = "2025-10-31 11:44:26 +0000";
layers = (
{
layerId = "F6364453-91B0-4CE2-A857-F52B6F68B874";
shapes = (
{
closed = 1;
nodes = (
(649,-163,o),
(719,-113,o),
(719,24,cs),
(719,81,l),
(719,700,l),
(527,700,l),
(527,330,l),
(239,700,l),
(58,700,l),
(58,0,l),
(250,0,l),
(250,384,l),
(529,26,l),
(529,25,l),
(529,-16,o),
(510,-31,o),
(486,-31,cs),
(474,-31,o),
(463,-28,o),
(448,-23,c),
(448,-156,l),
(471,-160,o),
(495,-163,o),
(526,-163,cs)
);
}
);
width = 778;
},
{
layerId = "8AF3DB8E-7EC5-4D7D-A87A-6DF3FCB8CADF";
shapes = (
{
closed = 1;
nodes = (
(652,-189,o),
(675,-121,o),
(675,-27,cs),
(675,14,l),
(675,704,l),
(575,704,l),
(575,160,l),
(177,700,l),
(76,700,l),
(76,0,l),
(177,0,l),
(177,545,l),
(576,1,l),
(576,-48,ls),
(576,-81,o),
(567,-109,o),
(527,-109,cs),
(516,-109,o),
(505,-107,o),
(493,-103,c),
(493,-182,l),
(509,-186,o),
(525,-189,o),
(548,-189,cs)
);
}
);
width = 751;
},
{
layerId = "F1A19D98-9E48-4F05-B6A0-CD51606DBCB8";
shapes = (
{
closed = 1;
nodes = (
(653,-194,o),
(666,-122,o),
(666,-37,cs),
(666,0,l),
(666,705,l),
(584,705,l),
(584,126,l),
(165,700,l),
(80,700,l),
(80,0,l),
(162,0,l),
(162,577,l),
(585,-4,l),
(585,-62,ls),
(585,-94,o),
(578,-125,o),
(535,-125,cs),
(524,-125,o),
(513,-123,o),
(502,-119,c),
(502,-187,l),
(517,-191,o),
(532,-194,o),
(552,-194,cs)
);
}
);
width = 746;
}
);
unicode = 330;
},
{
color = 1;
glyphname = O;
lastChange = "2025-10-31 11:44:26 +0000";
layers = (
{
anchors = (
{
name = bottom;
pos = (414,0);
},
{
name = center;
pos = (414,356);
},
{
name = ogonek;
pos = (485,0);
},
{
name = top;
pos = (414,712);
},
{
name = topleft;
pos = (20,712);
},
{
name = topright;
pos = (808,712);
}
);
layerId = "F6364453-91B0-4CE2-A857-F52B6F68B874";
shapes = (
{
closed = 1;
nodes = (
(621,-14,o),
(791,145,o),
(791,352,cs),
(791,552,o),
(630,714,o),
(414,714,cs),
(198,714,o),
(37,551,o),
(37,350,cs),
(37,149,o),
(197,-14,o),
(413,-14,cs)
);
},
{
closed = 1;
nodes = (
(309,161,o),
(236,251,o),
(236,352,cs),
(236,453,o),
(307,539,o),
(413,539,cs),
(519,539,o),
(592,450,o),
(592,350,cs),
(592,250,o),
(521,161,o),
(414,161,cs)
);
}
);
width = 828;
},
{
anchors = (
{
name = bottom;
pos = (416,0);
},
{
name = center;
pos = (416,356);
},
{
name = ogonek;
pos = (449,0);
},
{
name = top;
pos = (416,712);
},
{
name = topleft;
pos = (20,712);
},
{
name = topright;
pos = (812,712);
}
);
layerId = "8AF3DB8E-7EC5-4D7D-A87A-6DF3FCB8CADF";
shapes = (
{
closed = 1;
nodes = (
(626,-14,o),
(784,149,o),
(784,354,cs),
(784,553,o),
(630,718,o),
(418,718,cs),
(205,718,o),
(49,554,o),
(49,351,cs),
(49,148,o),
(203,-14,o),
(416,-14,cs)
);
},
{
closed = 1;
nodes = (
(262,79,o),
(154,200,o),
(154,354,cs),
(154,504,o),
(262,625,o),
(417,625,cs),
(573,625,o),
(678,498,o),
(678,350,cs),
(678,201,o),
(569,79,o),
(417,79,cs)
);
}
);
width = 832;
},
{
anchors = (
{
name = bottom;
pos = (417,0);
},
{
name = center;
pos = (417,356);
},
{
name = ogonek;
pos = (454,1);
},
{
name = top;
pos = (417,712);
},
{
name = topleft;
pos = (20,712);
},
{
name = topright;
pos = (813,712);
}
);
layerId = "F1A19D98-9E48-4F05-B6A0-CD51606DBCB8";
shapes = (
{
closed = 1;
nodes = (
(627,-14,o),
(782,150,o),
(782,354,cs),
(782,553,o),
(630,719,o),
(419,719,cs),
(206,719,o),
(51,555,o),
(51,352,cs),
(51,148,o),
(204,-14,o),
(417,-14,cs)
);
},
{
closed = 1;
nodes = (
(253,63,o),
(138,190,o),
(138,354,cs),
(138,514,o),
(253,642,o),
(418,642,cs),
(583,642,o),
(695,506,o),
(695,350,cs),
(695,191,o),
(579,63,o),
(418,63,cs)
);
}
);
width = 833;
}
);
unicode = 79;
},
{
glyphname = Oslash;
lastChange = "2025-10-31 11:46:02 +0000";
layers = (
{
layerId = "F6364453-91B0-4CE2-A857-F52B6F68B874";
shapes = (
{
closed = 1;
nodes = (
(323,-5,l),
(350,-10,o),
(377,-14,o),
(408,-14,cs),
(623,-14,o),
(786,151,o),
(786,352,cs),
(786,473,o),
(730,577,o),
(634,645,c),
(679,739,l),
(554,798,l),
(508,702,l),
(476,710,o),
(444,714,o),
(409,714,cs),
(193,714,o),
(32,551,o),
(32,350,cs),
(32,222,o),
(95,115,o),
(195,47,c),
(139,-69,l),
(265,-128,l)
);
},
{
closed = 1;
nodes = (
(244,260,o),
(231,301,o),
(231,352,cs),
(231,456,o),
(304,539,o),
(408,539,cs),
(415,539,o),
(422,539,o),
(429,538,c),
(278,221,l)
);
},
{
closed = 1;
nodes = (
(406,161,o),
(406,161,o),
(403,161,c),
(549,467,l),
(573,434,o),
(587,393,o),
(587,350,cs),
(587,246,o),
(514,161,o),
(409,161,cs)
);
}
);
width = 818;
},
{
layerId = "8AF3DB8E-7EC5-4D7D-A87A-6DF3FCB8CADF";
shapes = (
{
closed = 1;
nodes = (
(202,58,l),
(259,13,o),
(331,-14,o),
(416,-14,cs),
(628,-14,o),
(783,151,o),
(783,354,cs),
(783,451,o),
(748,538,o),
(684,603,c),
(759,684,l),
(703,730,l),
(629,646,l),
(570,691,o),
(501,718,o),
(417,718,cs),
(204,718,o),
(48,554,o),
(48,351,cs),
(48,252,o),
(82,166,o),
(146,101,c),
(75,21,l),
(129,-26,l)
);
},
{
closed = 1;
nodes = (
(174,227,o),
(154,287,o),
(154,354,cs),
(154,500,o),
(258,624,o),
(407,624,cs),
(467,624,o),
(520,607,o),
(567,571,c),
(209,180,l)
);
},
{
closed = 1;
nodes = (
(363,81,o),
(314,97,o),
(263,134,c),
(621,523,l),
(657,475,o),
(677,417,o),
(677,350,cs),
(677,204,o),
(577,81,o),
(427,81,cs)
);
}
);
width = 831;
},
{
layerId = "F1A19D98-9E48-4F05-B6A0-CD51606DBCB8";
shapes = (
{
closed = 1;
nodes = (
(178,71,l),
(242,18,o),
(321,-14,o),
(417,-14,cs),
(628,-14,o),
(782,151,o),
(782,354,cs),
(782,446,o),
(750,530,o),
(694,594,c),
(775,676,l),
(732,719,l),
(653,635,l),
(589,687,o),
(511,719,o),
(419,719,cs),
(206,719,o),
(51,555,o),
(51,351,cs),
(51,259,o),
(80,176,o),
(136,112,c),
(61,36,l),
(102,-6,l)
);
},
{
closed = 1;
nodes = (
(159,221,o),
(138,282,o),
(138,354,cs),
(138,514,o),
(253,642,o),
(418,642,cs),
(483,642,o),
(546,619,o),
(595,577,c),
(195,172,l)
);
},
{
closed = 1;
nodes = (
(353,63,o),
(284,84,o),
(235,129,c),
(635,534,l),
(674,483,o),
(695,422,o),
(695,350,cs),
(695,191,o),
(581,63,o),
(418,63,cs)
);
}
);
width = 833;
}
);
unicode = 216;
},
{
glyphname = OE;
lastChange = "2025-10-31 11:44:26 +0000";
layers = (
{
layerId = "F6364453-91B0-4CE2-A857-F52B6F68B874";
shapes = (
{
closed = 1;
nodes = (
(446,-14,o),
(487,-10,o),
(519,0,c),
(1078,0,l),
(1078,165,l),
(702,165,l),
(702,276,l),
(1038,276,l),
(1038,429,l),
(702,429,l),
(702,535,l),
(1073,535,l),
(1073,700,l),
(521,700,l),
(486,709,o),
(453,714,o),
(414,714,cs),
(198,714,o),
(37,551,o),
(37,350,cs),
(37,149,o),
(197,-14,o),
(413,-14,cs)
);
},
{
closed = 1;
nodes = (
(321,162,o),
(236,248,o),
(236,352,cs),
(236,453,o),
(307,539,o),
(413,539,cs),
(448,539,o),
(481,529,o),
(510,510,c),
(510,189,l),
(487,173,o),
(460,162,o),
(432,162,cs)
);
}
);
width = 1127;
},
{
layerId = "8AF3DB8E-7EC5-4D7D-A87A-6DF3FCB8CADF";
shapes = (
{
closed = 1;
nodes = (
(460,-13,o),
(497,-8,o),
(530,0,c),
(998,0,l),
(998,91,l),
(615,91,l),
(615,314,l),
(958,314,l),
(958,402,l),
(615,402,l),
(615,613,l),
(988,613,l),
(988,704,l),
(522,704,l),
(490,713,o),
(455,718,o),
(418,718,cs),
(205,718,o),
(49,554,o),
(49,351,cs),
(49,141,o),
(218,-13,o),
(426,-13,cs)
);
},
{
closed = 1;
nodes = (
(282,82,o),
(154,178,o),
(154,354,cs),
(154,510,o),
(265,625,o),
(421,625,cs),
(453,625,o),
(483,618,o),
(511,607,c),
(511,97,l),
(492,89,o),
(473,82,o),
(443,82,cs)
);
}
);
width = 1062;
},
{
layerId = "F1A19D98-9E48-4F05-B6A0-CD51606DBCB8";
shapes = (
{
closed = 1;
nodes = (
(452,-14,o),
(489,-10,o),
(520,0,c),
(982,0,l),
(982,76,l),
(597,76,l),
(597,321,l),
(942,321,l),
(942,397,l),
(597,397,l),
(597,629,l),
(971,629,l),
(971,705,l),
(522,705,l),
(490,714,o),
(455,719,o),
(419,719,cs),
(206,719,o),
(51,555,o),
(51,351,cs),
(51,142,o),
(212,-14,o),
(417,-14,cs)
);
},
{
closed = 1;
nodes = (
(252,63,o),
(138,190,o),
(138,354,cs),
(138,517,o),
(254,642,o),
(418,642,cs),
(451,642,o),
(482,637,o),
(511,626,c),
(511,78,l),
(485,69,o),
(446,63,o),
(418,63,cs)
);
}
);
width = 1049;
}
);
unicode = 338;
},
{
color = 1;
glyphname = P;
lastChange = "2025-10-31 11:44:26 +0000";
layers = (
{
anchors = (
{
name = bottom;
pos = (336,0);
},
{
name = top;
pos = (336,712);
}
);
layerId = "F6364453-91B0-4CE2-A857-F52B6F68B874";
shapes = (
{
closed = 1;
nodes = (
(252,0,l),
(252,200,l),
(348,200,ls),
(522,200,o),
(649,289,o),
(649,454,cs),
(649,610,o),
(535,700,o),
(358,700,cs),
(58,700,l),
(58,0,l)
);
},
{
closed = 1;
nodes = (
(252,537,l),
(343,537,ls),
(415,537,o),
(455,505,o),
(455,445,cs),
(455,389,o),
(413,352,o),
(344,352,cs),
(252,352,l)
);
}
);
width = 672;
},
{
anchors = (
{
name = bottom;
pos = (301,0);
},
{
name = top;
pos = (301,712);
}
);
layerId = "8AF3DB8E-7EC5-4D7D-A87A-6DF3FCB8CADF";
shapes = (
{
closed = 1;
nodes = (
(180,-2,l),
(180,266,l),
(308,266,ls),
(457,266,o),
(573,347,o),
(573,490,cs),
(573,625,o),
(471,704,o),
(316,704,cs),
(76,704,l),
(76,-2,l)
);
},
{
closed = 1;
nodes = (
(180,614,l),
(307,614,ls),
(411,614,o),
(469,572,o),
(469,485,cs),
(469,402,o),
(409,355,o),
(306,355,cs),
(180,355,l)
);
}
);
width = 602;
},
{
anchors = (
{
name = bottom;
pos = (294,0);
},
{
name = top;
pos = (294,712);
}
);
layerId = "F1A19D98-9E48-4F05-B6A0-CD51606DBCB8";
shapes = (
{
closed = 1;
nodes = (
(166,-2,l),
(166,279,l),
(300,279,ls),
(444,279,o),
(558,358,o),
(558,497,cs),
(558,628,o),
(457,705,o),
(307,705,cs),
(80,705,l),
(80,-2,l)
);
},
{
closed = 1;
nodes = (
(166,629,l),
(300,629,ls),
(409,629,o),
(472,585,o),
(472,493,cs),
(472,405,o),
(407,355,o),
(298,355,cs),
(166,355,l)
);
}
);
width = 588;
}
);
unicode = 80;
},
{
glyphname = Thorn;
lastChange = "2025-10-31 11:44:26 +0000";
layers = (
{
layerId = "F6364453-91B0-4CE2-A857-F52B6F68B874";
shapes = (
{
closed = 1;
nodes = (
(250,0,l),
(250,135,l),
(350,135,ls),
(494,135,o),
(580,216,o),
(580,363,cs),
(580,531,o),
(470,603,o),
(314,603,cs),
(250,603,l),
(250,706,l),
(58,706,l),
(58,0,l)
);
},
{
closed = 1;
nodes = (
(250,449,l),
(275,449,ls),
(335,449,o),
(387,441,o),
(387,368,cs),
(387,293,o),
(340,281,o),
(277,281,cs),
(250,281,l)
);
}
);
width = 603;
},
{
layerId = "8AF3DB8E-7EC5-4D7D-A87A-6DF3FCB8CADF";
shapes = (
{
closed = 1;
nodes = (
(174,0,l),
(174,171,l),
(238,171,ls),
(369,171,o),
(473,230,o),
(473,374,cs),
(473,533,o),
(353,580,o),
(216,580,cs),
(174,580,l),
(174,706,l),
(76,706,l),
(76,0,l)
);
},
{
closed = 1;
nodes = (
(174,493,l),
(203,493,ls),
(288,493,o),
(375,485,o),
(375,376,cs),
(375,281,o),
(306,256,o),
(222,256,cs),
(174,256,l)
);
}
);
width = 501;
},
{
layerId = "F1A19D98-9E48-4F05-B6A0-CD51606DBCB8";
shapes = (
{
closed = 1;
nodes = (
(159,0,l),
(159,178,l),
(216,178,ls),
(344,178,o),
(451,233,o),
(451,376,cs),
(451,533,o),
(329,575,o),
(196,575,cs),
(159,575,l),
(159,706,l),
(80,706,l),
(80,0,l)
);
},
{
closed = 1;
nodes = (
(159,502,l),
(188,502,ls),
(280,502,o),
(372,494,o),
(372,378,cs),
(372,277,o),
(298,251,o),
(211,251,cs),
(159,251,l)
);
}
);
width = 481;
}
);
unicode = 222;
},
{
color = 3;
glyphname = Q;
lastChange = "2025-10-31 11:44:26 +0000";
layers = (
{
anchors = (
{
name = bottom;
pos = (442,0);
},
{
name = top;
pos = (442,712);
}
);
layerId = "F6364453-91B0-4CE2-A857-F52B6F68B874";
shapes = (
{
closed = 1;
nodes = (
(847,52,l),
(737,163,l),
(776,220,o),
(791,274,o),
(791,350,cs),
(791,553,o),
(630,714,o),
(414,714,cs),
(198,714,o),
(37,551,o),
(37,350,cs),
(37,147,o),
(197,-14,o),
(413,-14,cs),
(497,-14,o),
(590,13,o),
(635,55,c),
(847,-148,l)
);
},
{
closed = 1;
nodes = (
(309,161,o),
(236,250,o),
(236,350,cs),
(236,453,o),
(307,539,o),
(413,539,cs),
(519,539,o),
(592,450,o),
(592,350,cs),
(592,247,o),
(521,161,o),
(414,161,cs)
);
}
);
width = 884;
},
{
anchors = (
{
name = bottom;
pos = (419,0);
},
{
name = top;
pos = (419,712);
}
);
layerId = "8AF3DB8E-7EC5-4D7D-A87A-6DF3FCB8CADF";
shapes = (
{
closed = 1;
nodes = (
(791,34,l),
(695,114,l),
(751,178,o),
(784,257,o),
(784,353,cs),
(784,553,o),
(630,718,o),
(418,718,cs),
(205,718,o),
(49,554,o),
(49,350,cs),
(49,149,o),
(203,-14,o),
(416,-14,cs),
(496,-14,o),
(561,10,o),
(621,46,c),
(791,-91,l)
);
},
{
closed = 1;
nodes = (
(262,79,o),
(154,201,o),
(154,353,cs),
(154,504,o),
(262,625,o),
(417,625,cs),
(573,625,o),
(678,498,o),
(678,350,cs),
(678,201,o),
(569,79,o),
(417,79,cs)
);
}
);
width = 837;
},
{
anchors = (
{
name = bottom;
pos = (414,0);
},
{
name = top;
pos = (414,712);
}
);
layerId = "F1A19D98-9E48-4F05-B6A0-CD51606DBCB8";
shapes = (
{
closed = 1;
nodes = (
(780,30,l),
(686,104,l),
(746,169,o),
(782,254,o),
(782,354,cs),
(782,553,o),
(630,719,o),
(419,719,cs),
(206,719,o),
(51,554,o),
(51,350,cs),
(51,149,o),
(204,-14,o),
(417,-14,cs),
(497,-14,o),
(554,9,o),
(618,44,c),
(780,-79,l)
);
},
{
closed = 1;
nodes = (
(253,63,o),
(138,190,o),
(138,354,cs),
(138,514,o),
(253,642,o),
(418,642,cs),
(584,642,o),
(695,507,o),
(695,350,cs),
(695,191,o),
(579,63,o),
(418,63,cs)
);
}
);
width = 828;
}
);
unicode = 81;
},
{
color = 1;
glyphname = R;
lastChange = "2025-10-31 11:44:26 +0000";
layers = (
{
anchors = (
{
name = bottom;
pos = (348,0);
},
{
name = top;
pos = (348,712);
}
);
layerId = "F6364453-91B0-4CE2-A857-F52B6F68B874";
shapes = (
{
closed = 1;
nodes = (
(253,0,l),
(253,212,l),
(338,212,l),
(478,0,l),
(702,0,l),
(535,244,l),
(623,281,o),
(679,353,o),
(679,461,cs),
(679,605,o),
(584,700,o),
(389,700,cs),
(58,700,l),
(58,0,l)
);
},
{
closed = 1;
nodes = (
(253,532,l),
(379,532,ls),
(444,532,o),
(484,505,o),
(484,449,cs),
(484,398,o),
(446,364,o),
(380,364,cs),
(253,364,l)
);
}
);
width = 695;
},
{
anchors = (
{
name = bottom;
pos = (302,0);
},
{
name = top;
pos = (302,712);
}
);
layerId = "8AF3DB8E-7EC5-4D7D-A87A-6DF3FCB8CADF";
shapes = (
{
closed = 1;
nodes = (
(181,0,l),
(181,285,l),
(270,285,l),
(476,0,l),
(599,0,l),
(380,294,l),
(493,317,o),
(566,388,o),
(566,496,cs),
(566,620,o),
(466,704,o),
(314,704,cs),
(76,704,l),
(76,0,l)
);
},
{
closed = 1;
nodes = (
(181,613,l),
(304,613,ls),
(404,613,o),
(462,576,o),
(462,492,cs),
(462,403,o),
(389,367,o),
(290,367,cs),
(181,367,l)
);
}
);
width = 604;
},
{
anchors = (
{
name = bottom;
pos = (293,0);
},
{
name = top;
pos = (293,712);
}
);
layerId = "F1A19D98-9E48-4F05-B6A0-CD51606DBCB8";
shapes = (
{
closed = 1;
nodes = (
(166,0,l),
(166,299,l),
(256,299,l),
(475,0,l),
(578,0,l),
(349,304,l),
(466,324,o),
(543,395,o),
(543,503,cs),
(543,623,o),
(443,705,o),
(299,705,cs),
(80,705,l),
(80,0,l)
);
},
{
closed = 1;
nodes = (
(166,629,l),
(289,629,ls),
(397,629,o),
(457,589,o),
(457,500,cs),
(457,404,o),
(377,368,o),
(272,368,cs),
(166,368,l)
);
}
);
width = 586;
}
);
unicode = 82;
},
{
color = 1;
glyphname = S;
lastChange = "2025-10-31 11:44:26 +0000";
layers = (
{
anchors = (
{
name = bottom;
pos = (329,0);
},
{
name = top;
pos = (329,712);
}
);
layerId = "F6364453-91B0-4CE2-A857-F52B6F68B874";
shapes = (
{
closed = 1;
nodes = (
(502,-12,o),
(627,59,o),
(627,201,cs),
(627,482,o),
(247,399,o),
(247,506,cs),
(247,530,o),
(273,556,o),
(337,556,cs),
(428,556,o),
(538,503,o),
(610,442,c),
(610,619,l),
(534,680,o),
(443,712,o),
(322,712,cs),
(181,712,o),
(51,640,o),
(51,488,cs),
(51,231,o),
(433,302,o),
(433,197,cs),
(433,151,o),
(376,149,o),
(343,149,cs),
(231,149,o),
(103,206,o),
(18,278,c),
(18,104,l),
(106,24,o),
(229,-12,o),
(346,-12,cs)
);
}
);
width = 657;
},
{
anchors = (
{
name = bottom;
pos = (279,0);
},
{
name = top;
pos = (279,712);
}
);
layerId = "8AF3DB8E-7EC5-4D7D-A87A-6DF3FCB8CADF";
shapes = (
{
closed = 1;
nodes = (
(391,-12,o),
(515,42,o),
(515,179,cs),
(515,414,o),
(151,403,o),
(151,544,cs),
(151,599,o),
(201,629,o),
(276,629,cs),
(337,629,o),
(406,607,o),
(463,539,c),
(463,654,l),
(412,698,o),
(348,717,o),
(273,717,cs),
(155,717,o),
(47,655,o),
(47,543,cs),
(47,320,o),
(411,330,o),
(411,175,cs),
(411,100,o),
(332,77,o),
(271,77,cs),
(194,77,o),
(108,107,o),
(29,183,c),
(29,77,l),
(97,12,o),
(177,-12,o),
(266,-12,cs)
);
}
);
width = 557;
},
{
anchors = (
{
name = bottom;
pos = (269,0);
},
{
name = top;
pos = (269,712);
}
);
layerId = "F1A19D98-9E48-4F05-B6A0-CD51606DBCB8";
shapes = (
{
closed = 1;
nodes = (
(369,-12,o),
(492,38,o),
(492,178,cs),
(492,402,o),
(132,404,o),
(132,552,cs),
(132,612,o),
(188,643,o),
(264,643,cs),
(317,643,o),
(381,627,o),
(434,558,c),
(434,661,l),
(387,701,o),
(328,718,o),
(263,718,cs),
(150,718,o),
(46,658,o),
(46,554,cs),
(46,338,o),
(406,334,o),
(406,170,cs),
(406,90,o),
(322,63,o),
(256,63,cs),
(187,63,o),
(108,87,o),
(31,164,c),
(31,71,l),
(95,10,o),
(166,-12,o),
(250,-12,cs)
);
}
);
width = 537;
}
);
unicode = 83;
},
{
glyphname = Germandbls;
lastChange = "2025-10-31 11:44:26 +0000";
layers = (
{
layerId = "F6364453-91B0-4CE2-A857-F52B6F68B874";
shapes = (
{
closed = 1;
nodes = (
(462,-16,o),
(634,39,o),
(634,204,cs),
(634,304,o),
(566,372,o),
(478,385,c),
(599,511,l),
(599,647,o),
(489,739,o),
(314,739,cs),
(107,739,o),
(7,635,o),
(7,459,cs),
(7,0,l),
(196,0,l),
(196,453,ls),
(196,545,o),
(241,580,o),
(311,580,cs),
(372,580,o),
(415,552,o),
(415,505,c),
(333,404,l),
(333,303,l),
(401,298,o),
(445,268,o),
(445,220,cs),
(445,172,o),
(403,136,o),
(299,133,c),
(299,-3,l)
);
}
);
width = 663;
},
{
layerId = "8AF3DB8E-7EC5-4D7D-A87A-6DF3FCB8CADF";
shapes = (
{
closed = 1;
nodes = (
(413,-6,o),
(542,62,o),
(542,216,cs),
(542,323,o),
(467,394,o),
(350,405,c),
(497,546,l),
(497,674,o),
(400,751,o),
(265,751,cs),
(93,751,o),
(11,643,o),
(11,510,cs),
(11,0,l),
(109,0,l),
(109,508,ls),
(109,591,o),
(160,663,o),
(261,663,cs),
(341,663,o),
(398,623,o),
(398,554,c),
(265,419,l),
(265,351,l),
(374,343,o),
(442,303,o),
(442,211,cs),
(442,115,o),
(366,74,o),
(226,74,c),
(226,-3,l)
);
}
);
width = 576;
},
{
layerId = "F1A19D98-9E48-4F05-B6A0-CD51606DBCB8";
shapes = (
{
closed = 1;
nodes = (
(402,-3,o),
(524,67,o),
(524,218,cs),
(524,327,o),
(447,398,o),
(324,409,c),
(477,553,l),
(477,680,o),
(382,753,o),
(255,753,cs),
(89,753,o),
(12,644,o),
(12,520,cs),
(12,0,l),
(92,0,l),
(92,519,ls),
(92,599,o),
(143,680,o),
(251,680,cs),
(334,680,o),
(394,637,o),
(394,564,c),
(251,422,l),
(251,360,l),
(368,352,o),
(441,310,o),
(441,209,cs),
(441,105,o),
(358,62,o),
(211,62,c),
(211,-3,l)
);
}
);
width = 559;
}
);
unicode = 7838;
},
{
color = 1;
glyphname = T;
lastChange = "2025-10-31 11:44:26 +0000";
layers = (
{
anchors = (
{
name = bottom;
pos = (319,0);
},
{
name = center;
pos = (319,356);
},
{
name = top;
pos = (319,712);
}
);
layerId = "F6364453-91B0-4CE2-A857-F52B6F68B874";
shapes = (
{
closed = 1;
nodes = (
(415,0,l),
(415,530,l),
(625,530,l),
(625,700,l),
(11,700,l),
(11,530,l),
(221,530,l),
(221,0,l)
);
}
);
width = 637;
},
{
anchors = (
{
name = bottom;
pos = (270,0);
},
{
name = center;
pos = (270,356);
},
{
name = top;
pos = (270,712);
}
);
layerId = "8AF3DB8E-7EC5-4D7D-A87A-6DF3FCB8CADF";
shapes = (
{
closed = 1;
nodes = (
(321,0,l),
(321,613,l),
(531,613,l),
(531,704,l),
(9,704,l),
(9,613,l),
(219,613,l),
(219,0,l)
);
}
);
width = 540;
},
{
anchors = (
{
name = bottom;
pos = (260,0);
},
{
name = center;
pos = (260,356);
},
{
name = top;
pos = (260,712);
}
);
layerId = "F1A19D98-9E48-4F05-B6A0-CD51606DBCB8";
shapes = (
{
closed = 1;
nodes = (
(302,0,l),
(302,629,l),
(512,629,l),
(512,705,l),
(8,705,l),
(8,629,l),
(218,629,l),
(218,0,l)
);
}
);
width = 520;
}
);
unicode = 84;
},
{
color = 1;
glyphname = U;
lastChange = "2025-10-31 11:44:26 +0000";
layers = (
{
anchors = (
{
name = bottom;
pos = (379,0);
},
{
name = ogonek;
pos = (452,0);
},
{
name = top;
pos = (379,712);
},
{
name = topright;
pos = (738,712);
}
);
layerId = "F6364453-91B0-4CE2-A857-F52B6F68B874";
shapes = (
{
closed = 1;
nodes = (
(575,-13,o),
(704,86,o),
(704,312,cs),
(704,700,l),
(507,700,l),
(507,306,ls),
(507,206,o),
(458,162,o),
(378,162,cs),
(298,162,o),
(249,210,o),
(249,311,cs),
(249,700,l),
(52,700,l),
(52,307,ls),
(52,90,o),
(174,-13,o),
(376,-13,cs)
);
}
);
width = 758;
},
{
anchors = (
{
name = bottom;
pos = (356,0);
},
{
name = ogonek;
pos = (400,0);
},
{
name = top;
pos = (356,712);
},
{
name = topright;
pos = (691,712);
}
);
layerId = "8AF3DB8E-7EC5-4D7D-A87A-6DF3FCB8CADF";
shapes = (
{
closed = 1;
nodes = (
(543,-15,o),
(642,98,o),
(642,291,cs),
(642,705,l),
(540,705,l),
(540,289,ls),
(540,148,o),
(473,80,o),
(356,80,cs),
(231,80,o),
(171,159,o),
(171,292,cs),
(171,705,l),
(68,705,l),
(68,288,ls),
(68,98,o),
(171,-15,o),
(356,-15,cs)
);
}
);
width = 711;
},
{
anchors = (
{
name = bottom;
pos = (351,0);
},
{
name = ogonek;
pos = (392,0);
},
{
name = top;
pos = (351,712);
},
{
name = topright;
pos = (682,712);
}
);
layerId = "F1A19D98-9E48-4F05-B6A0-CD51606DBCB8";
shapes = (
{
closed = 1;
nodes = (
(536,-15,o),
(630,100,o),
(630,287,cs),
(630,706,l),
(546,706,l),
(546,285,ls),
(546,136,o),
(476,63,o),
(351,63,cs),
(218,63,o),
(155,148,o),
(155,288,cs),
(155,706,l),
(71,706,l),
(71,284,ls),
(71,102,o),
(172,-15,o),
(352,-15,cs)
);
}
);
width = 702;
}
);
unicode = 85;
},
{
color = 3;
glyphname = V;
lastChange = "2025-10-31 11:44:26 +0000";
layers = (
{
anchors = (
{
name = bottom;
pos = (367,0);
},
{
name = top;
pos = (367,712);
}
);
layerId = "F6364453-91B0-4CE2-A857-F52B6F68B874";
shapes = (
{
closed = 1;
nodes = (
(456,-5,l),
(740,700,l),
(527,700,l),
(368,257,l),
(209,700,l),
(-8,700,l),
(276,-5,l)
);
}
);
width = 733;
},
{
anchors = (
{
name = bottom;
pos = (331,0);
},
{
name = top;
pos = (331,712);
}
);
layerId = "8AF3DB8E-7EC5-4D7D-A87A-6DF3FCB8CADF";
shapes = (
{
closed = 1;
nodes = (
(388,-1,l),
(664,704,l),
(552,704,l),
(332,116,l),
(110,704,l),
(-5,704,l),
(274,-1,l)
);
}
);
width = 661;
},
{
anchors = (
{
name = bottom;
pos = (323,0);
},
{
name = top;
pos = (323,712);
}
);
layerId = "F1A19D98-9E48-4F05-B6A0-CD51606DBCB8";
shapes = (
{
closed = 1;
nodes = (
(374,0,l),
(649,705,l),
(557,705,l),
(325,88,l),
(90,705,l),
(-4,705,l),
(273,0,l)
);
}
);
width = 646;
}
);
unicode = 86;
},
{
color = 1;
glyphname = W;
lastChange = "2025-10-31 11:44:26 +0000";
layers = (
{
anchors = (
{
name = bottom;
pos = (541,0);
},
{
name = top;
pos = (541,712);
}
);
layerId = "F6364453-91B0-4CE2-A857-F52B6F68B874";
shapes = (
{
closed = 1;
nodes = (
(400,-5,l),
(540,398,l),
(681,-5,l),
(850,-5,l),
(1084,700,l),
(883,700,l),
(761,295,l),
(626,702,l),
(459,702,l),
(324,295,l),
(202,700,l),
(-3,700,l),
(231,-5,l)
);
}
);
width = 1081;
},
{
anchors = (
{
name = bottom;
pos = (504,0);
},
{
name = top;
pos = (504,712);
}
);
layerId = "8AF3DB8E-7EC5-4D7D-A87A-6DF3FCB8CADF";
shapes = (
{
closed = 1;
nodes = (
(336,-1,l),
(503,551,l),
(676,-1,l),
(771,-1,l),
(1005,704,l),
(898,704,l),
(724,154,l),
(554,705,l),
(458,705,l),
(292,154,l),
(113,704,l),
(3,704,l),
(239,-1,l)
);
}
);
width = 1008;
},
{
anchors = (
{
name = bottom;
pos = (497,0);
},
{
name = top;
pos = (497,712);
}
);
layerId = "F1A19D98-9E48-4F05-B6A0-CD51606DBCB8";
shapes = (
{
closed = 1;
nodes = (
(323,0,l),
(496,582,l),
(675,0,l),
(755,0,l),
(989,705,l),
(901,705,l),
(717,126,l),
(539,706,l),
(458,706,l),
(285,126,l),
(95,705,l),
(4,705,l),
(241,0,l)
);
}
);
width = 993;
}
);
unicode = 87;
},
{
color = 3;
glyphname = X;
lastChange = "2025-10-31 11:44:26 +0000";
layers = (
{
anchors = (
{
name = bottom;
pos = (355,0);
},
{
name = top;
pos = (355,712);
}
);
layerId = "F6364453-91B0-4CE2-A857-F52B6F68B874";
shapes = (
{
closed = 1;
nodes = (
(218,0,l),
(353,211,l),
(487,0,l),
(710,0,l),
(470,358,l),
(700,700,l),
(482,700,l),
(357,503,l),
(233,700,l),
(10,700,l),
(240,356,l),
(0,0,l)
);
}
);
width = 710;
},
{
anchors = (
{
name = bottom;
pos = (321,0);
},
{
name = top;
pos = (321,712);
}
);
layerId = "8AF3DB8E-7EC5-4D7D-A87A-6DF3FCB8CADF";
shapes = (
{
closed = 1;
nodes = (
(127,0,l),
(320,282,l),
(514,0,l),
(632,0,l),
(381,362,l),
(619,704,l),
(503,704,l),
(323,439,l),
(140,704,l),
(20,704,l),
(261,360,l),
(8,0,l)
);
}
);
width = 641;
},
{
anchors = (
{
name = bottom;
pos = (314,0);
},
{
name = top;
pos = (314,712);
}
);
layerId = "F1A19D98-9E48-4F05-B6A0-CD51606DBCB8";
shapes = (
{
closed = 1;
nodes = (
(109,0,l),
(313,296,l),
(519,0,l),
(616,0,l),
(363,363,l),
(603,705,l),
(507,705,l),
(316,426,l),
(121,705,l),
(22,705,l),
(265,361,l),
(10,0,l)
);
}
);
width = 627;
}
);
unicode = 88;
},
{
color = 1;
glyphname = Y;
lastChange = "2025-10-31 11:44:26 +0000";
layers = (
{
anchors = (
{
name = bottom;
pos = (357,0);
},
{
name = top;
pos = (357,712);
},
{
name = topleft;
pos = (20,712);
}
);
layerId = "F6364453-91B0-4CE2-A857-F52B6F68B874";
shapes = (
{
closed = 1;
nodes = (
(454,0,l),
(454,265,l),
(720,700,l),
(503,700,l),
(358,445,l),
(214,700,l),
(-7,700,l),
(259,262,l),
(259,0,l)
);
}
);
width = 713;
},
{
anchors = (
{
name = bottom;
pos = (318,0);
},
{
name = top;
pos = (318,712);
},
{
name = topleft;
pos = (20,712);
}
);
layerId = "8AF3DB8E-7EC5-4D7D-A87A-6DF3FCB8CADF";
shapes = (
{
closed = 1;
nodes = (
(370,0,l),
(370,278,l),
(639,704,l),
(524,704,l),
(321,373,l),
(117,704,l),
(-3,704,l),
(267,277,l),
(267,0,l)
);
}
);
width = 636;
},
{
anchors = (
{
name = bottom;
pos = (311,0);
},
{
name = top;
pos = (311,712);
},
{
name = topleft;
pos = (20,712);
}
);
layerId = "F1A19D98-9E48-4F05-B6A0-CD51606DBCB8";
shapes = (
{
closed = 1;
nodes = (
(353,0,l),
(353,281,l),
(623,705,l),
(528,705,l),
(314,358,l),
(98,705,l),
(-2,705,l),
(269,280,l),
(269,0,l)
);
}
);
width = 621;
}
);
unicode = 89;
},
{
color = 1;
glyphname = Z;
lastChange = "2025-10-31 11:44:26 +0000";
layers = (
{
anchors = (
{
name = bottom;
pos = (312,0);
},
{
name = center;
pos = (312,356);
},
{
name = top;
pos = (312,712);
}
);
layerId = "F6364453-91B0-4CE2-A857-F52B6F68B874";
shapes = (
{
closed = 1;
nodes = (
(615,0,l),
(615,164,l),
(264,164,l),
(615,559,l),
(615,700,l),
(8,700,l),
(8,536,l),
(347,536,l),
(-4,141,l),
(-4,0,l)
);
}
);
width = 624;
},
{
anchors = (
{
name = bottom;
pos = (320,0);
},
{
name = center;
pos = (320,356);
},
{
name = top;
pos = (320,712);
}
);
layerId = "8AF3DB8E-7EC5-4D7D-A87A-6DF3FCB8CADF";
shapes = (
{
closed = 1;
nodes = (
(599,0,l),
(599,90,l),
(147,90,l),
(617,620,l),
(617,704,l),
(36,704,l),
(36,614,l),
(486,614,l),
(11,84,l),
(11,0,l)
);
}
);
width = 639;
},
{
anchors = (
{
name = bottom;
pos = (321,0);
},
{
name = center;
pos = (321,356);
},
{
name = top;
pos = (321,712);
}
);
layerId = "F1A19D98-9E48-4F05-B6A0-CD51606DBCB8";
shapes = (
{
closed = 1;
nodes = (
(596,0,l),
(596,75,l),
(124,75,l),
(617,632,l),
(617,705,l),
(42,705,l),
(42,630,l),
(514,630,l),
(14,72,l),
(14,0,l)
);
}
);
width = 642;
}
);
unicode = 90;
},
{
color = 1;
glyphname = a;
lastChange = "2025-10-31 11:44:26 +0000";
layers = (
{
anchors = (
{
name = bottom;
pos = (306,0);
},
{
name = ogonek;
pos = (558,0);
},
{
name = top;
pos = (306,536);
}
);
layerId = "F6364453-91B0-4CE2-A857-F52B6F68B874";
shapes = (
{
closed = 1;
nodes = (
(286,-12,o),
(335,15,o),
(372,56,c),
(558,-12,l),
(558,311,ls),
(558,466,o),
(478,549,o),
(290,549,cs),
(202,549,o),
(140,532,o),
(76,507,c),
(76,373,l),
(136,396,o),
(187,404,o),
(240,404,cs),
(329,404,o),
(373,378,o),
(373,315,cs),
(373,306,l),
(342,317,o),
(293,327,o),
(241,327,cs),
(116,327,o),
(29,269,o),
(29,157,cs),
(29,49,o),
(109,-12,o),
(214,-12,cs)
);
},
{
closed = 1;
nodes = (
(247,107,o),
(214,133,o),
(214,170,cs),
(214,206,o),
(246,235,o),
(302,235,cs),
(329,235,o),
(356,229,o),
(373,221,c),
(373,139,l),
(346,116,o),
(317,107,o),
(286,107,cs)
);
}
);
width = 611;
},
{
anchors = (
{
name = bottom;
pos = (280,0);
},
{
name = ogonek;
pos = (493,0);
},
{
name = top;
pos = (280,536);
}
);
layerId = "8AF3DB8E-7EC5-4D7D-A87A-6DF3FCB8CADF";
shapes = (
{
closed = 1;
nodes = (
(300,-11,o),
(348,10,o),
(392,50,c),
(493,-2,l),
(493,309,ls),
(493,437,o),
(391,502,o),
(263,502,cs),
(184,502,o),
(117,480,o),
(69,460,c),
(69,372,l),
(129,407,o),
(189,419,o),
(252,419,cs),
(337,419,o),
(394,391,o),
(394,318,cs),
(394,300,l),
(353,323,o),
(301,332,o),
(245,332,cs),
(141,332,o),
(34,293,o),
(34,169,cs),
(34,53,o),
(136,-11,o),
(232,-11,cs)
);
},
{
closed = 1;
nodes = (
(192,65,o),
(133,96,o),
(133,163,cs),
(133,232,o),
(202,261,o),
(265,261,cs),
(324,261,o),
(363,244,o),
(394,227,c),
(394,125,l),
(362,88,o),
(319,65,o),
(259,65,cs)
);
}
);
width = 559;
},
{
anchors = (
{
name = bottom;
pos = (274,0);
},
{
name = ogonek;
pos = (480,0);
},
{
name = top;
pos = (274,536);
}
);
layerId = "F1A19D98-9E48-4F05-B6A0-CD51606DBCB8";
shapes = (
{
closed = 1;
nodes = (
(303,-11,o),
(351,9,o),
(396,49,c),
(480,0,l),
(480,308,ls),
(480,431,o),
(373,492,o),
(257,492,cs),
(181,492,o),
(112,470,o),
(67,450,c),
(67,372,l),
(127,408,o),
(190,422,o),
(254,422,cs),
(338,422,o),
(398,394,o),
(398,318,cs),
(398,299,l),
(355,324,o),
(303,333,o),
(246,333,cs),
(146,333,o),
(35,296,o),
(35,171,cs),
(35,42,o),
(140,-11,o),
(235,-11,cs)
);
},
{
closed = 1;
nodes = (
(181,57,o),
(117,90,o),
(117,161,cs),
(117,238,o),
(193,266,o),
(258,266,cs),
(322,266,o),
(365,247,o),
(398,228,c),
(398,122,l),
(365,82,o),
(318,57,o),
(253,57,cs)
);
}
);
width = 548;
}
);
unicode = 97;
},
{
glyphname = ae;
lastChange = "2025-10-31 11:46:19 +0000";
layers = (
{
layerId = "F6364453-91B0-4CE2-A857-F52B6F68B874";
shapes = (
{
closed = 1;
nodes = (
(738,-17,o),
(817,3,o),
(879,42,c),
(879,190,l),
(830,146,o),
(734,121,o),
(667,121,cs),
(631,121,o),
(601,128,o),
(577,148,c),
(932,240,l),
(932,401,o),
(840,548,o),
(664,548,cs),
(595,548,o),
(535,527,o),
(488,491,c),
(445,530,o),
(379,549,o),
(287,549,cs),
(211,549,o),
(144,536,o),
(73,507,c),
(73,373,l),
(133,396,o),
(184,404,o),
(237,404,cs),
(326,404,o),
(370,378,o),
(370,315,cs),
(370,306,l),
(339,317,o),
(290,327,o),
(238,327,cs),
(126,327,o),
(26,281,o),
(26,157,cs),
(26,49,o),
(126,-12,o),
(241,-12,cs),
(330,-12,o),
(400,3,o),
(477,48,c),
(525,7,o),
(588,-17,o),
(664,-17,cs)
);
},
{
closed = 1;
nodes = (
(244,107,o),
(211,133,o),
(211,170,cs),
(211,206,o),
(243,235,o),
(299,235,cs),
(326,235,o),
(353,229,o),
(370,221,c),
(370,139,l),
(343,116,o),
(314,107,o),
(283,107,cs)
);
},
{
closed = 1;
nodes = (
(557,332,o),
(583,407,o),
(653,407,cs),
(700,407,o),
(734,375,o),
(746,319,c),
(562,272,l)
);
}
);
width = 962;
},
{
layerId = "8AF3DB8E-7EC5-4D7D-A87A-6DF3FCB8CADF";
shapes = (
{
closed = 1;
nodes = (
(727,-12,o),
(785,11,o),
(828,44,c),
(828,142,l),
(782,96,o),
(720,69,o),
(655,69,cs),
(575,69,o),
(525,111,o),
(502,171,c),
(874,262,l),
(861,393,o),
(778,504,o),
(635,504,cs),
(556,504,o),
(496,470,o),
(456,417,c),
(414,475,o),
(323,501,o),
(253,501,cs),
(178,501,o),
(112,480,o),
(65,460,c),
(65,372,l),
(119,404,o),
(185,419,o),
(248,419,cs),
(333,419,o),
(390,391,o),
(390,318,cs),
(390,300,l),
(349,323,o),
(298,332,o),
(241,332,cs),
(139,332,o),
(31,284,o),
(31,165,cs),
(31,51,o),
(130,-11,o),
(235,-11,cs),
(316,-11,o),
(399,17,o),
(457,75,c),
(507,13,o),
(581,-12,o),
(658,-12,cs)
);
},
{
closed = 1;
nodes = (
(188,65,o),
(129,96,o),
(129,163,cs),
(129,232,o),
(198,261,o),
(262,261,cs),
(319,261,o),
(359,244,o),
(390,227,c),
(390,125,l),
(358,88,o),
(315,65,o),
(255,65,cs)
);
},
{
closed = 1;
nodes = (
(492,339,o),
(542,422,o),
(636,422,cs),
(708,422,o),
(757,377,o),
(774,317,c),
(492,251,l)
);
}
);
width = 906;
},
{
layerId = "F1A19D98-9E48-4F05-B6A0-CD51606DBCB8";
shapes = (
{
closed = 1;
nodes = (
(720,-11,o),
(778,12,o),
(818,44,c),
(818,132,l),
(772,86,o),
(718,59,o),
(653,59,cs),
(565,59,o),
(510,107,o),
(487,175,c),
(862,266,l),
(846,390,o),
(767,495,o),
(629,495,cs),
(549,495,o),
(488,459,o),
(449,402,c),
(407,466,o),
(327,492,o),
(253,492,cs),
(177,492,o),
(108,470,o),
(63,450,c),
(63,372,l),
(119,407,o),
(185,422,o),
(250,422,cs),
(334,422,o),
(394,394,o),
(394,318,cs),
(394,299,l),
(351,324,o),
(299,333,o),
(242,333,cs),
(142,333,o),
(31,296,o),
(31,171,cs),
(31,60,o),
(125,-11,o),
(231,-11,cs),
(316,-11,o),
(394,19,o),
(453,80,c),
(501,18,o),
(571,-11,o),
(648,-11,cs)
);
},
{
closed = 1;
nodes = (
(177,57,o),
(113,90,o),
(113,161,cs),
(113,238,o),
(189,266,o),
(254,266,cs),
(318,266,o),
(361,247,o),
(394,228,c),
(394,122,l),
(361,82,o),
(314,57,o),
(249,57,cs)
);
},
{
closed = 1;
nodes = (
(478,340,o),
(535,425,o),
(632,425,cs),
(708,425,o),
(762,377,o),
(779,316,c),
(478,247,l)
);
}
);
width = 895;
}
);
unicode = 230;
},
{
color = 1;
glyphname = b;
lastChange = "2025-10-31 11:46:27 +0000";
layers = (
{
anchors = (
{
name = bottom;
pos = (338,0);
},
{
name = center;
pos = (338,268);
},
{
name = top;
pos = (428,536);
}
);
layerId = "F6364453-91B0-4CE2-A857-F52B6F68B874";
shapes = (
{
closed = 1;
nodes = (
(535,-12,o),
(646,95,o),
(646,271,cs),
(646,446,o),
(534,553,o),
(406,553,cs),
(325,553,o),
(279,514,o),
(242,469,c),
(242,730,l),
(52,730,l),
(52,-12,l),
(242,66,l),
(284,14,o),
(341,-12,o),
(407,-12,cs)
);
},
{
closed = 1;
nodes = (
(287,147,o),
(239,198,o),
(239,270,cs),
(239,343,o),
(287,394,o),
(348,394,cs),
(417,394,o),
(459,336,o),
(459,272,cs),
(459,197,o),
(410,147,o),
(348,147,cs)
);
}
);
width = 675;
},
{
anchors = (
{
name = bottom;
pos = (309,0);
},
{
name = center;
pos = (309,268);
},
{
name = top;
pos = (349,536);
}
);
layerId = "8AF3DB8E-7EC5-4D7D-A87A-6DF3FCB8CADF";
shapes = (
{
closed = 1;
nodes = (
(477,-10,o),
(584,92,o),
(584,246,cs),
(584,402,o),
(478,504,o),
(347,504,cs),
(267,504,o),
(208,464,o),
(165,407,c),
(165,732,l),
(65,732,l),
(65,-1,l),
(172,70,l),
(216,17,o),
(276,-10,o),
(345,-10,cs)
);
},
{
closed = 1;
nodes = (
(235,74,o),
(162,147,o),
(162,246,cs),
(162,346,o),
(235,417,o),
(323,417,cs),
(422,417,o),
(485,338,o),
(485,245,cs),
(485,145,o),
(416,74,o),
(323,74,cs)
);
}
);
width = 618;
},
{
anchors = (
{
name = bottom;
pos = (303,0);
},
{
name = center;
pos = (303,268);
},
{
name = top;
pos = (333,536);
}
);
layerId = "F1A19D98-9E48-4F05-B6A0-CD51606DBCB8";
shapes = (
{
closed = 1;
nodes = (
(465,-10,o),
(572,91,o),
(572,241,cs),
(572,393,o),
(466,494,o),
(335,494,cs),
(255,494,o),
(192,454,o),
(149,394,c),
(149,732,l),
(67,732,l),
(67,1,l),
(158,71,l),
(203,17,o),
(263,-10,o),
(333,-10,cs)
);
},
{
closed = 1;
nodes = (
(224,59,o),
(146,138,o),
(146,241,cs),
(146,346,o),
(224,422,o),
(318,422,cs),
(424,422,o),
(490,339,o),
(490,240,cs),
(490,134,o),
(417,59,o),
(318,59,cs)
);
}
);
width = 606;
}
);
unicode = 98;
},
{
color = 1;
glyphname = c;
lastChange = "2025-10-31 11:44:26 +0000";
layers = (
{
anchors = (
{
name = bottom;
pos = (327,0);
},
{
name = top;
pos = (307,536);
}
);
layerId = "F6364453-91B0-4CE2-A857-F52B6F68B874";
shapes = (
{
closed = 1;
nodes = (
(358,-13,o),
(404,-6,o),
(437,6,c),
(437,183,l),
(404,156,o),
(369,147,o),
(338,147,cs),
(269,147,o),
(215,201,o),
(215,270,cs),
(215,338,o),
(264,392,o),
(335,392,cs),
(374,392,o),
(403,378,o),
(432,355,c),
(432,537,l),
(401,548,o),
(357,552,o),
(320,552,cs),
(149,552,o),
(30,422,o),
(30,270,cs),
(30,115,o),
(155,-13,o),
(318,-13,cs)
);
}
);
width = 473;
},
{
anchors = (
{
name = bottom;
pos = (276,0);
},
{
name = top;
pos = (296,536);
}
);
layerId = "8AF3DB8E-7EC5-4D7D-A87A-6DF3FCB8CADF";
shapes = (
{
closed = 1;
nodes = (
(341,-10,o),
(388,7,o),
(427,30,c),
(427,135,l),
(392,98,o),
(347,75,o),
(295,75,cs),
(204,75,o),
(134,155,o),
(134,250,cs),
(134,347,o),
(201,418,o),
(292,418,cs),
(343,418,o),
(386,397,o),
(422,358,c),
(422,466,l),
(387,491,o),
(337,502,o),
(290,502,cs),
(137,502,o),
(34,385,o),
(34,245,cs),
(34,101,o),
(142,-10,o),
(284,-10,cs)
);
}
);
width = 471;
},
{
anchors = (
{
name = bottom;
pos = (275,0);
},
{
name = top;
pos = (255,536);
}
);
layerId = "F1A19D98-9E48-4F05-B6A0-CD51606DBCB8";
shapes = (
{
closed = 1;
nodes = (
(337,-9,o),
(386,11,o),
(425,35,c),
(425,125,l),
(389,86,o),
(342,60,o),
(286,60,cs),
(191,60,o),
(118,146,o),
(118,247,cs),
(118,347,o),
(187,423,o),
(283,423,cs),
(336,423,o),
(383,399,o),
(420,359,c),
(420,452,l),
(384,479,o),
(332,492,o),
(284,492,cs),
(135,492,o),
(35,379,o),
(35,240,cs),
(35,99,o),
(139,-9,o),
(277,-9,cs)
);
}
);
width = 470;
}
);
unicode = 99;
},
{
color = 1;
glyphname = d;
lastChange = "2025-10-31 11:44:26 +0000";
layers = (
{
anchors = (
{
name = bottom;
pos = (338,0);
},
{
name = center;
pos = (338,268);
},
{
name = top;
pos = (338,747);
},
{
name = topright;
pos = (456,747);
}
);
layerId = "F6364453-91B0-4CE2-A857-F52B6F68B874";
shapes = (
{
closed = 1;
nodes = (
(349,-12,o),
(396,27,o),
(433,72,c),
(623,-12,l),
(623,730,l),
(433,730,l),
(433,475,l),
(397,516,o),
(349,553,o),
(268,553,cs),
(140,553,o),
(29,446,o),
(29,270,cs),
(29,95,o),
(141,-12,o),
(269,-12,cs)
);
},
{
closed = 1;
nodes = (
(259,147,o),
(216,208,o),
(216,270,cs),
(216,344,o),
(267,394,o),
(326,394,cs),
(387,394,o),
(436,343,o),
(436,272,cs),
(436,197,o),
(387,147,o),
(326,147,cs)
);
}
);
width = 675;
},
{
anchors = (
{
name = bottom;
pos = (309,0);
},
{
name = center;
pos = (309,268);
},
{
name = top;
pos = (309,747);
},
{
name = topright;
pos = (452,747);
}
);
layerId = "8AF3DB8E-7EC5-4D7D-A87A-6DF3FCB8CADF";
shapes = (
{
closed = 1;
nodes = (
(352,-10,o),
(401,25,o),
(444,76,c),
(552,-1,l),
(552,732,l),
(452,732,l),
(452,411,l),
(412,467,o),
(352,504,o),
(271,504,cs),
(143,504,o),
(34,403,o),
(34,246,cs),
(34,89,o),
(142,-10,o),
(273,-10,cs)
);
},
{
closed = 1;
nodes = (
(193,75,o),
(134,156,o),
(134,247,cs),
(134,350,o),
(206,419,o),
(291,419,cs),
(378,419,o),
(455,346,o),
(455,247,cs),
(455,147,o),
(380,75,o),
(291,75,cs)
);
}
);
width = 618;
},
{
anchors = (
{
name = bottom;
pos = (303,0);
},
{
name = center;
pos = (303,268);
},
{
name = top;
pos = (303,747);
},
{
name = topright;
pos = (446,747);
}
);
layerId = "F1A19D98-9E48-4F05-B6A0-CD51606DBCB8";
shapes = (
{
closed = 1;
nodes = (
(353,-10,o),
(402,24,o),
(446,77,c),
(538,1,l),
(538,732,l),
(456,732,l),
(456,398,l),
(415,458,o),
(352,494,o),
(271,494,cs),
(143,494,o),
(35,394,o),
(35,241,cs),
(35,88,o),
(143,-10,o),
(274,-10,cs)
);
},
{
closed = 1;
nodes = (
(180,60,o),
(118,146,o),
(118,242,cs),
(118,351,o),
(192,424,o),
(284,424,cs),
(376,424,o),
(459,347,o),
(459,242,cs),
(459,137,o),
(379,60,o),
(284,60,cs)
);
}
);
width = 606;
}
);
unicode = 100;
},
{
glyphname = dcaron;
lastChange = "2025-10-31 14:03:10 +0000";
layers = (
{
background = {
anchors = (
{
name = bottom;
pos = (338,0);
},
{
name = center;
pos = (338,268);
},
{
name = top;
pos = (338,747);
},
{
name = topright;
pos = (456,747);
}
);
shapes = (
{
closed = 1;
nodes = (
(349,-12,o),
(396,27,o),
(433,72,c),
(623,-12,l),
(623,730,l),
(433,730,l),
(433,475,l),
(397,516,o),
(349,553,o),
(268,553,cs),
(140,553,o),
(29,446,o),
(29,270,cs),
(29,95,o),
(141,-12,o),
(269,-12,cs)
);
},
{
closed = 1;
nodes = (
(259,147,o),
(216,208,o),
(216,270,cs),
(216,344,o),
(267,394,o),
(326,394,cs),
(387,394,o),
(436,343,o),
(436,272,cs),
(436,197,o),
(387,147,o),
(326,147,cs)
);
},
{
closed = 1;
nodes = (
(756,586,l),
(823,820,l),
(698,820,l),
(657,586,l)
);
}
);
};
layerId = "F6364453-91B0-4CE2-A857-F52B6F68B874";
shapes = (
{
ref = d;
},
{
pos = (490,60);
ref = caroncomb.alt;
}
);
width = 675;
},
{
background = {
anchors = (
{
name = bottom;
pos = (309,0);
},
{
name = center;
pos = (309,268);
},
{
name = top;
pos = (309,747);
},
{
name = topright;
pos = (452,747);
}
);
shapes = (
{
closed = 1;
nodes = (
(352,-10,o),
(401,25,o),
(444,76,c),
(552,-1,l),
(552,732,l),
(452,732,l),
(452,411,l),
(412,467,o),
(352,504,o),
(271,504,cs),
(143,504,o),
(34,403,o),
(34,246,cs),
(34,89,o),
(142,-10,o),
(273,-10,cs)
);
},
{
closed = 1;
nodes = (
(193,75,o),
(134,156,o),
(134,247,cs),
(134,350,o),
(206,419,o),
(291,419,cs),
(378,419,o),
(455,346,o),
(455,247,cs),
(455,147,o),
(380,75,o),
(291,75,cs)
);
},
{
closed = 1;
nodes = (
(656,591,l),
(708,770,l),
(618,770,l),
(587,591,l)
);
}
);
};
layerId = "8AF3DB8E-7EC5-4D7D-A87A-6DF3FCB8CADF";
shapes = (
{
ref = d;
},
{
pos = (396,10);
ref = caroncomb.alt;
}
);
width = 618;
},
{
background = {
anchors = (
{
name = bottom;
pos = (303,0);
},
{
name = center;
pos = (303,268);
},
{
name = top;
pos = (303,747);
},
{
name = topright;
pos = (446,747);
}
);
shapes = (
{
closed = 1;
nodes = (
(353,-10,o),
(402,24,o),
(446,77,c),
(538,1,l),
(538,732,l),
(456,732,l),
(456,398,l),
(415,458,o),
(352,494,o),
(271,494,cs),
(143,494,o),
(35,394,o),
(35,241,cs),
(35,88,o),
(143,-10,o),
(274,-10,cs)
);
},
{
closed = 1;
nodes = (
(180,60,o),
(118,146,o),
(118,242,cs),
(118,351,o),
(192,424,o),
(284,424,cs),
(376,424,o),
(459,347,o),
(459,242,cs),
(459,137,o),
(379,60,o),
(284,60,cs)
);
},
{
closed = 1;
nodes = (
(632,592,l),
(680,760,l),
(597,760,l),
(568,592,l)
);
}
);
};
layerId = "F1A19D98-9E48-4F05-B6A0-CD51606DBCB8";
shapes = (
{
ref = d;
},
{
pos = (373,0);
ref = caroncomb.alt;
}
);
width = 606;
}
);
unicode = 271;
},
{
glyphname = dcroat;
lastChange = "2025-10-31 11:44:26 +0000";
layers = (
{
layerId = "F6364453-91B0-4CE2-A857-F52B6F68B874";
shapes = (
{
closed = 1;
nodes = (
(350,-12,o),
(397,27,o),
(434,72,c),
(624,-12,l),
(624,730,l),
(434,730,l),
(434,475,l),
(398,516,o),
(350,553,o),
(269,553,cs),
(141,553,o),
(30,446,o),
(30,270,cs),
(30,95,o),
(142,-12,o),
(270,-12,cs)
);
},
{
closed = 1;
nodes = (
(260,147,o),
(217,208,o),
(217,270,cs),
(217,344,o),
(268,394,o),
(327,394,cs),
(388,394,o),
(437,343,o),
(437,272,cs),
(437,197,o),
(388,147,o),
(327,147,cs)
);
},
{
closed = 1;
nodes = (
(684,542,l),
(684,709,l),
(356,709,l),
(356,542,l)
);
}
);
width = 681;
},
{
layerId = "8AF3DB8E-7EC5-4D7D-A87A-6DF3FCB8CADF";
shapes = (
{
closed = 1;
nodes = (
(353,-10,o),
(401,25,o),
(444,76,c),
(552,-1,l),
(552,732,l),
(452,732,l),
(452,411,l),
(412,467,o),
(352,504,o),
(271,504,cs),
(143,504,o),
(34,403,o),
(34,246,cs),
(34,89,o),
(142,-10,o),
(273,-10,cs)
);
},
{
closed = 1;
nodes = (
(194,75,o),
(135,157,o),
(135,247,cs),
(135,350,o),
(206,419,o),
(291,419,cs),
(378,419,o),
(455,346,o),
(455,247,cs),
(455,147,o),
(381,75,o),
(291,75,cs)
);
},
{
closed = 1;
nodes = (
(604,577,l),
(604,669,l),
(324,669,l),
(324,577,l)
);
}
);
width = 599;
},
{
layerId = "F1A19D98-9E48-4F05-B6A0-CD51606DBCB8";
shapes = (
{
closed = 1;
nodes = (
(353,-10,o),
(402,24,o),
(446,77,c),
(538,1,l),
(538,732,l),
(456,732,l),
(456,398,l),
(415,458,o),
(352,494,o),
(271,494,cs),
(143,494,o),
(35,394,o),
(35,241,cs),
(35,88,o),
(143,-10,o),
(274,-10,cs)
);
},
{
closed = 1;
nodes = (
(180,60,o),
(118,146,o),
(118,242,cs),
(118,351,o),
(192,424,o),
(284,424,cs),
(376,424,o),
(459,347,o),
(459,242,cs),
(459,137,o),
(379,60,o),
(284,60,cs)
);
},
{
closed = 1;
nodes = (
(588,584,l),
(588,661,l),
(317,661,l),
(317,584,l)
);
}
);
width = 583;
}
);
unicode = 273;
},
{
glyphname = eth;
lastChange = "2025-10-31 11:44:26 +0000";
layers = (
{
layerId = "F6364453-91B0-4CE2-A857-F52B6F68B874";
shapes = (
{
closed = 1;
nodes = (
(423,-13,o),
(573,61,o),
(573,268,cs),
(573,414,o),
(510,545,o),
(385,659,c),
(493,722,l),
(437,780,l),
(323,714,l),
(288,744,o),
(260,766,o),
(224,787,c),
(103,708,l),
(134,685,o),
(160,667,o),
(191,640,c),
(80,578,l),
(137,519,l),
(254,586,l),
(291,550,o),
(321,515,o),
(350,470,c),
(333,476,o),
(309,483,o),
(272,483,cs),
(147,483,o),
(30,394,o),
(30,239,cs),
(30,69,o),
(170,-13,o),
(301,-13,cs)
);
},
{
closed = 1;
nodes = (
(250,140,o),
(214,186,o),
(214,238,cs),
(214,288,o),
(249,339,o),
(302,339,cs),
(356,339,o),
(390,289,o),
(390,238,cs),
(390,186,o),
(354,140,o),
(302,140,cs)
);
}
);
width = 603;
},
{
layerId = "8AF3DB8E-7EC5-4D7D-A87A-6DF3FCB8CADF";
shapes = (
{
closed = 1;
nodes = (
(379,-11,o),
(509,64,o),
(509,245,cs),
(509,455,o),
(373,594,o),
(315,652,c),
(437,732,l),
(397,773,l),
(271,691,l),
(229,728,o),
(206,745,o),
(147,780,c),
(92,731,l),
(155,691,o),
(185,666,o),
(204,649,c),
(84,571,l),
(125,529,l),
(247,609,l),
(311,549,o),
(365,484,o),
(396,403,c),
(377,419,o),
(336,456,o),
(261,456,cs),
(129,456,o),
(34,347,o),
(34,223,cs),
(34,88,o),
(143,-11,o),
(272,-11,cs)
);
},
{
closed = 1;
nodes = (
(196,87,o),
(142,150,o),
(142,226,cs),
(142,302,o),
(198,361,o),
(272,361,cs),
(350,361,o),
(403,299,o),
(403,225,cs),
(403,148,o),
(350,87,o),
(274,87,cs)
);
}
);
width = 543;
},
{
layerId = "F1A19D98-9E48-4F05-B6A0-CD51606DBCB8";
shapes = (
{
closed = 1;
nodes = (
(369,-11,o),
(496,64,o),
(496,240,cs),
(496,464,o),
(347,604,o),
(301,650,c),
(426,734,l),
(389,772,l),
(260,686,l),
(217,724,o),
(195,738,o),
(131,778,c),
(90,735,l),
(158,692,o),
(191,666,o),
(207,651,c),
(85,569,l),
(122,531,l),
(246,614,l),
(314,550,o),
(374,478,o),
(405,390,c),
(387,408,o),
(341,450,o),
(259,450,cs),
(125,450,o),
(35,337,o),
(35,220,cs),
(35,92,o),
(137,-11,o),
(266,-11,cs)
);
},
{
closed = 1;
nodes = (
(175,58,o),
(111,133,o),
(111,221,cs),
(111,313,o),
(176,384,o),
(268,384,cs),
(361,384,o),
(422,306,o),
(422,221,cs),
(422,133,o),
(360,58,o),
(267,58,cs)
);
}
);
width = 531;
}
);
unicode = 240;
},
{
color = 1;
glyphname = e;
lastChange = "2025-10-31 11:44:26 +0000";
layers = (
{
anchors = (
{
name = bottom;
pos = (305,0);
},
{
name = ogonek;
pos = (527,42);
},
{
name = top;
pos = (305,536);
}
);
layerId = "F6364453-91B0-4CE2-A857-F52B6F68B874";
shapes = (
{
closed = 1;
nodes = (
(371,-17,o),
(458,-3,o),
(527,42,c),
(527,190,l),
(478,146,o),
(382,121,o),
(315,121,cs),
(279,121,o),
(249,128,o),
(225,148,c),
(580,240,l),
(580,401,o),
(488,548,o),
(312,548,cs),
(148,548,o),
(30,429,o),
(30,269,cs),
(30,104,o),
(145,-17,o),
(312,-17,cs)
);
},
{
closed = 1;
nodes = (
(210,275,ls),
(210,334,o),
(232,407,o),
(301,407,cs),
(348,407,o),
(382,375,o),
(394,319,c),
(210,272,l)
);
}
);
width = 609;
},
{
anchors = (
{
name = bottom;
pos = (273,0);
},
{
name = ogonek;
pos = (467,44);
},
{
name = top;
pos = (273,536);
}
);
layerId = "8AF3DB8E-7EC5-4D7D-A87A-6DF3FCB8CADF";
shapes = (
{
closed = 1;
nodes = (
(359,-12,o),
(423,10,o),
(467,44,c),
(467,142,l),
(421,96,o),
(359,69,o),
(294,69,cs),
(214,69,o),
(164,111,o),
(141,171,c),
(513,262,l),
(500,393,o),
(417,504,o),
(274,504,cs),
(131,504,o),
(34,391,o),
(34,244,cs),
(34,95,o),
(143,-12,o),
(290,-12,cs)
);
},
{
closed = 1;
nodes = (
(131,252,l),
(131,337,o),
(180,422,o),
(274,422,cs),
(346,422,o),
(396,377,o),
(412,317,c),
(134,245,l)
);
}
);
width = 546;
},
{
anchors = (
{
name = bottom;
pos = (267,0);
},
{
name = ogonek;
pos = (455,44);
},
{
name = top;
pos = (267,536);
}
);
layerId = "F1A19D98-9E48-4F05-B6A0-CD51606DBCB8";
shapes = (
{
closed = 1;
nodes = (
(356,-11,o),
(415,12,o),
(455,44,c),
(455,132,l),
(409,86,o),
(355,59,o),
(290,59,cs),
(202,59,o),
(147,107,o),
(124,175,c),
(499,266,l),
(483,390,o),
(404,495,o),
(266,495,cs),
(126,495,o),
(35,382,o),
(35,239,cs),
(35,92,o),
(142,-11,o),
(285,-11,cs)
);
},
{
closed = 1;
nodes = (
(115,249,l),
(115,336,o),
(169,425,o),
(269,425,cs),
(345,425,o),
(399,377,o),
(416,316,c),
(119,240,l)
);
}
);
width = 533;
}
);
unicode = 101;
},
{
color = 3;
glyphname = f;
lastChange = "2025-10-31 11:44:26 +0000";
layers = (
{
anchors = (
{
name = bottom;
pos = (200,0);
},
{
name = top;
pos = (200,747);
}
);
layerId = "F6364453-91B0-4CE2-A857-F52B6F68B874";
shapes = (
{
closed = 1;
nodes = (
(279,0,l),
(279,389,l),
(400,389,l),
(400,535,l),
(246,535,l),
(246,548,ls),
(246,583,o),
(289,599,o),
(324,599,cs),
(347,599,o),
(378,595,o),
(401,588,c),
(401,722,l),
(370,731,o),
(334,737,o),
(285,737,cs),
(164,737,o),
(90,681,o),
(90,550,cs),
(90,535,l),
(7,389,l),
(90,389,l),
(90,0,l)
);
}
);
width = 399;
},
{
anchors = (
{
name = bottom;
pos = (168,0);
},
{
name = top;
pos = (168,747);
}
);
layerId = "8AF3DB8E-7EC5-4D7D-A87A-6DF3FCB8CADF";
shapes = (
{
closed = 1;
nodes = (
(204,0,l),
(204,409,l),
(325,409,l),
(325,491,l),
(199,491,l),
(199,552,ls),
(199,621,o),
(225,657,o),
(283,657,cs),
(302,657,o),
(320,653,o),
(339,646,c),
(339,725,l),
(320,732,o),
(297,736,o),
(268,736,cs),
(169,736,o),
(107,684,o),
(107,556,cs),
(107,493,l),
(11,409,l),
(107,409,l),
(107,0,l)
);
}
);
width = 335;
},
{
anchors = (
{
name = bottom;
pos = (161,0);
},
{
name = top;
pos = (161,747);
}
);
layerId = "F1A19D98-9E48-4F05-B6A0-CD51606DBCB8";
shapes = (
{
closed = 1;
nodes = (
(189,0,l),
(189,413,l),
(310,413,l),
(310,482,l),
(189,482,l),
(189,553,ls),
(189,628,o),
(212,668,o),
(275,668,cs),
(292,668,o),
(309,665,o),
(326,658,c),
(326,726,l),
(310,731,o),
(289,736,o),
(265,736,cs),
(170,736,o),
(110,685,o),
(110,557,cs),
(110,484,l),
(12,413,l),
(110,413,l),
(110,0,l)
);
}
);
width = 322;
}
);
unicode = 102;
},
{
color = 1;
glyphname = g;
lastChange = "2025-10-31 11:44:26 +0000";
layers = (
{
anchors = (
{
name = bottom;
pos = (340,-235);
},
{
name = top;
pos = (340,536);
}
);
layerId = "F6364453-91B0-4CE2-A857-F52B6F68B874";
shapes = (
{
closed = 1;
nodes = (
(485,-162,o),
(629,-66,o),
(629,131,cs),
(629,541,l),
(439,477,l),
(398,520,o),
(351,553,o),
(275,553,cs),
(144,553,o),
(35,457,o),
(35,301,cs),
(35,145,o),
(143,48,o),
(274,48,cs),
(355,48,o),
(403,85,o),
(442,130,c),
(442,109,ls),
(442,13,o),
(374,-25,o),
(286,-25,cs),
(199,-25,o),
(105,16,o),
(50,50,c),
(50,-100,l),
(129,-140,o),
(192,-162,o),
(288,-162,cs)
);
},
{
closed = 1;
nodes = (
(270,196,o),
(222,237,o),
(222,299,cs),
(222,360,o),
(267,405,o),
(332,405,cs),
(396,405,o),
(442,361,o),
(442,302,cs),
(442,241,o),
(396,196,o),
(332,196,cs)
);
}
);
width = 680;
},
{
anchors = (
{
name = bottom;
pos = (312,-235);
},
{
name = top;
pos = (312,536);
}
);
layerId = "8AF3DB8E-7EC5-4D7D-A87A-6DF3FCB8CADF";
shapes = (
{
closed = 1;
nodes = (
(441,-189,o),
(557,-101,o),
(557,69,cs),
(557,492,l),
(448,423,l),
(407,471,o),
(354,504,o),
(274,504,cs),
(146,504,o),
(38,407,o),
(38,261,cs),
(38,122,o),
(141,24,o),
(274,24,cs),
(355,24,o),
(411,61,o),
(458,118,c),
(458,64,ls),
(458,-58,o),
(394,-108,o),
(276,-108,cs),
(198,-108,o),
(131,-82,o),
(75,-39,c),
(75,-139,l),
(128,-168,o),
(195,-189,o),
(276,-189,cs)
);
},
{
closed = 1;
nodes = (
(205,107,o),
(140,176,o),
(140,265,cs),
(140,357,o),
(205,421,o),
(296,421,cs),
(387,421,o),
(458,356,o),
(458,263,cs),
(458,172,o),
(386,107,o),
(297,107,cs)
);
}
);
width = 623;
},
{
anchors = (
{
name = bottom;
pos = (306,-235);
},
{
name = top;
pos = (306,536);
}
);
layerId = "F1A19D98-9E48-4F05-B6A0-CD51606DBCB8";
shapes = (
{
closed = 1;
nodes = (
(432,-194,o),
(542,-108,o),
(542,56,cs),
(542,482,l),
(450,412,l),
(409,461,o),
(354,494,o),
(274,494,cs),
(146,494,o),
(39,397,o),
(39,253,cs),
(39,117,o),
(141,19,o),
(274,19,cs),
(355,19,o),
(414,55,o),
(461,115,c),
(461,55,ls),
(461,-72,o),
(398,-124,o),
(274,-124,cs),
(199,-124,o),
(136,-102,o),
(80,-57,c),
(80,-147,l),
(128,-174,o),
(196,-194,o),
(274,-194,cs)
);
},
{
closed = 1;
nodes = (
(191,89,o),
(123,163,o),
(123,258,cs),
(123,357,o),
(193,424,o),
(289,424,cs),
(385,424,o),
(461,354,o),
(461,255,cs),
(461,159,o),
(384,89,o),
(290,89,cs)
);
}
);
width = 611;
}
);
unicode = 103;
},
{
color = 3;
glyphname = h;
lastChange = "2025-10-31 11:44:26 +0000";
layers = (
{
anchors = (
{
name = bottom;
pos = (318,0);
},
{
name = center;
pos = (318,374);
},
{
name = top;
pos = (318,747);
}
);
layerId = "F6364453-91B0-4CE2-A857-F52B6F68B874";
shapes = (
{
closed = 1;
nodes = (
(241,0,l),
(241,293,ls),
(241,352,o),
(278,384,o),
(321,384,cs),
(364,384,o),
(397,353,o),
(397,293,cs),
(397,0,l),
(587,0,l),
(587,354,ls),
(587,469,o),
(518,553,o),
(403,553,cs),
(326,553,o),
(276,512,o),
(241,467,c),
(241,730,l),
(51,730,l),
(51,0,l)
);
}
);
width = 635;
},
{
anchors = (
{
name = bottom;
pos = (279,0);
},
{
name = center;
pos = (279,374);
},
{
name = top;
pos = (279,747);
}
);
layerId = "8AF3DB8E-7EC5-4D7D-A87A-6DF3FCB8CADF";
shapes = (
{
closed = 1;
nodes = (
(164,0,l),
(164,282,ls),
(164,366,o),
(227,407,o),
(294,407,cs),
(363,407,o),
(399,366,o),
(399,282,cs),
(399,0,l),
(499,0,l),
(499,312,ls),
(499,430,o),
(442,503,o),
(325,503,cs),
(250,503,o),
(193,468,o),
(158,425,c),
(158,732,l),
(64,732,l),
(64,0,l)
);
}
);
width = 558;
},
{
anchors = (
{
name = bottom;
pos = (271,0);
},
{
name = center;
pos = (271,374);
},
{
name = top;
pos = (271,747);
}
);
layerId = "F1A19D98-9E48-4F05-B6A0-CD51606DBCB8";
shapes = (
{
closed = 1;
nodes = (
(149,0,l),
(149,280,ls),
(149,369,o),
(216,412,o),
(288,412,cs),
(364,412,o),
(399,368,o),
(399,280,cs),
(399,0,l),
(481,0,l),
(481,303,ls),
(481,422,o),
(427,493,o),
(309,493,cs),
(236,493,o),
(176,459,o),
(141,416,c),
(141,732,l),
(67,732,l),
(67,0,l)
);
}
);
width = 542;
}
);
unicode = 104;
},
{
color = 3;
glyphname = i;
lastChange = "2025-10-31 11:44:26 +0000";
layers = (
{
anchors = (
{
name = bottom;
pos = (146,0);
}
);
layerId = "F6364453-91B0-4CE2-A857-F52B6F68B874";
shapes = (
{
closed = 1;
nodes = (
(241,0,l),
(241,541,l),
(51,541,l),
(51,0,l)
);
},
{
closed = 1;
nodes = (
(205,587,o),
(253,620,o),
(253,684,cs),
(253,748,o),
(205,780,o),
(145,780,cs),
(85,780,o),
(38,748,o),
(38,684,cs),
(38,620,o),
(85,587,o),
(145,587,cs)
);
}
);
width = 291;
},
{
anchors = (
{
name = bottom;
pos = (120,0);
}
);
layerId = "8AF3DB8E-7EC5-4D7D-A87A-6DF3FCB8CADF";
shapes = (
{
closed = 1;
nodes = (
(169,0,l),
(169,492,l),
(70,492,l),
(70,0,l)
);
},
{
closed = 1;
nodes = (
(158,580,o),
(187,608,o),
(187,645,cs),
(187,686,o),
(158,712,o),
(118,712,cs),
(79,712,o),
(51,684,o),
(51,645,cs),
(51,608,o),
(82,580,o),
(118,580,cs)
);
}
);
width = 239;
},
{
anchors = (
{
name = bottom;
pos = (115,0);
}
);
layerId = "F1A19D98-9E48-4F05-B6A0-CD51606DBCB8";
shapes = (
{
closed = 1;
nodes = (
(155,0,l),
(155,482,l),
(74,482,l),
(74,0,l)
);
},
{
closed = 1;
nodes = (
(148,578,o),
(174,606,o),
(174,637,cs),
(174,673,o),
(148,698,o),
(113,698,cs),
(79,698,o),
(53,671,o),
(53,637,cs),
(53,606,o),
(81,578,o),
(113,578,cs)
);
}
);
width = 229;
}
);
unicode = 105;
},
{
color = 1;
glyphname = idotless;
lastChange = "2025-10-31 11:44:26 +0000";
layers = (
{
anchors = (
{
name = bottom;
pos = (147,0);
},
{
name = ogonek;
pos = (241,0);
},
{
name = top;
pos = (147,536);
}
);
layerId = "F6364453-91B0-4CE2-A857-F52B6F68B874";
shapes = (
{
closed = 1;
nodes = (
(241,0,l),
(241,541,l),
(51,541,l),
(51,0,l)
);
}
);
width = 293;
},
{
anchors = (
{
name = bottom;
pos = (115,0);
},
{
name = ogonek;
pos = (164,0);
},
{
name = top;
pos = (115,536);
}
);
layerId = "8AF3DB8E-7EC5-4D7D-A87A-6DF3FCB8CADF";
shapes = (
{
closed = 1;
nodes = (
(164,0,l),
(164,492,l),
(64,492,l),
(64,0,l)
);
}
);
width = 230;
},
{
anchors = (
{
name = bottom;
pos = (109,0);
},
{
name = ogonek;
pos = (148,0);
},
{
name = top;
pos = (109,536);
}
);
layerId = "F1A19D98-9E48-4F05-B6A0-CD51606DBCB8";
shapes = (
{
closed = 1;
nodes = (
(148,0,l),
(148,482,l),
(67,482,l),
(67,0,l)
);
}
);
width = 217;
}
);
unicode = 305;
},
{
glyphname = j;
lastChange = "2025-10-31 11:44:26 +0000";
layers = (
{
layerId = "F6364453-91B0-4CE2-A857-F52B6F68B874";
shapes = (
{
closed = 1;
nodes = (
(239,-163,o),
(309,-113,o),
(309,24,cs),
(309,541,l),
(119,541,l),
(119,32,ls),
(119,-15,o),
(100,-31,o),
(76,-31,cs),
(64,-31,o),
(53,-28,o),
(38,-23,c),
(38,-156,l),
(61,-160,o),
(85,-163,o),
(116,-163,cs)
);
},
{
closed = 1;
nodes = (
(273,587,o),
(321,620,o),
(321,684,cs),
(321,748,o),
(273,780,o),
(213,780,cs),
(153,780,o),
(106,748,o),
(106,684,cs),
(106,620,o),
(153,587,o),
(213,587,cs)
);
}
);
width = 359;
},
{
layerId = "8AF3DB8E-7EC5-4D7D-A87A-6DF3FCB8CADF";
shapes = (
{
closed = 1;
nodes = (
(210,-189,o),
(232,-121,o),
(232,-27,cs),
(232,492,l),
(133,492,l),
(133,-46,ls),
(133,-81,o),
(124,-109,o),
(84,-109,cs),
(73,-109,o),
(62,-107,o),
(51,-103,c),
(51,-182,l),
(67,-186,o),
(82,-189,o),
(105,-189,cs)
);
},
{
closed = 1;
nodes = (
(215,580,o),
(247,608,o),
(247,645,cs),
(247,686,o),
(215,712,o),
(179,712,cs),
(140,712,o),
(111,685,o),
(111,645,cs),
(111,608,o),
(140,580,o),
(179,580,cs)
);
}
);
width = 299;
},
{
layerId = "F1A19D98-9E48-4F05-B6A0-CD51606DBCB8";
shapes = (
{
closed = 1;
nodes = (
(204,-194,o),
(217,-122,o),
(217,-37,cs),
(217,482,l),
(136,482,l),
(136,-62,ls),
(136,-94,o),
(129,-125,o),
(86,-125,cs),
(75,-125,o),
(64,-123,o),
(53,-119,c),
(53,-187,l),
(68,-191,o),
(83,-194,o),
(103,-194,cs)
);
},
{
closed = 1;
nodes = (
(203,578,o),
(232,606,o),
(232,637,cs),
(232,673,o),
(203,698,o),
(172,698,cs),
(137,698,o),
(112,671,o),
(112,637,cs),
(112,606,o),
(139,578,o),
(172,578,cs)
);
}
);
width = 287;
}
);
unicode = 106;
},
{
color = 1;
glyphname = jdotless;
lastChange = "2025-10-31 11:44:26 +0000";
layers = (
{
anchors = (
{
name = bottom;
pos = (143,-235);
},
{
name = top;
pos = (143,536);
}
);
layerId = "F6364453-91B0-4CE2-A857-F52B6F68B874";
shapes = (
{
closed = 1;
nodes = (
(178,-163,o),
(248,-113,o),
(248,24,cs),
(248,541,l),
(58,541,l),
(58,32,ls),
(58,-15,o),
(39,-31,o),
(15,-31,cs),
(3,-31,o),
(-8,-28,o),
(-23,-23,c),
(-23,-156,l),
(0,-160,o),
(24,-163,o),
(55,-163,cs)
);
}
);
width = 286;
},
{
anchors = (
{
name = bottom;
pos = (99,-235);
},
{
name = top;
pos = (99,536);
}
);
layerId = "8AF3DB8E-7EC5-4D7D-A87A-6DF3FCB8CADF";
shapes = (
{
closed = 1;
nodes = (
(134,-189,o),
(156,-121,o),
(156,-27,cs),
(156,492,l),
(57,492,l),
(57,-46,ls),
(57,-81,o),
(48,-109,o),
(8,-109,cs),
(-3,-109,o),
(-14,-107,o),
(-26,-103,c),
(-26,-182,l),
(-9,-186,o),
(6,-189,o),
(29,-189,cs)
);
}
);
width = 198;
},
{
anchors = (
{
name = bottom;
pos = (90,-235);
},
{
name = top;
pos = (90,536);
}
);
layerId = "F1A19D98-9E48-4F05-B6A0-CD51606DBCB8";
shapes = (
{
closed = 1;
nodes = (
(124,-194,o),
(137,-122,o),
(137,-37,cs),
(137,482,l),
(56,482,l),
(56,-62,ls),
(56,-94,o),
(49,-125,o),
(6,-125,cs),
(-5,-125,o),
(-16,-123,o),
(-27,-119,c),
(-27,-187,l),
(-12,-191,o),
(3,-194,o),
(23,-194,cs)
);
}
);
width = 180;
}
);
unicode = 567;
},
{
color = 1;
glyphname = k;
lastChange = "2025-10-31 11:44:26 +0000";
layers = (
{
anchors = (
{
name = bottom;
pos = (304,0);
},
{
name = top;
pos = (304,747);
}
);
layerId = "F6364453-91B0-4CE2-A857-F52B6F68B874";
shapes = (
{
closed = 1;
nodes = (
(241,0,l),
(241,283,l),
(399,0,l),
(608,0,l),
(415,324,l),
(603,541,l),
(388,541,l),
(241,360,l),
(241,730,l),
(51,730,l),
(51,0,l)
);
}
);
width = 608;
},
{
anchors = (
{
name = bottom;
pos = (237,0);
},
{
name = top;
pos = (237,747);
}
);
layerId = "8AF3DB8E-7EC5-4D7D-A87A-6DF3FCB8CADF";
shapes = (
{
closed = 1;
nodes = (
(164,0,l),
(164,227,l),
(355,0,l),
(474,0,l),
(252,266,l),
(466,492,l),
(342,492,l),
(164,294,l),
(164,732,l),
(64,732,l),
(64,0,l)
);
}
);
width = 474;
},
{
anchors = (
{
name = bottom;
pos = (224,0);
},
{
name = top;
pos = (224,747);
}
);
layerId = "F1A19D98-9E48-4F05-B6A0-CD51606DBCB8";
shapes = (
{
closed = 1;
nodes = (
(149,0,l),
(149,216,l),
(346,0,l),
(447,0,l),
(219,254,l),
(438,482,l),
(333,482,l),
(149,281,l),
(149,732,l),
(67,732,l),
(67,0,l)
);
}
);
width = 447;
}
);
unicode = 107;
},
{
glyphname = kgreenlandic;
lastChange = "2025-10-31 11:44:26 +0000";
layers = (
{
layerId = "F6364453-91B0-4CE2-A857-F52B6F68B874";
shapes = (
{
closed = 1;
nodes = (
(241,0,l),
(241,283,l),
(399,0,l),
(608,0,l),
(415,324,l),
(603,541,l),
(388,541,l),
(241,360,l),
(241,541,l),
(51,541,l),
(51,0,l)
);
}
);
width = 609;
},
{
layerId = "8AF3DB8E-7EC5-4D7D-A87A-6DF3FCB8CADF";
shapes = (
{
closed = 1;
nodes = (
(164,0,l),
(164,227,l),
(355,0,l),
(474,0,l),
(252,266,l),
(466,492,l),
(342,492,l),
(164,294,l),
(164,492,l),
(64,492,l),
(64,0,l)
);
}
);
width = 480;
},
{
layerId = "F1A19D98-9E48-4F05-B6A0-CD51606DBCB8";
shapes = (
{
closed = 1;
nodes = (
(149,0,l),
(149,216,l),
(346,0,l),
(447,0,l),
(219,254,l),
(438,482,l),
(333,482,l),
(149,281,l),
(149,482,l),
(67,482,l),
(67,0,l)
);
}
);
width = 454;
}
);
unicode = 312;
},
{
color = 1;
glyphname = l;
lastChange = "2025-10-31 11:44:26 +0000";
layers = (
{
anchors = (
{
name = bottom;
pos = (147,0);
},
{
name = center;
pos = (147,374);
},
{
name = top;
pos = (147,747);
},
{
name = topright;
pos = (329,747);
}
);
layerId = "F6364453-91B0-4CE2-A857-F52B6F68B874";
shapes = (
{
closed = 1;
nodes = (
(241,0,l),
(241,730,l),
(51,730,l),
(51,0,l)
);
}
);
width = 293;
},
{
anchors = (
{
name = bottom;
pos = (115,0);
},
{
name = center;
pos = (115,374);
},
{
name = top;
pos = (115,747);
},
{
name = topright;
pos = (289,747);
}
);
layerId = "8AF3DB8E-7EC5-4D7D-A87A-6DF3FCB8CADF";
shapes = (
{
closed = 1;
nodes = (
(164,0,l),
(164,732,l),
(64,732,l),
(64,0,l)
);
}
);
width = 230;
},
{
anchors = (
{
name = bottom;
pos = (109,0);
},
{
name = center;
pos = (109,374);
},
{
name = top;
pos = (109,747);
},
{
name = topright;
pos = (286,747);
}
);
layerId = "F1A19D98-9E48-4F05-B6A0-CD51606DBCB8";
shapes = (
{
closed = 1;
nodes = (
(148,0,l),
(148,732,l),
(67,732,l),
(67,0,l)
);
}
);
width = 217;
}
);
unicode = 108;
},
{
glyphname = lslash;
lastChange = "2025-10-31 11:44:26 +0000";
layers = (
{
layerId = "F6364453-91B0-4CE2-A857-F52B6F68B874";
shapes = (
{
closed = 1;
nodes = (
(332,371,l),
(332,534,l),
(37,334,l),
(37,171,l)
);
},
{
alignment = -1;
pos = (39,0);
ref = l;
}
);
width = 370;
},
{
layerId = "8AF3DB8E-7EC5-4D7D-A87A-6DF3FCB8CADF";
shapes = (
{
closed = 1;
nodes = (
(294,410,l),
(294,500,l),
(35,300,l),
(35,210,l)
);
},
{
alignment = -1;
pos = (52,0);
ref = l;
}
);
width = 329;
},
{
layerId = "F1A19D98-9E48-4F05-B6A0-CD51606DBCB8";
shapes = (
{
closed = 1;
nodes = (
(285,428,l),
(285,504,l),
(34,304,l),
(34,228,l)
);
},
{
alignment = -1;
pos = (47,0);
ref = l;
}
);
width = 319;
}
);
unicode = 322;
},
{
color = 1;
glyphname = m;
lastChange = "2025-10-31 11:44:26 +0000";
layers = (
{
anchors = (
{
name = bottom;
pos = (486,0);
},
{
name = top;
pos = (486,536);
}
);
layerId = "F6364453-91B0-4CE2-A857-F52B6F68B874";
shapes = (
{
closed = 1;
nodes = (
(241,0,l),
(241,294,ls),
(241,353,o),
(275,384,o),
(318,384,cs),
(361,384,o),
(392,353,o),
(392,294,cs),
(392,0,l),
(582,0,l),
(582,294,ls),
(582,341,o),
(609,384,o),
(660,384,cs),
(703,384,o),
(734,354,o),
(734,294,cs),
(734,0,l),
(924,0,l),
(924,355,ls),
(924,462,o),
(855,553,o),
(740,553,cs),
(660,553,o),
(605,521,o),
(558,465,c),
(529,525,o),
(468,553,o),
(404,553,cs),
(336,553,o),
(284,520,o),
(241,467,c),
(51,541,l),
(51,0,l)
);
}
);
width = 971;
},
{
anchors = (
{
name = bottom;
pos = (430,0);
},
{
name = top;
pos = (430,536);
}
);
layerId = "8AF3DB8E-7EC5-4D7D-A87A-6DF3FCB8CADF";
shapes = (
{
closed = 1;
nodes = (
(164,0,l),
(164,282,ls),
(164,355,o),
(205,415,o),
(280,415,cs),
(355,415,o),
(382,358,o),
(382,282,cs),
(382,0,l),
(482,0,l),
(482,282,ls),
(482,353,o),
(522,415,o),
(598,415,cs),
(662,415,o),
(701,375,o),
(701,282,cs),
(701,0,l),
(801,0,l),
(801,313,ls),
(801,421,o),
(746,503,o),
(631,503,cs),
(558,503,o),
(498,471,o),
(463,414,c),
(436,478,o),
(380,503,o),
(315,503,cs),
(255,503,o),
(198,480,o),
(162,431,c),
(64,491,l),
(64,0,l)
);
}
);
width = 859;
},
{
anchors = (
{
name = bottom;
pos = (418,0);
},
{
name = top;
pos = (418,536);
}
);
layerId = "F1A19D98-9E48-4F05-B6A0-CD51606DBCB8";
shapes = (
{
closed = 1;
nodes = (
(149,0,l),
(149,279,ls),
(149,355,o),
(192,421,o),
(272,421,cs),
(353,421,o),
(380,359,o),
(380,279,cs),
(380,0,l),
(462,0,l),
(462,279,ls),
(462,355,o),
(505,421,o),
(586,421,cs),
(654,421,o),
(694,379,o),
(694,279,cs),
(694,0,l),
(776,0,l),
(776,304,ls),
(776,411,o),
(724,493,o),
(609,493,cs),
(537,493,o),
(475,461,o),
(444,404,c),
(417,468,o),
(362,493,o),
(297,493,cs),
(240,493,o),
(181,472,o),
(146,424,c),
(67,481,l),
(67,0,l)
);
}
);
width = 836;
}
);
unicode = 109;
},
{
color = 1;
glyphname = n;
lastChange = "2025-10-31 11:44:26 +0000";
layers = (
{
anchors = (
{
name = bottom;
pos = (318,0);
},
{
name = top;
pos = (318,536);
}
);
layerId = "F6364453-91B0-4CE2-A857-F52B6F68B874";
shapes = (
{
closed = 1;
nodes = (
(241,0,l),
(241,293,ls),
(241,352,o),
(278,384,o),
(321,384,cs),
(364,384,o),
(397,352,o),
(397,293,cs),
(397,0,l),
(587,0,l),
(587,354,ls),
(587,467,o),
(517,553,o),
(403,553,cs),
(326,553,o),
(276,510,o),
(241,465,c),
(51,541,l),
(51,0,l)
);
}
);
width = 635;
},
{
anchors = (
{
name = bottom;
pos = (279,0);
},
{
name = top;
pos = (279,536);
}
);
layerId = "8AF3DB8E-7EC5-4D7D-A87A-6DF3FCB8CADF";
shapes = (
{
closed = 1;
nodes = (
(164,0,l),
(164,282,ls),
(164,383,o),
(235,415,o),
(288,415,cs),
(342,415,o),
(399,382,o),
(399,282,cs),
(399,0,l),
(499,0,l),
(499,312,ls),
(499,428,o),
(438,503,o),
(323,503,cs),
(254,503,o),
(202,472,o),
(166,428,c),
(64,492,l),
(64,0,l)
);
}
);
width = 558;
},
{
anchors = (
{
name = bottom;
pos = (271,0);
},
{
name = top;
pos = (271,536);
}
);
layerId = "F1A19D98-9E48-4F05-B6A0-CD51606DBCB8";
shapes = (
{
closed = 1;
nodes = (
(149,0,l),
(149,280,ls),
(149,390,o),
(226,421,o),
(281,421,cs),
(338,421,o),
(399,388,o),
(399,280,cs),
(399,0,l),
(481,0,l),
(481,303,ls),
(481,418,o),
(421,493,o),
(307,493,cs),
(238,493,o),
(187,464,o),
(151,421,c),
(67,482,l),
(67,0,l)
);
}
);
width = 542;
}
);
unicode = 110;
},
{
glyphname = eng;
lastChange = "2025-10-31 11:44:26 +0000";
layers = (
{
layerId = "F6364453-91B0-4CE2-A857-F52B6F68B874";
shapes = (
{
closed = 1;
nodes = (
(517,-163,o),
(587,-113,o),
(587,24,cs),
(587,354,ls),
(587,477,o),
(508,553,o),
(403,553,cs),
(326,553,o),
(276,510,o),
(241,465,c),
(51,541,l),
(51,0,l),
(241,0,l),
(241,293,ls),
(241,352,o),
(278,384,o),
(321,384,cs),
(364,384,o),
(397,352,o),
(397,293,cs),
(397,32,ls),
(397,-15,o),
(378,-31,o),
(354,-31,cs),
(342,-31,o),
(331,-28,o),
(316,-23,c),
(316,-156,l),
(339,-160,o),
(363,-163,o),
(394,-163,cs)
);
}
);
width = 635;
},
{
layerId = "8AF3DB8E-7EC5-4D7D-A87A-6DF3FCB8CADF";
shapes = (
{
closed = 1;
nodes = (
(475,-189,o),
(499,-121,o),
(499,-27,cs),
(499,312,ls),
(499,436,o),
(430,503,o),
(323,503,cs),
(254,503,o),
(202,472,o),
(166,428,c),
(64,492,l),
(64,0,l),
(164,0,l),
(164,282,ls),
(164,383,o),
(235,415,o),
(288,415,cs),
(342,415,o),
(399,382,o),
(399,282,cs),
(399,-46,ls),
(399,-81,o),
(390,-109,o),
(350,-109,cs),
(339,-109,o),
(328,-107,o),
(316,-103,c),
(316,-182,l),
(332,-186,o),
(348,-189,o),
(371,-189,cs)
);
}
);
width = 558;
},
{
layerId = "F1A19D98-9E48-4F05-B6A0-CD51606DBCB8";
shapes = (
{
closed = 1;
nodes = (
(466,-194,o),
(481,-122,o),
(481,-37,cs),
(481,303,ls),
(481,428,o),
(413,493,o),
(307,493,cs),
(238,493,o),
(187,464,o),
(151,421,c),
(67,482,l),
(67,0,l),
(149,0,l),
(149,280,ls),
(149,390,o),
(226,421,o),
(281,421,cs),
(338,421,o),
(399,388,o),
(399,280,cs),
(399,-62,ls),
(399,-94,o),
(392,-125,o),
(349,-125,cs),
(338,-125,o),
(327,-123,o),
(316,-119,c),
(316,-187,l),
(331,-191,o),
(346,-194,o),
(366,-194,cs)
);
}
);
width = 542;
}
);
unicode = 331;
},
{
color = 1;
glyphname = o;
lastChange = "2025-10-31 11:44:26 +0000";
layers = (
{
anchors = (
{
name = bottom;
pos = (329,0);
},
{
name = center;
pos = (329,268);
},
{
name = ogonek;
pos = (391,0);
},
{
name = top;
pos = (329,536);
},
{
name = topright;
pos = (637,536);
}
);
layerId = "F6364453-91B0-4CE2-A857-F52B6F68B874";
shapes = (
{
closed = 1;
nodes = (
(491,-13,o),
(628,108,o),
(628,272,cs),
(628,427,o),
(503,553,o),
(330,553,cs),
(157,553,o),
(30,425,o),
(30,270,cs),
(30,115,o),
(155,-13,o),
(328,-13,cs)
);
},
{
closed = 1;
nodes = (
(263,148,o),
(215,205,o),
(215,272,cs),
(215,337,o),
(259,392,o),
(328,392,cs),
(395,392,o),
(443,334,o),
(443,270,cs),
(443,205,o),
(399,148,o),
(330,148,cs)
);
}
);
width = 657;
},
{
anchors = (
{
name = bottom;
pos = (299,0);
},
{
name = center;
pos = (299,268);
},
{
name = ogonek;
pos = (328,0);
},
{
name = top;
pos = (299,536);
},
{
name = topright;
pos = (578,536);
}
);
layerId = "8AF3DB8E-7EC5-4D7D-A87A-6DF3FCB8CADF";
shapes = (
{
closed = 1;
nodes = (
(445,-11,o),
(564,100,o),
(564,247,cs),
(564,390,o),
(451,504,o),
(298,504,cs),
(145,504,o),
(34,389,o),
(34,245,cs),
(34,102,o),
(145,-11,o),
(297,-11,cs)
);
},
{
closed = 1;
nodes = (
(205,74,o),
(134,149,o),
(134,247,cs),
(134,343,o),
(198,420,o),
(297,420,cs),
(396,420,o),
(464,340,o),
(464,246,cs),
(464,154,o),
(394,74,o),
(298,74,cs)
);
}
);
width = 598;
},
{
anchors = (
{
name = bottom;
pos = (293,0);
},
{
name = center;
pos = (293,268);
},
{
name = ogonek;
pos = (327,0);
},
{
name = top;
pos = (293,536);
},
{
name = topright;
pos = (566,536);
}
);
layerId = "F1A19D98-9E48-4F05-B6A0-CD51606DBCB8";
shapes = (
{
closed = 1;
nodes = (
(437,-10,o),
(551,98,o),
(551,242,cs),
(551,383,o),
(441,494,o),
(292,494,cs),
(143,494,o),
(35,382,o),
(35,240,cs),
(35,99,o),
(143,-10,o),
(291,-10,cs)
);
},
{
closed = 1;
nodes = (
(193,59,o),
(118,138,o),
(118,242,cs),
(118,343,o),
(187,425,o),
(291,425,cs),
(396,425,o),
(468,341,o),
(468,241,cs),
(468,142,o),
(394,59,o),
(292,59,cs)
);
}
);
width = 586;
}
);
unicode = 111;
},
{
glyphname = oslash;
lastChange = "2025-10-31 11:46:34 +0000";
layers = (
{
layerId = "F6364453-91B0-4CE2-A857-F52B6F68B874";
shapes = (
{
closed = 1;
nodes = (
(191,25,l),
(235,1,o),
(286,-13,o),
(343,-13,cs),
(516,-13,o),
(643,115,o),
(643,270,cs),
(643,342,o),
(618,405,o),
(575,454,c),
(649,536,l),
(574,608,l),
(496,515,l),
(453,539,o),
(401,553,o),
(345,553,cs),
(172,553,o),
(45,425,o),
(45,270,cs),
(45,198,o),
(70,136,o),
(113,87,c),
(30,-5,l),
(103,-73,l)
);
},
{
closed = 1;
nodes = (
(329,140,o),
(314,143,o),
(301,148,c),
(456,322,l),
(463,306,o),
(466,289,o),
(466,270,cs),
(466,199,o),
(418,140,o),
(345,140,cs)
);
},
{
closed = 1;
nodes = (
(225,234,o),
(222,251,o),
(222,270,cs),
(222,341,o),
(270,400,o),
(343,400,cs),
(359,400,o),
(375,398,o),
(388,391,c),
(232,218,l)
);
}
);
width = 687;
},
{
layerId = "8AF3DB8E-7EC5-4D7D-A87A-6DF3FCB8CADF";
shapes = (
{
closed = 1;
nodes = (
(136,37,l),
(179,4,o),
(226,-12,o),
(290,-12,cs),
(441,-12,o),
(551,98,o),
(551,242,cs),
(551,310,o),
(528,363,o),
(492,407,c),
(546,467,l),
(504,509,l),
(445,448,l),
(402,483,o),
(350,495,o),
(290,495,cs),
(139,495,o),
(32,384,o),
(32,242,cs),
(32,177,o),
(52,124,o),
(91,76,c),
(20,3,l),
(64,-41,l)
);
},
{
closed = 1;
nodes = (
(249,68,o),
(221,78,o),
(194,98,c),
(427,340,l),
(444,312,o),
(454,281,o),
(454,242,cs),
(454,144,o),
(389,68,o),
(288,68,cs)
);
},
{
closed = 1;
nodes = (
(134,171,o),
(128,201,o),
(128,242,cs),
(128,338,o),
(191,415,o),
(291,415,cs),
(331,415,o),
(362,404,o),
(386,384,c),
(155,142,l)
);
}
);
width = 573;
},
{
layerId = "F1A19D98-9E48-4F05-B6A0-CD51606DBCB8";
shapes = (
{
closed = 1;
nodes = (
(125,39,l),
(168,4,o),
(215,-12,o),
(279,-12,cs),
(426,-12,o),
(532,95,o),
(532,236,cs),
(532,304,o),
(510,354,o),
(475,398,c),
(524,451,l),
(490,489,l),
(435,435,l),
(392,470,o),
(339,483,o),
(279,483,cs),
(132,483,o),
(29,376,o),
(29,236,cs),
(29,172,o),
(48,122,o),
(87,74,c),
(18,4,l),
(57,-35,l)
);
},
{
closed = 1;
nodes = (
(234,53,o),
(201,65,o),
(172,88,c),
(421,344,l),
(440,313,o),
(452,279,o),
(452,236,cs),
(452,133,o),
(383,53,o),
(277,53,cs)
);
},
{
closed = 1;
nodes = (
(116,158,o),
(109,191,o),
(109,236,cs),
(109,337,o),
(174,418,o),
(280,418,cs),
(325,418,o),
(359,405,o),
(386,382,c),
(139,127,l)
);
}
);
width = 550;
}
);
unicode = 248;
},
{
glyphname = oe;
lastChange = "2025-10-31 11:44:26 +0000";
layers = (
{
layerId = "F6364453-91B0-4CE2-A857-F52B6F68B874";
shapes = (
{
closed = 1;
nodes = (
(791,-17,o),
(878,-3,o),
(947,42,c),
(947,190,l),
(898,146,o),
(802,121,o),
(735,121,cs),
(699,121,o),
(669,128,o),
(645,148,c),
(1000,240,l),
(1000,401,o),
(908,548,o),
(732,548,cs),
(652,548,o),
(587,522,o),
(539,475,c),
(487,523,o),
(414,553,o),
(330,553,cs),
(157,553,o),
(30,425,o),
(30,270,cs),
(30,115,o),
(155,-13,o),
(328,-13,cs),
(409,-13,o),
(480,15,o),
(533,62,c),
(581,11,o),
(648,-17,o),
(732,-17,cs)
);
},
{
closed = 1;
nodes = (
(263,148,o),
(215,205,o),
(215,272,cs),
(215,337,o),
(259,392,o),
(328,392,cs),
(396,392,o),
(443,334,o),
(443,270,cs),
(443,205,o),
(399,148,o),
(330,148,cs)
);
},
{
closed = 1;
nodes = (
(625,332,o),
(651,407,o),
(721,407,cs),
(768,407,o),
(802,375,o),
(814,319,c),
(630,272,l)
);
}
);
width = 1030;
},
{
layerId = "8AF3DB8E-7EC5-4D7D-A87A-6DF3FCB8CADF";
shapes = (
{
closed = 1;
nodes = (
(809,-12,o),
(873,10,o),
(917,44,c),
(917,142,l),
(871,96,o),
(809,69,o),
(744,69,cs),
(665,69,o),
(624,111,o),
(601,171,c),
(963,262,l),
(950,393,o),
(867,504,o),
(724,504,cs),
(628,504,o),
(561,455,o),
(526,379,c),
(481,455,o),
(399,504,o),
(298,504,cs),
(145,504,o),
(34,389,o),
(34,245,cs),
(34,102,o),
(145,-11,o),
(297,-11,cs),
(398,-11,o),
(480,39,o),
(525,115,c),
(564,35,o),
(639,-12,o),
(740,-12,cs)
);
},
{
closed = 1;
nodes = (
(205,74,o),
(134,149,o),
(134,247,cs),
(134,343,o),
(198,420,o),
(297,420,cs),
(396,420,o),
(464,340,o),
(464,246,cs),
(464,154,o),
(394,74,o),
(298,74,cs)
);
},
{
closed = 1;
nodes = (
(587,342,o),
(617,422,o),
(710,422,cs),
(782,422,o),
(832,377,o),
(848,317,c),
(587,255,l)
);
}
);
width = 997;
},
{
layerId = "F1A19D98-9E48-4F05-B6A0-CD51606DBCB8";
shapes = (
{
closed = 1;
nodes = (
(812,-11,o),
(871,12,o),
(911,44,c),
(911,132,l),
(865,86,o),
(811,59,o),
(746,59,cs),
(658,59,o),
(615,108,o),
(592,176,c),
(955,266,l),
(939,390,o),
(860,495,o),
(722,495,cs),
(622,495,o),
(556,441,o),
(523,360,c),
(480,440,o),
(396,494,o),
(292,494,cs),
(143,494,o),
(35,382,o),
(35,240,cs),
(35,99,o),
(143,-10,o),
(291,-10,cs),
(396,-10,o),
(480,45,o),
(523,126,c),
(559,41,o),
(637,-11,o),
(741,-11,cs)
);
},
{
closed = 1;
nodes = (
(193,59,o),
(118,138,o),
(118,242,cs),
(118,343,o),
(187,425,o),
(291,425,cs),
(396,425,o),
(468,341,o),
(468,241,cs),
(468,142,o),
(394,59,o),
(292,59,cs)
);
},
{
closed = 1;
nodes = (
(578,344,o),
(611,425,o),
(708,425,cs),
(784,425,o),
(838,377,o),
(855,316,c),
(578,251,l)
);
}
);
width = 990;
}
);
unicode = 339;
},
{
color = 1;
glyphname = p;
lastChange = "2025-10-31 11:44:26 +0000";
layers = (
{
anchors = (
{
name = bottom;
pos = (338,0);
},
{
name = top;
pos = (338,536);
}
);
layerId = "F6364453-91B0-4CE2-A857-F52B6F68B874";
shapes = (
{
closed = 1;
nodes = (
(242,-160,l),
(242,66,l),
(277,25,o),
(324,-12,o),
(407,-12,cs),
(535,-12,o),
(646,95,o),
(646,271,cs),
(646,446,o),
(534,553,o),
(406,553,cs),
(325,553,o),
(279,514,o),
(242,469,c),
(52,541,l),
(52,-160,l)
);
},
{
closed = 1;
nodes = (
(287,147,o),
(239,198,o),
(239,270,cs),
(239,343,o),
(287,394,o),
(348,394,cs),
(417,394,o),
(459,336,o),
(459,272,cs),
(459,197,o),
(410,147,o),
(348,147,cs)
);
}
);
width = 675;
},
{
anchors = (
{
name = bottom;
pos = (309,0);
},
{
name = top;
pos = (309,536);
}
);
layerId = "8AF3DB8E-7EC5-4D7D-A87A-6DF3FCB8CADF";
shapes = (
{
closed = 1;
nodes = (
(165,-183,l),
(165,81,l),
(208,24,o),
(267,-10,o),
(347,-10,cs),
(472,-10,o),
(585,91,o),
(585,247,cs),
(585,403,o),
(476,504,o),
(347,504,cs),
(267,504,o),
(217,468,o),
(174,417,c),
(65,492,l),
(65,-183,l)
);
},
{
closed = 1;
nodes = (
(239,74,o),
(162,147,o),
(162,246,cs),
(162,346,o),
(236,417,o),
(324,417,cs),
(423,417,o),
(486,341,o),
(486,247,cs),
(486,143,o),
(415,74,o),
(326,74,cs)
);
}
);
width = 618;
},
{
anchors = (
{
name = bottom;
pos = (304,0);
},
{
name = top;
pos = (304,536);
}
);
layerId = "F1A19D98-9E48-4F05-B6A0-CD51606DBCB8";
shapes = (
{
closed = 1;
nodes = (
(150,-188,l),
(150,84,l),
(194,24,o),
(255,-10,o),
(335,-10,cs),
(460,-10,o),
(573,90,o),
(573,242,cs),
(573,394,o),
(464,494,o),
(335,494,cs),
(255,494,o),
(205,458,o),
(160,406,c),
(68,482,l),
(68,-188,l)
);
},
{
closed = 1;
nodes = (
(229,59,o),
(146,138,o),
(146,241,cs),
(146,346,o),
(226,422,o),
(319,422,cs),
(424,422,o),
(491,342,o),
(491,242,cs),
(491,131,o),
(416,59,o),
(322,59,cs)
);
}
);
width = 607;
}
);
unicode = 112;
},
{
glyphname = thorn;
lastChange = "2025-10-31 11:44:26 +0000";
layers = (
{
layerId = "F6364453-91B0-4CE2-A857-F52B6F68B874";
shapes = (
{
closed = 1;
nodes = (
(238,-225,l),
(238,-20,l),
(233,55,l),
(237,55,l),
(256,24,o),
(296,1,o),
(335,-8,cs),
(348,-11,o),
(360,-13,o),
(372,-13,cs),
(508,-13,o),
(583,121,o),
(583,243,cs),
(583,366,o),
(510,492,o),
(374,492,cs),
(359,492,o),
(345,489,o),
(330,485,c),
(287,470,o),
(251,441,o),
(232,418,c),
(232,418,l),
(233,438,o),
(234,459,o),
(235,480,c),
(235,511,o),
(235,542,o),
(238,571,c),
(238,776,l),
(52,776,l),
(52,-225,l)
);
},
{
closed = 1;
nodes = (
(259,140,o),
(226,189,o),
(226,240,cs),
(226,288,o),
(259,339,o),
(311,339,cs),
(364,339,o),
(397,289,o),
(397,241,cs),
(397,190,o),
(362,140,o),
(311,140,cs)
);
}
);
width = 612;
},
{
layerId = "8AF3DB8E-7EC5-4D7D-A87A-6DF3FCB8CADF";
shapes = (
{
closed = 1;
nodes = (
(158,-243,l),
(158,-13,l),
(157,61,l),
(160,61,l),
(193,16,o),
(245,-10,o),
(302,-11,c),
(318,-12,o),
(332,-11,o),
(347,-8,cs),
(456,11,o),
(520,111,o),
(520,223,cs),
(520,333,o),
(454,436,o),
(347,455,cs),
(332,458,o),
(318,458,o),
(302,458,c),
(243,455,o),
(194,429,o),
(159,384,c),
(157,384,l),
(157,416,o),
(157,450,o),
(158,483,c),
(158,511,o),
(158,539,o),
(158,567,cs),
(158,773,l),
(65,773,l),
(65,-243,l)
);
},
{
closed = 1;
nodes = (
(203,71,o),
(154,147,o),
(154,228,cs),
(154,304,o),
(206,376,o),
(287,376,cs),
(372,376,o),
(425,308,o),
(425,227,cs),
(425,137,o),
(370,71,o),
(288,71,cs)
);
}
);
width = 553;
},
{
layerId = "F1A19D98-9E48-4F05-B6A0-CD51606DBCB8";
shapes = (
{
closed = 1;
nodes = (
(142,-247,l),
(142,-12,l),
(142,62,l),
(144,62,l),
(180,14,o),
(235,-12,o),
(295,-12,cs),
(312,-12,o),
(327,-10,o),
(342,-7,cs),
(446,14,o),
(507,110,o),
(507,219,cs),
(507,327,o),
(443,423,o),
(342,447,c),
(327,450,o),
(312,452,o),
(296,452,cs),
(235,452,o),
(181,426,o),
(144,377,c),
(142,377,l),
(142,412,o),
(142,448,o),
(142,483,cs),
(142,511,o),
(142,538,o),
(142,566,cs),
(142,772,l),
(67,772,l),
(67,-247,l)
);
},
{
closed = 1;
nodes = (
(190,57,o),
(139,139,o),
(139,225,cs),
(139,308,o),
(195,383,o),
(282,383,cs),
(375,383,o),
(430,312,o),
(430,224,cs),
(430,127,o),
(372,57,o),
(283,57,cs)
);
}
);
width = 541;
}
);
unicode = 254;
},
{
color = 3;
glyphname = q;
lastChange = "2025-10-31 11:44:26 +0000";
layers = (
{
anchors = (
{
name = bottom;
pos = (338,0);
},
{
name = top;
pos = (338,536);
}
);
layerId = "F6364453-91B0-4CE2-A857-F52B6F68B874";
shapes = (
{
closed = 1;
nodes = (
(623,-160,l),
(623,541,l),
(433,475,l),
(397,516,o),
(349,553,o),
(268,553,cs),
(140,553,o),
(29,446,o),
(29,270,cs),
(29,97,o),
(141,-12,o),
(269,-12,cs),
(349,-12,o),
(396,27,o),
(433,72,c),
(433,-160,l)
);
},
{
closed = 1;
nodes = (
(259,147,o),
(216,210,o),
(216,272,cs),
(216,344,o),
(267,394,o),
(326,394,cs),
(387,394,o),
(436,343,o),
(436,272,cs),
(436,200,o),
(387,147,o),
(326,147,cs)
);
}
);
width = 675;
},
{
anchors = (
{
name = bottom;
pos = (309,0);
},
{
name = top;
pos = (309,536);
}
);
layerId = "8AF3DB8E-7EC5-4D7D-A87A-6DF3FCB8CADF";
shapes = (
{
closed = 1;
nodes = (
(552,-183,l),
(552,492,l),
(444,421,l),
(401,469,o),
(353,504,o),
(273,504,cs),
(142,504,o),
(34,403,o),
(34,246,cs),
(34,94,o),
(141,-11,o),
(273,-11,cs),
(352,-11,o),
(409,28,o),
(452,85,c),
(452,-183,l)
);
},
{
closed = 1;
nodes = (
(197,74,o),
(134,157,o),
(134,248,cs),
(134,349,o),
(202,419,o),
(294,419,cs),
(382,419,o),
(457,346,o),
(457,247,cs),
(457,148,o),
(382,74,o),
(294,74,cs)
);
}
);
width = 618;
},
{
anchors = (
{
name = bottom;
pos = (303,0);
},
{
name = top;
pos = (303,536);
}
);
layerId = "F1A19D98-9E48-4F05-B6A0-CD51606DBCB8";
shapes = (
{
closed = 1;
nodes = (
(538,-188,l),
(538,482,l),
(446,410,l),
(402,459,o),
(354,494,o),
(274,494,cs),
(142,494,o),
(35,394,o),
(35,241,cs),
(35,93,o),
(141,-11,o),
(274,-11,cs),
(353,-11,o),
(411,27,o),
(456,87,c),
(456,-188,l)
);
},
{
closed = 1;
nodes = (
(183,59,o),
(118,147,o),
(118,243,cs),
(118,351,o),
(190,424,o),
(288,424,cs),
(381,424,o),
(461,347,o),
(461,242,cs),
(461,138,o),
(380,59,o),
(287,59,cs)
);
}
);
width = 606;
}
);
unicode = 113;
},
{
color = 1;
glyphname = r;
lastChange = "2025-10-31 11:44:26 +0000";
layers = (
{
anchors = (
{
name = bottom;
pos = (209,0);
},
{
name = top;
pos = (209,536);
}
);
layerId = "F6364453-91B0-4CE2-A857-F52B6F68B874";
shapes = (
{
closed = 1;
nodes = (
(241,0,l),
(241,168,ls),
(241,292,o),
(297,350,o),
(396,350,cs),
(403,350,o),
(409,350,o),
(412,350,c),
(412,550,l),
(409,550,o),
(406,550,o),
(403,550,cs),
(318,550,o),
(272,504,o),
(241,432,c),
(51,541,l),
(51,0,l)
);
}
);
width = 417;
},
{
anchors = (
{
name = bottom;
pos = (178,0);
},
{
name = top;
pos = (178,536);
}
);
layerId = "8AF3DB8E-7EC5-4D7D-A87A-6DF3FCB8CADF";
shapes = (
{
closed = 1;
nodes = (
(164,0,l),
(164,254,ls),
(164,364,o),
(244,408,o),
(314,408,cs),
(329,408,o),
(342,407,o),
(353,400,c),
(353,497,l),
(342,500,o),
(331,501,o),
(316,501,cs),
(259,501,o),
(202,476,o),
(166,429,c),
(64,492,l),
(64,0,l)
);
}
);
width = 355;
},
{
anchors = (
{
name = bottom;
pos = (172,0);
},
{
name = top;
pos = (172,536);
}
);
layerId = "F1A19D98-9E48-4F05-B6A0-CD51606DBCB8";
shapes = (
{
closed = 1;
nodes = (
(149,0,l),
(149,271,ls),
(149,378,o),
(233,419,o),
(297,419,cs),
(314,419,o),
(328,417,o),
(341,410,c),
(341,486,l),
(328,489,o),
(315,491,o),
(299,491,cs),
(247,491,o),
(188,469,o),
(151,428,c),
(67,482,l),
(67,0,l)
);
}
);
width = 343;
}
);
unicode = 114;
},
{
color = 1;
glyphname = s;
lastChange = "2025-10-31 11:44:26 +0000";
layers = (
{
anchors = (
{
name = bottom;
pos = (250,0);
},
{
name = top;
pos = (250,536);
}
);
layerId = "F6364453-91B0-4CE2-A857-F52B6F68B874";
shapes = (
{
closed = 1;
nodes = (
(380,-12,o),
(469,53,o),
(469,164,cs),
(469,351,o),
(190,321,o),
(190,391,cs),
(190,408,o),
(205,419,o),
(234,419,cs),
(279,419,o),
(368,391,o),
(423,360,c),
(423,513,l),
(354,540,o),
(311,552,o),
(236,552,cs),
(111,552,o),
(18,487,o),
(18,373,cs),
(18,180,o),
(297,213,o),
(297,152,cs),
(297,127,o),
(255,121,o),
(236,121,cs),
(180,121,o),
(95,152,o),
(33,193,c),
(33,38,l),
(109,7,o),
(172,-12,o),
(248,-12,cs)
);
}
);
width = 500;
},
{
anchors = (
{
name = bottom;
pos = (200,0);
},
{
name = top;
pos = (200,536);
}
);
layerId = "8AF3DB8E-7EC5-4D7D-A87A-6DF3FCB8CADF";
shapes = (
{
closed = 1;
nodes = (
(302,-10,o),
(369,55,o),
(369,138,cs),
(369,298,o),
(124,292,o),
(124,376,cs),
(124,401,o),
(148,424,o),
(192,424,cs),
(243,424,o),
(289,395,o),
(332,363,c),
(332,463,l),
(291,491,o),
(242,503,o),
(191,503,cs),
(91,503,o),
(30,453,o),
(30,376,cs),
(30,220,o),
(275,242,o),
(275,135,cs),
(275,86,o),
(233,69,o),
(190,69,cs),
(129,69,o),
(66,104,o),
(21,144,c),
(21,45,l),
(66,17,o),
(118,-10,o),
(194,-10,cs)
);
}
);
width = 400;
},
{
anchors = (
{
name = bottom;
pos = (190,0);
},
{
name = top;
pos = (190,536);
}
);
layerId = "F1A19D98-9E48-4F05-B6A0-CD51606DBCB8";
shapes = (
{
closed = 1;
nodes = (
(286,-10,o),
(349,56,o),
(349,133,cs),
(349,288,o),
(111,286,o),
(111,373,cs),
(111,400,o),
(136,425,o),
(184,425,cs),
(234,425,o),
(275,397,o),
(314,363,c),
(314,453,l),
(277,482,o),
(227,493,o),
(182,493,cs),
(88,493,o),
(32,447,o),
(32,376,cs),
(32,227,o),
(270,249,o),
(270,131,cs),
(270,79,o),
(228,58,o),
(181,58,cs),
(118,58,o),
(61,95,o),
(19,134,c),
(19,46,l),
(58,19,o),
(107,-10,o),
(183,-10,cs)
);
}
);
width = 380;
}
);
unicode = 115;
},
{
glyphname = germandbls;
lastChange = "2025-10-31 11:44:26 +0000";
layers = (
{
layerId = "F6364453-91B0-4CE2-A857-F52B6F68B874";
shapes = (
{
closed = 1;
nodes = (
(391,-16,o),
(564,39,o),
(564,194,cs),
(564,290,o),
(492,343,o),
(424,364,c),
(484,393,o),
(529,446,o),
(529,530,cs),
(529,646,o),
(434,739,o),
(279,739,cs),
(102,739,o),
(7,635,o),
(7,479,cs),
(7,0,l),
(196,0,l),
(196,483,ls),
(196,546,o),
(231,580,o),
(276,580,cs),
(317,580,o),
(345,552,o),
(345,505,cs),
(345,455,o),
(307,419,o),
(263,398,c),
(263,297,l),
(331,292,o),
(375,262,o),
(375,214,cs),
(375,166,o),
(331,136,o),
(263,133,c),
(263,-3,l)
);
}
);
width = 593;
},
{
layerId = "8AF3DB8E-7EC5-4D7D-A87A-6DF3FCB8CADF";
shapes = (
{
closed = 1;
nodes = (
(368,-6,o),
(497,63,o),
(497,207,cs),
(497,308,o),
(420,377,o),
(332,393,c),
(401,424,o),
(452,480,o),
(452,565,cs),
(452,674,o),
(366,751,o),
(242,751,cs),
(82,751,o),
(11,643,o),
(11,513,cs),
(11,0,l),
(109,0,l),
(109,513,ls),
(109,590,o),
(148,663,o),
(239,663,cs),
(306,663,o),
(353,623,o),
(353,554,cs),
(353,478,o),
(293,447,o),
(220,418,c),
(220,350,l),
(327,334,o),
(397,303,o),
(397,210,cs),
(397,115,o),
(319,74,o),
(211,74,c),
(211,-3,l)
);
}
);
width = 531;
},
{
layerId = "F1A19D98-9E48-4F05-B6A0-CD51606DBCB8";
shapes = (
{
closed = 1;
nodes = (
(362,-3,o),
(484,67,o),
(484,209,cs),
(484,313,o),
(407,383,o),
(314,399,c),
(386,430,o),
(437,487,o),
(437,572,cs),
(437,680,o),
(352,753,o),
(235,753,cs),
(79,753,o),
(12,644,o),
(12,520,cs),
(12,0,l),
(92,0,l),
(92,519,ls),
(92,599,o),
(133,680,o),
(231,680,cs),
(303,680,o),
(354,637,o),
(354,564,cs),
(354,483,o),
(291,451,o),
(211,422,c),
(211,360,l),
(326,344,o),
(401,310,o),
(401,209,cs),
(401,105,o),
(317,62,o),
(201,62,c),
(201,-3,l)
);
}
);
width = 519;
}
);
unicode = 223;
},
{
color = 1;
glyphname = t;
lastChange = "2025-10-31 11:44:26 +0000";
layers = (
{
anchors = (
{
name = bottom;
pos = (251,0);
},
{
name = center;
pos = (221,268);
},
{
name = top;
pos = (221,536);
},
{
name = topright;
pos = (421,660);
}
);
layerId = "F6364453-91B0-4CE2-A857-F52B6F68B874";
shapes = (
{
closed = 1;
nodes = (
(349,-11,o),
(393,1,o),
(428,20,c),
(428,169,l),
(403,158,o),
(381,151,o),
(356,151,cs),
(321,151,o),
(304,166,o),
(304,205,cs),
(304,388,l),
(430,388,l),
(430,541,l),
(304,541,l),
(304,708,l),
(10,388,l),
(114,388,l),
(114,168,ls),
(114,38,o),
(187,-11,o),
(296,-11,cs)
);
}
);
width = 441;
},
{
anchors = (
{
name = bottom;
pos = (211,0);
},
{
name = center;
pos = (177,268);
},
{
name = top;
pos = (177,536);
},
{
name = topright;
pos = (339,631);
}
);
layerId = "8AF3DB8E-7EC5-4D7D-A87A-6DF3FCB8CADF";
shapes = (
{
closed = 1;
nodes = (
(263,-11,o),
(282,-8,o),
(301,3,c),
(301,85,l),
(285,77,o),
(270,74,o),
(257,74,cs),
(224,74,o),
(212,99,o),
(212,128,cs),
(212,408,l),
(339,408,l),
(339,492,l),
(212,492,l),
(212,659,l),
(14,408,l),
(113,408,l),
(113,128,ls),
(113,51,o),
(156,-11,o),
(239,-11,cs)
);
}
);
width = 353;
},
{
anchors = (
{
name = bottom;
pos = (208,0);
},
{
name = center;
pos = (168,268);
},
{
name = top;
pos = (168,536);
},
{
name = topright;
pos = (321,624);
}
);
layerId = "F1A19D98-9E48-4F05-B6A0-CD51606DBCB8";
shapes = (
{
closed = 1;
nodes = (
(246,-11,o),
(261,-8,o),
(276,-1,c),
(276,68,l),
(261,61,o),
(248,59,o),
(237,59,cs),
(205,59,o),
(193,85,o),
(193,112,cs),
(193,412,l),
(321,412,l),
(321,482,l),
(193,482,l),
(193,649,l),
(15,412,l),
(113,412,l),
(113,120,ls),
(113,50,o),
(149,-11,o),
(227,-11,cs)
);
}
);
width = 335;
}
);
unicode = 116;
},
{
color = 1;
glyphname = u;
lastChange = "2025-10-31 11:44:26 +0000";
layers = (
{
anchors = (
{
name = bottom;
pos = (316,0);
},
{
name = ogonek;
pos = (584,-12);
},
{
name = top;
pos = (316,536);
},
{
name = topright;
pos = (611,536);
}
);
layerId = "F6364453-91B0-4CE2-A857-F52B6F68B874";
shapes = (
{
closed = 1;
nodes = (
(309,-12,o),
(363,21,o),
(394,62,c),
(584,-12,l),
(584,541,l),
(394,541,l),
(394,248,ls),
(394,189,o),
(360,157,o),
(315,157,cs),
(269,157,o),
(238,189,o),
(238,248,cs),
(238,541,l),
(48,541,l),
(48,187,ls),
(48,69,o),
(109,-12,o),
(232,-12,cs)
);
}
);
width = 631;
},
{
anchors = (
{
name = bottom;
pos = (276,0);
},
{
name = ogonek;
pos = (493,-2);
},
{
name = top;
pos = (276,536);
},
{
name = topright;
pos = (531,536);
}
);
layerId = "8AF3DB8E-7EC5-4D7D-A87A-6DF3FCB8CADF";
shapes = (
{
closed = 1;
nodes = (
(307,-10,o),
(356,19,o),
(392,62,c),
(493,-2,l),
(493,493,l),
(393,493,l),
(393,211,ls),
(393,110,o),
(325,78,o),
(270,78,cs),
(215,78,o),
(159,111,o),
(159,211,cs),
(159,493,l),
(59,493,l),
(59,181,ls),
(59,66,o),
(115,-10,o),
(235,-10,cs)
);
}
);
width = 551;
},
{
anchors = (
{
name = bottom;
pos = (268,0);
},
{
name = ogonek;
pos = (475,0);
},
{
name = top;
pos = (268,536);
},
{
name = topright;
pos = (515,536);
}
);
layerId = "F1A19D98-9E48-4F05-B6A0-CD51606DBCB8";
shapes = (
{
closed = 1;
nodes = (
(307,-10,o),
(355,19,o),
(391,62,c),
(475,0,l),
(475,483,l),
(393,483,l),
(393,203,ls),
(393,93,o),
(318,62,o),
(261,62,cs),
(204,62,o),
(143,95,o),
(143,203,cs),
(143,483,l),
(61,483,l),
(61,180,ls),
(61,66,o),
(115,-10,o),
(235,-10,cs)
);
}
);
width = 535;
}
);
unicode = 117;
},
{
color = 3;
glyphname = v;
lastChange = "2025-10-31 11:44:26 +0000";
layers = (
{
anchors = (
{
name = bottom;
pos = (298,0);
},
{
name = top;
pos = (298,536);
}
);
layerId = "F6364453-91B0-4CE2-A857-F52B6F68B874";
shapes = (
{
closed = 1;
nodes = (
(383,-4,l),
(599,541,l),
(402,541,l),
(298,225,l),
(194,541,l),
(-6,541,l),
(210,-4,l)
);
}
);
width = 595;
},
{
anchors = (
{
name = bottom;
pos = (249,0);
},
{
name = top;
pos = (249,536);
}
);
layerId = "8AF3DB8E-7EC5-4D7D-A87A-6DF3FCB8CADF";
shapes = (
{
closed = 1;
nodes = (
(296,-1,l),
(501,491,l),
(396,491,l),
(250,113,l),
(104,491,l),
(-4,491,l),
(200,-1,l)
);
}
);
width = 497;
},
{
anchors = (
{
name = bottom;
pos = (239,0);
},
{
name = top;
pos = (239,536);
}
);
layerId = "F1A19D98-9E48-4F05-B6A0-CD51606DBCB8";
shapes = (
{
closed = 1;
nodes = (
(279,0,l),
(481,481,l),
(395,481,l),
(240,91,l),
(86,481,l),
(-4,481,l),
(198,0,l)
);
}
);
width = 477;
}
);
unicode = 118;
},
{
color = 1;
glyphname = w;
lastChange = "2025-10-31 11:44:26 +0000";
layers = (
{
anchors = (
{
name = bottom;
pos = (408,0);
},
{
name = top;
pos = (408,536);
}
);
layerId = "F6364453-91B0-4CE2-A857-F52B6F68B874";
shapes = (
{
closed = 1;
nodes = (
(317,-4,l),
(407,277,l),
(495,-4,l),
(659,-4,l),
(826,541,l),
(643,541,l),
(570,267,l),
(486,543,l),
(329,543,l),
(246,269,l),
(175,541,l),
(-11,541,l),
(154,-4,l)
);
}
);
width = 815;
},
{
anchors = (
{
name = bottom;
pos = (374,0);
},
{
name = top;
pos = (374,536);
}
);
layerId = "8AF3DB8E-7EC5-4D7D-A87A-6DF3FCB8CADF";
shapes = (
{
closed = 1;
nodes = (
(256,-1,l),
(372,375,l),
(489,-1,l),
(584,-1,l),
(749,492,l),
(646,492,l),
(534,128,l),
(423,493,l),
(327,493,l),
(215,127,l),
(101,492,l),
(-1,492,l),
(164,-1,l)
);
}
);
width = 748;
},
{
anchors = (
{
name = bottom;
pos = (367,0);
},
{
name = top;
pos = (367,536);
}
);
layerId = "F1A19D98-9E48-4F05-B6A0-CD51606DBCB8";
shapes = (
{
closed = 1;
nodes = (
(244,0,l),
(365,395,l),
(488,0,l),
(569,0,l),
(733,482,l),
(647,482,l),
(527,100,l),
(410,483,l),
(327,483,l),
(209,99,l),
(86,482,l),
(1,482,l),
(166,0,l)
);
}
);
width = 734;
}
);
unicode = 119;
},
{
color = 3;
glyphname = x;
lastChange = "2025-10-31 11:44:26 +0000";
layers = (
{
anchors = (
{
name = bottom;
pos = (288,0);
},
{
name = top;
pos = (288,536);
}
);
layerId = "F6364453-91B0-4CE2-A857-F52B6F68B874";
shapes = (
{
closed = 1;
nodes = (
(201,0,l),
(286,139,l),
(370,0,l),
(574,0,l),
(392,274,l),
(570,541,l),
(369,541,l),
(289,408,l),
(209,541,l),
(4,541,l),
(183,273,l),
(1,0,l)
);
}
);
width = 576;
},
{
anchors = (
{
name = bottom;
pos = (253,0);
},
{
name = top;
pos = (253,536);
}
);
layerId = "8AF3DB8E-7EC5-4D7D-A87A-6DF3FCB8CADF";
shapes = (
{
closed = 1;
nodes = (
(116,0,l),
(252,183,l),
(388,0,l),
(500,0,l),
(310,255,l),
(488,491,l),
(379,491,l),
(254,324,l),
(130,491,l),
(17,491,l),
(198,253,l),
(6,0,l)
);
}
);
width = 506;
},
{
anchors = (
{
name = bottom;
pos = (246,0);
},
{
name = top;
pos = (246,536);
}
);
layerId = "F1A19D98-9E48-4F05-B6A0-CD51606DBCB8";
shapes = (
{
closed = 1;
nodes = (
(99,0,l),
(245,192,l),
(392,0,l),
(485,0,l),
(293,251,l),
(471,481,l),
(381,481,l),
(247,307,l),
(114,481,l),
(20,481,l),
(201,249,l),
(7,0,l)
);
}
);
width = 492;
}
);
unicode = 120;
},
{
color = 1;
glyphname = y;
lastChange = "2025-10-31 11:44:26 +0000";
layers = (
{
anchors = (
{
name = bottom;
pos = (297,0);
},
{
name = top;
pos = (297,536);
}
);
layerId = "F6364453-91B0-4CE2-A857-F52B6F68B874";
shapes = (
{
closed = 1;
nodes = (
(334,-160,l),
(598,541,l),
(403,541,l),
(301,195,l),
(193,541,l),
(-6,541,l),
(222,-6,l),
(173,-160,l)
);
}
);
width = 593;
},
{
anchors = (
{
name = bottom;
pos = (250,0);
},
{
name = top;
pos = (250,536);
}
);
layerId = "8AF3DB8E-7EC5-4D7D-A87A-6DF3FCB8CADF";
shapes = (
{
closed = 1;
nodes = (
(237,-183,l),
(504,491,l),
(400,491,l),
(259,114,l),
(103,491,l),
(-4,491,l),
(215,-1,l),
(145,-183,l)
);
}
);
width = 500;
},
{
anchors = (
{
name = bottom;
pos = (241,0);
},
{
name = top;
pos = (241,536);
}
);
layerId = "F1A19D98-9E48-4F05-B6A0-CD51606DBCB8";
shapes = (
{
closed = 1;
nodes = (
(217,-188,l),
(485,481,l),
(399,481,l),
(250,98,l),
(85,481,l),
(-4,481,l),
(214,0,l),
(139,-188,l)
);
}
);
width = 481;
}
);
unicode = 121;
},
{
color = 1;
glyphname = z;
lastChange = "2025-10-31 11:44:26 +0000";
layers = (
{
anchors = (
{
name = bottom;
pos = (268,0);
},
{
name = center;
pos = (268,268);
},
{
name = top;
pos = (268,536);
}
);
layerId = "F6364453-91B0-4CE2-A857-F52B6F68B874";
shapes = (
{
closed = 1;
nodes = (
(517,0,l),
(517,151,l),
(266,151,l),
(517,416,l),
(517,541,l),
(24,541,l),
(24,390,l),
(265,390,l),
(15,125,l),
(15,0,l)
);
}
);
width = 536;
},
{
anchors = (
{
name = bottom;
pos = (255,0);
},
{
name = center;
pos = (255,268);
},
{
name = top;
pos = (255,536);
}
);
layerId = "8AF3DB8E-7EC5-4D7D-A87A-6DF3FCB8CADF";
shapes = (
{
closed = 1;
nodes = (
(480,0,l),
(480,84,l),
(136,84,l),
(485,414,l),
(485,492,l),
(32,492,l),
(32,410,l),
(362,410,l),
(13,78,l),
(13,0,l)
);
}
);
width = 509;
},
{
anchors = (
{
name = bottom;
pos = (252,0);
},
{
name = center;
pos = (252,268);
},
{
name = top;
pos = (252,536);
}
);
layerId = "F1A19D98-9E48-4F05-B6A0-CD51606DBCB8";
shapes = (
{
closed = 1;
nodes = (
(473,0,l),
(473,70,l),
(110,70,l),
(479,414,l),
(479,482,l),
(33,482,l),
(33,414,l),
(381,414,l),
(12,69,l),
(12,0,l)
);
}
);
width = 504;
}
);
unicode = 122;
},
{
glyphname = ordfeminine;
lastChange = "2025-10-31 11:44:26 +0000";
layers = (
{
layerId = "F6364453-91B0-4CE2-A857-F52B6F68B874";
shapes = (
{
closed = 1;
nodes = (
(165,413,o),
(193,428,o),
(213,451,c),
(213,419,l),
(317,419,l),
(317,589,ls),
(317,677,o),
(275,721,o),
(171,721,cs),
(123,721,o),
(86,713,o),
(51,698,c),
(72,624,l),
(99,635,o),
(126,641,o),
(154,641,cs),
(195,641,o),
(214,623,o),
(214,592,cs),
(214,588,l),
(197,595,o),
(171,599,o),
(143,599,cs),
(71,599,o),
(26,570,o),
(26,506,cs),
(26,445,o),
(70,413,o),
(126,413,cs)
);
},
{
closed = 1;
nodes = (
(322,286,l),
(322,363,l),
(23,363,l),
(23,286,l)
);
},
{
closed = 1;
nodes = (
(142,479,o),
(127,493,o),
(127,513,cs),
(127,534,o),
(145,549,o),
(174,549,cs),
(190,549,o),
(204,545,o),
(215,541,c),
(215,528,ls),
(215,499,o),
(192,479,o),
(163,479,cs)
);
}
);
width = 354;
},
{
layerId = "8AF3DB8E-7EC5-4D7D-A87A-6DF3FCB8CADF";
shapes = (
{
closed = 1;
nodes = (
(168,423,o),
(201,441,o),
(224,469,c),
(224,429,l),
(284,429,l),
(284,602,ls),
(284,685,o),
(233,722,o),
(156,722,cs),
(116,722,o),
(80,711,o),
(49,696,c),
(65,647,l),
(92,662,o),
(118,669,o),
(149,669,cs),
(196,669,o),
(224,648,o),
(224,603,cs),
(224,596,l),
(199,603,o),
(178,609,o),
(146,609,cs),
(74,609,o),
(24,578,o),
(24,514,cs),
(24,456,o),
(76,423,o),
(129,423,cs)
);
},
{
closed = 1;
nodes = (
(289,301,l),
(289,353,l),
(21,353,l),
(21,301,l)
);
},
{
closed = 1;
nodes = (
(109,469,o),
(84,485,o),
(84,517,cs),
(84,550,o),
(110,569,o),
(155,569,cs),
(183,569,o),
(205,563,o),
(224,555,c),
(224,536,ls),
(224,492,o),
(184,469,o),
(144,469,cs)
);
}
);
width = 326;
},
{
layerId = "F1A19D98-9E48-4F05-B6A0-CD51606DBCB8";
shapes = (
{
closed = 1;
nodes = (
(169,425,o),
(203,444,o),
(226,473,c),
(226,431,l),
(277,431,l),
(277,605,ls),
(277,685,o),
(225,722,o),
(153,722,cs),
(114,722,o),
(77,711,o),
(48,696,c),
(64,652,l),
(89,667,o),
(117,675,o),
(148,675,cs),
(196,675,o),
(226,653,o),
(226,605,cs),
(226,597,l),
(199,605,o),
(179,611,o),
(146,611,cs),
(74,611,o),
(24,580,o),
(24,515,cs),
(24,458,o),
(78,425,o),
(129,425,cs)
);
},
{
closed = 1;
nodes = (
(282,304,l),
(282,356,l),
(14,356,l),
(14,304,l)
);
},
{
closed = 1;
nodes = (
(104,467,o),
(75,483,o),
(75,518,cs),
(75,553,o),
(103,573,o),
(151,573,cs),
(182,573,o),
(206,567,o),
(226,558,c),
(226,537,ls),
(226,490,o),
(182,467,o),
(140,467,cs)
);
}
);
width = 320;
}
);
unicode = 170;
},
{
glyphname = ordmasculine;
lastChange = "2025-10-31 11:44:26 +0000";
layers = (
{
layerId = "F6364453-91B0-4CE2-A857-F52B6F68B874";
shapes = (
{
closed = 1;
nodes = (
(278,414,o),
(347,485,o),
(347,570,cs),
(347,655,o),
(279,724,o),
(186,724,cs),
(93,724,o),
(23,653,o),
(23,569,cs),
(23,479,o),
(98,414,o),
(184,414,cs)
);
},
{
closed = 1;
nodes = (
(329,289,l),
(329,366,l),
(41,366,l),
(41,289,l)
);
},
{
closed = 1;
nodes = (
(150,503,o),
(125,534,o),
(125,570,cs),
(125,606,o),
(148,635,o),
(184,635,cs),
(220,635,o),
(245,605,o),
(245,569,cs),
(245,535,o),
(223,503,o),
(186,503,cs)
);
}
);
width = 370;
},
{
layerId = "8AF3DB8E-7EC5-4D7D-A87A-6DF3FCB8CADF";
shapes = (
{
closed = 1;
nodes = (
(256,422,o),
(321,491,o),
(321,575,cs),
(321,653,o),
(258,723,o),
(172,723,cs),
(85,723,o),
(21,655,o),
(21,572,cs),
(21,488,o),
(87,422,o),
(170,422,cs)
);
},
{
closed = 1;
nodes = (
(315,302,l),
(315,354,l),
(27,354,l),
(27,302,l)
);
},
{
closed = 1;
nodes = (
(120,478,o),
(83,519,o),
(83,575,cs),
(83,624,o),
(115,667,o),
(170,667,cs),
(222,667,o),
(259,628,o),
(259,572,cs),
(259,519,o),
(227,478,o),
(172,478,cs)
);
}
);
width = 342;
},
{
layerId = "F1A19D98-9E48-4F05-B6A0-CD51606DBCB8";
shapes = (
{
closed = 1;
nodes = (
(251,423,o),
(316,492,o),
(316,576,cs),
(316,653,o),
(254,723,o),
(169,723,cs),
(83,723,o),
(20,655,o),
(20,572,cs),
(20,489,o),
(85,423,o),
(167,423,cs)
);
},
{
closed = 1;
nodes = (
(312,304,l),
(312,356,l),
(24,356,l),
(24,304,l)
);
},
{
closed = 1;
nodes = (
(113,476,o),
(74,519,o),
(74,576,cs),
(74,627,o),
(110,673,o),
(167,673,cs),
(223,673,o),
(262,632,o),
(262,572,cs),
(262,517,o),
(227,472,o),
(169,476,c)
);
}
);
width = 336;
}
);
unicode = 186;
},
{
glyphname = nmod;
lastChange = "2025-10-31 11:44:26 +0000";
layers = (
{
layerId = "F6364453-91B0-4CE2-A857-F52B6F68B874";
shapes = (
{
closed = 1;
nodes = (
(162,391,l),
(162,590,ls),
(162,630,o),
(188,651,o),
(216,651,cs),
(245,651,o),
(268,630,o),
(268,590,cs),
(268,391,l),
(396,391,l),
(396,631,ls),
(396,707,o),
(352,766,o),
(272,766,cs),
(219,766,o),
(186,737,o),
(162,706,c),
(33,758,l),
(33,391,l)
);
}
);
width = 394;
},
{
layerId = "8AF3DB8E-7EC5-4D7D-A87A-6DF3FCB8CADF";
shapes = (
{
closed = 1;
nodes = (
(120,391,l),
(120,589,ls),
(120,660,o),
(169,682,o),
(206,682,cs),
(243,682,o),
(284,659,o),
(284,589,cs),
(284,391,l),
(354,391,l),
(354,609,ls),
(354,690,o),
(315,744,o),
(230,744,cs),
(181,744,o),
(145,722,o),
(120,691,c),
(50,736,l),
(50,391,l)
);
}
);
width = 394;
},
{
layerId = "F1A19D98-9E48-4F05-B6A0-CD51606DBCB8";
shapes = (
{
closed = 1;
nodes = (
(111,391,l),
(111,589,ls),
(111,666,o),
(165,688,o),
(204,688,cs),
(244,688,o),
(287,665,o),
(287,589,cs),
(287,391,l),
(345,391,l),
(345,605,ls),
(345,685,o),
(306,739,o),
(222,739,cs),
(173,739,o),
(137,719,o),
(112,688,c),
(53,731,l),
(53,391,l)
);
}
);
width = 394;
}
);
unicode = 8319;
},
{
color = 1;
glyphname = Alpha;
lastChange = "2025-10-31 11:44:26 +0000";
layers = (
{
anchors = (
{
name = topleft;
pos = (246,712);
}
);
layerId = "F6364453-91B0-4CE2-A857-F52B6F68B874";
shapes = (
{
closed = 1;
nodes = (
(196,0,l),
(246,125,l),
(516,125,l),
(567,0,l),
(775,0,l),
(477,705,l),
(290,705,l),
(-8,0,l)
);
},
{
closed = 1;
nodes = (
(382,475,l),
(460,276,l),
(303,276,l)
);
}
);
width = 767;
},
{
anchors = (
{
name = topleft;
pos = (184,712);
}
);
layerId = "8AF3DB8E-7EC5-4D7D-A87A-6DF3FCB8CADF";
shapes = (
{
closed = 1;
nodes = (
(104,0,l),
(184,185,l),
(507,185,l),
(585,0,l),
(698,0,l),
(390,705,l),
(301,705,l),
(-6,0,l)
);
},
{
closed = 1;
nodes = (
(345,584,l),
(471,273,l),
(220,273,l)
);
}
);
width = 692;
},
{
anchors = (
{
name = topleft;
pos = (171,712);
}
);
layerId = "F1A19D98-9E48-4F05-B6A0-CD51606DBCB8";
shapes = (
{
closed = 1;
nodes = (
(86,0,l),
(171,197,l),
(505,197,l),
(589,0,l),
(682,0,l),
(373,705,l),
(303,705,l),
(-5,0,l)
);
},
{
closed = 1;
nodes = (
(338,606,l),
(473,272,l),
(203,272,l)
);
}
);
width = 677;
}
);
unicode = 913;
},
{
glyphname = Beta;
lastChange = "2025-10-31 11:44:26 +0000";
layers = (
{
layerId = "F6364453-91B0-4CE2-A857-F52B6F68B874";
shapes = (
{
closed = 1;
nodes = (
(417,0,ls),
(586,0,o),
(684,75,o),
(684,195,cs),
(684,290,o),
(630,341,o),
(545,366,c),
(609,393,o),
(653,443,o),
(653,524,cs),
(653,635,o),
(562,700,o),
(415,700,cs),
(58,700,l),
(58,0,l)
);
},
{
closed = 1;
nodes = (
(247,285,l),
(394,285,ls),
(458,285,o),
(490,260,o),
(490,222,cs),
(490,181,o),
(456,156,o),
(396,156,cs),
(247,156,l)
);
},
{
closed = 1;
nodes = (
(247,544,l),
(372,544,ls),
(429,544,o),
(459,523,o),
(459,484,cs),
(459,443,o),
(427,421,o),
(368,421,cs),
(247,421,l)
);
}
);
width = 718;
},
{
layerId = "8AF3DB8E-7EC5-4D7D-A87A-6DF3FCB8CADF";
shapes = (
{
closed = 1;
nodes = (
(327,0,ls),
(524,0,o),
(607,87,o),
(607,194,cs),
(607,281,o),
(557,349,o),
(445,366,c),
(513,391,o),
(548,451,o),
(548,527,cs),
(548,656,o),
(431,704,o),
(303,704,cs),
(76,704,l),
(76,0,l)
);
},
{
closed = 1;
nodes = (
(178,316,l),
(307,316,ls),
(451,316,o),
(504,275,o),
(504,202,cs),
(504,129,o),
(452,88,o),
(335,88,cs),
(178,88,l)
);
},
{
closed = 1;
nodes = (
(178,617,l),
(305,617,ls),
(392,617,o),
(446,583,o),
(446,510,cs),
(446,447,o),
(401,400,o),
(304,400,cs),
(178,400,l)
);
}
);
width = 651;
},
{
layerId = "F1A19D98-9E48-4F05-B6A0-CD51606DBCB8";
shapes = (
{
closed = 1;
nodes = (
(309,0,ls),
(512,0,o),
(591,89,o),
(591,194,cs),
(591,279,o),
(542,350,o),
(425,366,c),
(493,391,o),
(527,451,o),
(527,527,cs),
(527,660,o),
(405,705,o),
(281,705,cs),
(80,705,l),
(80,0,l)
);
},
{
closed = 1;
nodes = (
(164,322,l),
(290,322,ls),
(450,322,o),
(507,278,o),
(507,198,cs),
(507,118,o),
(452,74,o),
(323,74,cs),
(164,74,l)
);
},
{
closed = 1;
nodes = (
(164,631,l),
(291,631,ls),
(383,631,o),
(443,595,o),
(443,515,cs),
(443,448,o),
(396,396,o),
(291,396,cs),
(164,396,l)
);
}
);
width = 637;
}
);
unicode = 914;
},
{
glyphname = Gamma;
lastChange = "2025-10-31 11:44:26 +0000";
layers = (
{
layerId = "F6364453-91B0-4CE2-A857-F52B6F68B874";
shapes = (
{
closed = 1;
nodes = (
(252,0,l),
(252,530,l),
(618,530,l),
(618,700,l),
(58,700,l),
(58,0,l)
);
}
);
width = 630;
},
{
layerId = "8AF3DB8E-7EC5-4D7D-A87A-6DF3FCB8CADF";
shapes = (
{
closed = 1;
nodes = (
(180,0,l),
(180,613,l),
(551,613,l),
(551,704,l),
(76,704,l),
(76,0,l)
);
}
);
width = 560;
},
{
layerId = "F1A19D98-9E48-4F05-B6A0-CD51606DBCB8";
shapes = (
{
closed = 1;
nodes = (
(165,0,l),
(165,629,l),
(537,629,l),
(537,705,l),
(80,705,l),
(80,0,l)
);
}
);
width = 546;
}
);
unicode = 915;
},
{
category = Letter;
glyphname = Delta;
lastChange = "2025-10-31 11:44:26 +0000";
layers = (
{
layerId = "F6364453-91B0-4CE2-A857-F52B6F68B874";
shapes = (
{
closed = 1;
nodes = (
(799,0,l),
(491,705,l),
(304,705,l),
(-4,0,l)
);
},
{
closed = 1;
nodes = (
(396,485,l),
(532,151,l),
(259,151,l)
);
}
);
width = 796;
},
{
layerId = "8AF3DB8E-7EC5-4D7D-A87A-6DF3FCB8CADF";
shapes = (
{
closed = 1;
nodes = (
(715,0,l),
(402,705,l),
(312,705,l),
(0,0,l)
);
},
{
closed = 1;
nodes = (
(357,586,l),
(568,88,l),
(147,88,l)
);
}
);
width = 714;
},
{
layerId = "F1A19D98-9E48-4F05-B6A0-CD51606DBCB8";
shapes = (
{
closed = 1;
nodes = (
(698,0,l),
(384,705,l),
(314,705,l),
(1,0,l)
);
},
{
closed = 1;
nodes = (
(349,606,l),
(575,75,l),
(124,75,l)
);
}
);
width = 698;
}
);
script = greek;
unicode = 916;
},
{
color = 1;
glyphname = Epsilon;
lastChange = "2025-10-31 11:44:26 +0000";
layers = (
{
anchors = (
{
name = topleft;
pos = (20,712);
}
);
layerId = "F6364453-91B0-4CE2-A857-F52B6F68B874";
shapes = (
{
closed = 1;
nodes = (
(626,0,l),
(626,165,l),
(250,165,l),
(250,276,l),
(586,276,l),
(586,429,l),
(250,429,l),
(250,535,l),
(621,535,l),
(621,700,l),
(58,700,l),
(58,0,l)
);
}
);
width = 675;
},
{
anchors = (
{
name = topleft;
pos = (20,712);
}
);
layerId = "8AF3DB8E-7EC5-4D7D-A87A-6DF3FCB8CADF";
shapes = (
{
closed = 1;
nodes = (
(564,0,l),
(564,91,l),
(180,91,l),
(180,314,l),
(524,314,l),
(524,402,l),
(180,402,l),
(180,613,l),
(554,613,l),
(554,704,l),
(76,704,l),
(76,0,l)
);
}
);
width = 628;
},
{
anchors = (
{
name = topleft;
pos = (20,712);
}
);
layerId = "F1A19D98-9E48-4F05-B6A0-CD51606DBCB8";
shapes = (
{
closed = 1;
nodes = (
(551,0,l),
(551,76,l),
(166,76,l),
(166,321,l),
(511,321,l),
(511,397,l),
(166,397,l),
(166,629,l),
(540,629,l),
(540,705,l),
(80,705,l),
(80,0,l)
);
}
);
width = 618;
}
);
unicode = 917;
},
{
glyphname = Zeta;
lastChange = "2025-10-31 11:44:26 +0000";
layers = (
{
layerId = "F6364453-91B0-4CE2-A857-F52B6F68B874";
shapes = (
{
closed = 1;
nodes = (
(615,0,l),
(615,164,l),
(264,164,l),
(615,559,l),
(615,700,l),
(8,700,l),
(8,536,l),
(347,536,l),
(-4,141,l),
(-4,0,l)
);
}
);
width = 624;
},
{
layerId = "8AF3DB8E-7EC5-4D7D-A87A-6DF3FCB8CADF";
shapes = (
{
closed = 1;
nodes = (
(599,0,l),
(599,90,l),
(147,90,l),
(617,620,l),
(617,704,l),
(36,704,l),
(36,614,l),
(486,614,l),
(11,84,l),
(11,0,l)
);
}
);
width = 639;
},
{
layerId = "F1A19D98-9E48-4F05-B6A0-CD51606DBCB8";
shapes = (
{
closed = 1;
nodes = (
(596,0,l),
(596,75,l),
(124,75,l),
(617,632,l),
(617,705,l),
(42,705,l),
(42,630,l),
(514,630,l),
(14,72,l),
(14,0,l)
);
}
);
width = 642;
}
);
unicode = 918;
},
{
color = 1;
glyphname = Eta;
lastChange = "2025-10-31 11:44:26 +0000";
layers = (
{
anchors = (
{
name = topleft;
pos = (20,712);
}
);
layerId = "F6364453-91B0-4CE2-A857-F52B6F68B874";
shapes = (
{
closed = 1;
nodes = (
(252,0,l),
(252,266,l),
(501,266,l),
(501,0,l),
(695,0,l),
(695,700,l),
(501,700,l),
(501,438,l),
(252,438,l),
(252,700,l),
(58,700,l),
(58,0,l)
);
}
);
width = 754;
},
{
anchors = (
{
name = topleft;
pos = (20,712);
}
);
layerId = "8AF3DB8E-7EC5-4D7D-A87A-6DF3FCB8CADF";
shapes = (
{
closed = 1;
nodes = (
(179,0,l),
(179,311,l),
(539,311,l),
(539,0,l),
(641,0,l),
(641,705,l),
(539,705,l),
(539,405,l),
(179,405,l),
(179,705,l),
(76,705,l),
(76,0,l)
);
}
);
width = 717;
},
{
anchors = (
{
name = topleft;
pos = (20,712);
}
);
layerId = "F1A19D98-9E48-4F05-B6A0-CD51606DBCB8";
shapes = (
{
closed = 1;
nodes = (
(164,0,l),
(164,320,l),
(546,320,l),
(546,0,l),
(630,0,l),
(630,706,l),
(546,706,l),
(546,398,l),
(164,398,l),
(164,706,l),
(80,706,l),
(80,0,l)
);
}
);
width = 709;
}
);
unicode = 919;
},
{
glyphname = Theta;
lastChange = "2025-10-31 11:44:26 +0000";
layers = (
{
layerId = "F6364453-91B0-4CE2-A857-F52B6F68B874";
shapes = (
{
closed = 1;
nodes = (
(621,-14,o),
(791,145,o),
(791,352,cs),
(791,552,o),
(630,714,o),
(415,714,cs),
(199,714,o),
(37,551,o),
(37,350,cs),
(37,149,o),
(197,-14,o),
(413,-14,cs)
);
},
{
closed = 1;
nodes = (
(308,161,o),
(236,251,o),
(236,352,cs),
(236,453,o),
(307,539,o),
(413,539,cs),
(519,539,o),
(592,450,o),
(592,350,cs),
(592,250,o),
(522,161,o),
(415,161,cs)
);
},
{
closed = 1;
nodes = (
(523,276,l),
(523,439,l),
(306,439,l),
(306,276,l)
);
}
);
width = 828;
},
{
layerId = "8AF3DB8E-7EC5-4D7D-A87A-6DF3FCB8CADF";
shapes = (
{
closed = 1;
nodes = (
(626,-14,o),
(784,149,o),
(784,354,cs),
(784,553,o),
(630,718,o),
(418,718,cs),
(205,718,o),
(49,554,o),
(49,351,cs),
(49,148,o),
(203,-14,o),
(416,-14,cs)
);
},
{
closed = 1;
nodes = (
(262,79,o),
(154,200,o),
(154,354,cs),
(154,504,o),
(262,625,o),
(417,625,cs),
(573,625,o),
(678,498,o),
(678,350,cs),
(678,201,o),
(571,79,o),
(418,79,cs)
);
},
{
closed = 1;
nodes = (
(583,308,l),
(583,405,l),
(249,405,l),
(249,308,l)
);
}
);
width = 832;
},
{
layerId = "F1A19D98-9E48-4F05-B6A0-CD51606DBCB8";
shapes = (
{
closed = 1;
nodes = (
(627,-14,o),
(782,150,o),
(782,354,cs),
(782,553,o),
(630,719,o),
(419,719,cs),
(206,719,o),
(51,555,o),
(51,352,cs),
(51,148,o),
(204,-14,o),
(417,-14,cs)
);
},
{
closed = 1;
nodes = (
(253,63,o),
(138,190,o),
(138,354,cs),
(138,514,o),
(253,642,o),
(418,642,cs),
(583,642,o),
(695,506,o),
(695,350,cs),
(695,191,o),
(579,63,o),
(418,63,cs)
);
},
{
closed = 1;
nodes = (
(595,314,l),
(595,398,l),
(238,398,l),
(238,314,l)
);
}
);
width = 833;
}
);
unicode = 920;
},
{
color = 1;
glyphname = Iota;
lastChange = "2025-10-31 11:44:26 +0000";
layers = (
{
anchors = (
{
name = topleft;
pos = (80,712);
}
);
layerId = "F6364453-91B0-4CE2-A857-F52B6F68B874";
shapes = (
{
closed = 1;
nodes = (
(253,0,l),
(253,700,l),
(58,700,l),
(58,0,l)
);
}
);
width = 311;
},
{
anchors = (
{
name = topleft;
pos = (60,712);
}
);
layerId = "8AF3DB8E-7EC5-4D7D-A87A-6DF3FCB8CADF";
shapes = (
{
closed = 1;
nodes = (
(179,0,l),
(179,704,l),
(76,704,l),
(76,0,l)
);
}
);
width = 254;
},
{
anchors = (
{
name = topleft;
pos = (40,712);
}
);
layerId = "F1A19D98-9E48-4F05-B6A0-CD51606DBCB8";
shapes = (
{
closed = 1;
nodes = (
(164,0,l),
(164,705,l),
(80,705,l),
(80,0,l)
);
}
);
width = 243;
}
);
unicode = 921;
},
{
glyphname = Kappa;
lastChange = "2025-10-31 11:44:26 +0000";
layers = (
{
layerId = "F6364453-91B0-4CE2-A857-F52B6F68B874";
shapes = (
{
closed = 1;
nodes = (
(252,0,l),
(252,368,l),
(499,0,l),
(732,0,l),
(458,399,l),
(723,700,l),
(493,700,l),
(252,416,l),
(252,700,l),
(58,700,l),
(58,0,l)
);
}
);
width = 724;
},
{
layerId = "8AF3DB8E-7EC5-4D7D-A87A-6DF3FCB8CADF";
shapes = (
{
closed = 1;
nodes = (
(179,0,l),
(179,336,l),
(466,0,l),
(595,0,l),
(273,379,l),
(570,704,l),
(441,704,l),
(179,410,l),
(179,704,l),
(76,704,l),
(76,0,l)
);
}
);
width = 593;
},
{
layerId = "F1A19D98-9E48-4F05-B6A0-CD51606DBCB8";
shapes = (
{
closed = 1;
nodes = (
(164,0,l),
(164,330,l),
(459,0,l),
(567,0,l),
(236,375,l),
(539,705,l),
(431,705,l),
(164,409,l),
(164,705,l),
(80,705,l),
(80,0,l)
);
}
);
width = 567;
}
);
unicode = 922;
},
{
glyphname = Lambda;
lastChange = "2025-10-31 11:44:26 +0000";
layers = (
{
layerId = "F6364453-91B0-4CE2-A857-F52B6F68B874";
shapes = (
{
closed = 1;
nodes = (
(196,0,l),
(377,475,l),
(557,0,l),
(765,0,l),
(472,705,l),
(285,705,l),
(-8,0,l)
);
}
);
width = 757;
},
{
layerId = "8AF3DB8E-7EC5-4D7D-A87A-6DF3FCB8CADF";
shapes = (
{
closed = 1;
nodes = (
(104,0,l),
(336,584,l),
(567,0,l),
(679,0,l),
(381,705,l),
(292,705,l),
(-6,0,l)
);
}
);
width = 674;
},
{
layerId = "F1A19D98-9E48-4F05-B6A0-CD51606DBCB8";
shapes = (
{
closed = 1;
nodes = (
(86,0,l),
(328,606,l),
(569,0,l),
(662,0,l),
(363,705,l),
(293,705,l),
(-5,0,l)
);
}
);
width = 657;
}
);
unicode = 923;
},
{
glyphname = Mu;
lastChange = "2025-10-31 11:44:26 +0000";
layers = (
{
layerId = "F6364453-91B0-4CE2-A857-F52B6F68B874";
shapes = (
{
closed = 1;
nodes = (
(208,0,l),
(208,400,l),
(388,128,l),
(569,402,l),
(569,0,l),
(762,0,l),
(762,700,l),
(557,700,l),
(390,429,l),
(223,700,l),
(18,700,l),
(18,0,l)
);
}
);
width = 780;
},
{
layerId = "8AF3DB8E-7EC5-4D7D-A87A-6DF3FCB8CADF";
shapes = (
{
closed = 1;
nodes = (
(128,0,l),
(128,538,l),
(386,149,l),
(643,538,l),
(643,0,l),
(745,0,l),
(745,700,l),
(643,700,l),
(386,304,l),
(129,700,l),
(26,700,l),
(26,0,l)
);
}
);
width = 773;
},
{
layerId = "F1A19D98-9E48-4F05-B6A0-CD51606DBCB8";
shapes = (
{
closed = 1;
nodes = (
(112,0,l),
(112,565,l),
(385,153,l),
(658,565,l),
(658,0,l),
(742,0,l),
(742,700,l),
(660,700,l),
(385,279,l),
(110,700,l),
(28,700,l),
(28,0,l)
);
}
);
width = 771;
}
);
unicode = 924;
},
{
glyphname = Nu;
lastChange = "2025-10-31 11:44:26 +0000";
layers = (
{
layerId = "F6364453-91B0-4CE2-A857-F52B6F68B874";
shapes = (
{
closed = 1;
nodes = (
(250,0,l),
(250,384,l),
(549,0,l),
(719,0,l),
(719,700,l),
(527,700,l),
(527,330,l),
(239,700,l),
(58,700,l),
(58,0,l)
);
}
);
width = 778;
},
{
layerId = "8AF3DB8E-7EC5-4D7D-A87A-6DF3FCB8CADF";
shapes = (
{
closed = 1;
nodes = (
(177,0,l),
(177,545,l),
(577,0,l),
(675,0,l),
(675,704,l),
(575,704,l),
(575,160,l),
(177,700,l),
(76,700,l),
(76,0,l)
);
}
);
width = 751;
},
{
layerId = "F1A19D98-9E48-4F05-B6A0-CD51606DBCB8";
shapes = (
{
closed = 1;
nodes = (
(162,0,l),
(162,577,l),
(582,0,l),
(666,0,l),
(666,705,l),
(584,705,l),
(584,126,l),
(165,700,l),
(80,700,l),
(80,0,l)
);
}
);
width = 746;
}
);
unicode = 925;
},
{
glyphname = Xi;
lastChange = "2025-10-31 11:44:26 +0000";
layers = (
{
layerId = "F6364453-91B0-4CE2-A857-F52B6F68B874";
shapes = (
{
closed = 1;
nodes = (
(617,0,l),
(617,175,l),
(49,175,l),
(49,0,l)
);
},
{
closed = 1;
nodes = (
(577,271,l),
(577,434,l),
(89,434,l),
(89,271,l)
);
},
{
closed = 1;
nodes = (
(612,525,l),
(612,700,l),
(54,700,l),
(54,525,l)
);
}
);
width = 666;
},
{
layerId = "8AF3DB8E-7EC5-4D7D-A87A-6DF3FCB8CADF";
shapes = (
{
closed = 1;
nodes = (
(552,0,l),
(552,101,l),
(64,101,l),
(64,0,l)
);
},
{
closed = 1;
nodes = (
(512,309,l),
(512,407,l),
(104,407,l),
(104,309,l)
);
},
{
closed = 1;
nodes = (
(542,603,l),
(542,704,l),
(74,704,l),
(74,603,l)
);
}
);
width = 616;
},
{
layerId = "F1A19D98-9E48-4F05-B6A0-CD51606DBCB8";
shapes = (
{
closed = 1;
nodes = (
(539,0,l),
(539,86,l),
(67,86,l),
(67,0,l)
);
},
{
closed = 1;
nodes = (
(499,316,l),
(499,402,l),
(107,402,l),
(107,316,l)
);
},
{
closed = 1;
nodes = (
(528,619,l),
(528,705,l),
(78,705,l),
(78,619,l)
);
}
);
width = 606;
}
);
unicode = 926;
},
{
color = 1;
glyphname = Omicron;
lastChange = "2025-10-31 11:44:26 +0000";
layers = (
{
anchors = (
{
name = topleft;
pos = (236,712);
}
);
layerId = "F6364453-91B0-4CE2-A857-F52B6F68B874";
shapes = (
{
closed = 1;
nodes = (
(621,-14,o),
(791,145,o),
(791,352,cs),
(791,552,o),
(630,714,o),
(414,714,cs),
(198,714,o),
(37,551,o),
(37,350,cs),
(37,149,o),
(197,-14,o),
(413,-14,cs)
);
},
{
closed = 1;
nodes = (
(309,161,o),
(236,251,o),
(236,352,cs),
(236,453,o),
(307,539,o),
(413,539,cs),
(519,539,o),
(592,450,o),
(592,350,cs),
(592,250,o),
(521,161,o),
(414,161,cs)
);
}
);
width = 828;
},
{
anchors = (
{
name = topleft;
pos = (184,712);
}
);
layerId = "8AF3DB8E-7EC5-4D7D-A87A-6DF3FCB8CADF";
shapes = (
{
closed = 1;
nodes = (
(626,-14,o),
(784,149,o),
(784,354,cs),
(784,553,o),
(630,718,o),
(418,718,cs),
(205,718,o),
(49,554,o),
(49,351,cs),
(49,148,o),
(203,-14,o),
(416,-14,cs)
);
},
{
closed = 1;
nodes = (
(262,79,o),
(154,200,o),
(154,354,cs),
(154,504,o),
(262,625,o),
(417,625,cs),
(573,625,o),
(678,498,o),
(678,350,cs),
(678,201,o),
(569,79,o),
(417,79,cs)
);
}
);
width = 832;
},
{
anchors = (
{
name = topleft;
pos = (138,712);
}
);
layerId = "F1A19D98-9E48-4F05-B6A0-CD51606DBCB8";
shapes = (
{
closed = 1;
nodes = (
(627,-14,o),
(782,150,o),
(782,354,cs),
(782,553,o),
(630,719,o),
(419,719,cs),
(206,719,o),
(51,555,o),
(51,352,cs),
(51,148,o),
(204,-14,o),
(417,-14,cs)
);
},
{
closed = 1;
nodes = (
(253,63,o),
(138,190,o),
(138,354,cs),
(138,514,o),
(253,642,o),
(418,642,cs),
(583,642,o),
(695,506,o),
(695,350,cs),
(695,191,o),
(579,63,o),
(418,63,cs)
);
}
);
width = 833;
}
);
unicode = 927;
},
{
glyphname = Pi;
lastChange = "2025-10-31 11:44:26 +0000";
layers = (
{
layerId = "F6364453-91B0-4CE2-A857-F52B6F68B874";
shapes = (
{
closed = 1;
nodes = (
(252,0,l),
(252,528,l),
(491,528,l),
(491,0,l),
(685,0,l),
(685,705,l),
(58,700,l),
(58,0,l)
);
}
);
width = 743;
},
{
layerId = "8AF3DB8E-7EC5-4D7D-A87A-6DF3FCB8CADF";
shapes = (
{
closed = 1;
nodes = (
(179,0,l),
(179,611,l),
(520,611,l),
(520,0,l),
(623,0,l),
(623,705,l),
(76,705,l),
(76,0,l)
);
}
);
width = 698;
},
{
layerId = "F1A19D98-9E48-4F05-B6A0-CD51606DBCB8";
shapes = (
{
closed = 1;
nodes = (
(164,0,l),
(164,628,l),
(526,628,l),
(526,0,l),
(610,0,l),
(610,705,l),
(80,706,l),
(80,0,l)
);
}
);
width = 689;
}
);
unicode = 928;
},
{
glyphname = Rho;
lastChange = "2025-10-31 11:44:26 +0000";
layers = (
{
layerId = "F6364453-91B0-4CE2-A857-F52B6F68B874";
shapes = (
{
closed = 1;
nodes = (
(252,0,l),
(252,200,l),
(348,200,ls),
(522,200,o),
(649,289,o),
(649,454,cs),
(649,610,o),
(535,700,o),
(358,700,cs),
(58,700,l),
(58,0,l)
);
},
{
closed = 1;
nodes = (
(252,537,l),
(343,537,ls),
(415,537,o),
(455,505,o),
(455,445,cs),
(455,389,o),
(413,352,o),
(344,352,cs),
(252,352,l)
);
}
);
width = 672;
},
{
layerId = "8AF3DB8E-7EC5-4D7D-A87A-6DF3FCB8CADF";
shapes = (
{
closed = 1;
nodes = (
(180,-2,l),
(180,266,l),
(308,266,ls),
(457,266,o),
(573,347,o),
(573,490,cs),
(573,625,o),
(471,704,o),
(316,704,cs),
(76,704,l),
(76,-2,l)
);
},
{
closed = 1;
nodes = (
(180,614,l),
(307,614,ls),
(411,614,o),
(469,572,o),
(469,485,cs),
(469,402,o),
(409,355,o),
(306,355,cs),
(180,355,l)
);
}
);
width = 602;
},
{
layerId = "F1A19D98-9E48-4F05-B6A0-CD51606DBCB8";
shapes = (
{
closed = 1;
nodes = (
(166,-2,l),
(166,279,l),
(300,279,ls),
(444,279,o),
(558,358,o),
(558,497,cs),
(558,628,o),
(457,705,o),
(307,705,cs),
(80,705,l),
(80,-2,l)
);
},
{
closed = 1;
nodes = (
(166,629,l),
(300,629,ls),
(409,629,o),
(472,585,o),
(472,493,cs),
(472,405,o),
(407,355,o),
(298,355,cs),
(166,355,l)
);
}
);
width = 588;
}
);
unicode = 929;
},
{
glyphname = Sigma;
lastChange = "2025-10-31 11:44:26 +0000";
layers = (
{
layerId = "F6364453-91B0-4CE2-A857-F52B6F68B874";
shapes = (
{
closed = 1;
nodes = (
(575,0,l),
(575,164,l),
(264,164,l),
(432,351,l),
(274,536,l),
(563,536,l),
(563,700,l),
(6,700,l),
(6,559,l),
(185,351,l),
(-4,141,l),
(-4,0,l)
);
}
);
width = 614;
},
{
layerId = "8AF3DB8E-7EC5-4D7D-A87A-6DF3FCB8CADF";
shapes = (
{
closed = 1;
nodes = (
(593,0,l),
(593,90,l),
(147,90,l),
(385,354,l),
(154,614,l),
(587,614,l),
(587,704,l),
(24,704,l),
(24,620,l),
(257,354,l),
(11,84,l),
(11,0,l)
);
}
);
width = 628;
},
{
layerId = "F1A19D98-9E48-4F05-B6A0-CD51606DBCB8";
shapes = (
{
closed = 1;
nodes = (
(596,0,l),
(596,75,l),
(124,75,l),
(375,355,l),
(130,630,l),
(592,630,l),
(592,705,l),
(27,705,l),
(27,632,l),
(271,355,l),
(14,72,l),
(14,0,l)
);
}
);
width = 631;
}
);
unicode = 931;
},
{
glyphname = Tau;
lastChange = "2025-10-31 11:44:26 +0000";
layers = (
{
layerId = "F6364453-91B0-4CE2-A857-F52B6F68B874";
shapes = (
{
closed = 1;
nodes = (
(415,0,l),
(415,530,l),
(625,530,l),
(625,700,l),
(11,700,l),
(11,530,l),
(221,530,l),
(221,0,l)
);
}
);
width = 637;
},
{
layerId = "8AF3DB8E-7EC5-4D7D-A87A-6DF3FCB8CADF";
shapes = (
{
closed = 1;
nodes = (
(321,0,l),
(321,613,l),
(531,613,l),
(531,704,l),
(9,704,l),
(9,613,l),
(219,613,l),
(219,0,l)
);
}
);
width = 540;
},
{
layerId = "F1A19D98-9E48-4F05-B6A0-CD51606DBCB8";
shapes = (
{
closed = 1;
nodes = (
(302,0,l),
(302,629,l),
(512,629,l),
(512,705,l),
(8,705,l),
(8,629,l),
(218,629,l),
(218,0,l)
);
}
);
width = 520;
}
);
unicode = 932;
},
{
color = 1;
glyphname = Upsilon;
lastChange = "2025-10-31 11:44:26 +0000";
layers = (
{
anchors = (
{
name = top;
pos = (357,712);
},
{
name = topleft;
pos = (29,712);
}
);
layerId = "F6364453-91B0-4CE2-A857-F52B6F68B874";
shapes = (
{
closed = 1;
nodes = (
(454,0,l),
(454,265,l),
(720,700,l),
(503,700,l),
(358,445,l),
(214,700,l),
(-7,700,l),
(259,262,l),
(259,0,l)
);
}
);
width = 713;
},
{
anchors = (
{
name = top;
pos = (318,712);
},
{
name = topleft;
pos = (-21,712);
}
);
layerId = "8AF3DB8E-7EC5-4D7D-A87A-6DF3FCB8CADF";
shapes = (
{
closed = 1;
nodes = (
(370,0,l),
(370,278,l),
(639,704,l),
(524,704,l),
(321,373,l),
(117,704,l),
(-3,704,l),
(267,277,l),
(267,0,l)
);
}
);
width = 636;
},
{
anchors = (
{
name = top;
pos = (311,712);
},
{
name = topleft;
pos = (-27,712);
}
);
layerId = "F1A19D98-9E48-4F05-B6A0-CD51606DBCB8";
shapes = (
{
closed = 1;
nodes = (
(353,0,l),
(353,281,l),
(623,705,l),
(528,705,l),
(314,358,l),
(98,705,l),
(-2,705,l),
(269,280,l),
(269,0,l)
);
}
);
width = 621;
}
);
unicode = 933;
},
{
glyphname = Phi;
lastChange = "2025-10-31 11:44:26 +0000";
layers = (
{
layerId = "F6364453-91B0-4CE2-A857-F52B6F68B874";
shapes = (
{
closed = 1;
nodes = (
(577,-5,l),
(577,51,l),
(581,51,o),
(584,51,o),
(588,51,cs),
(805,51,o),
(933,181,o),
(933,357,cs),
(933,529,o),
(805,659,o),
(588,659,cs),
(584,659,o),
(581,659,o),
(577,659,c),
(577,705,l),
(393,705,l),
(393,659,l),
(389,659,o),
(386,659,o),
(382,659,cs),
(163,659,o),
(34,527,o),
(34,355,cs),
(34,183,o),
(163,51,o),
(382,51,cs),
(386,51,o),
(389,51,o),
(393,51,c),
(393,-5,l)
);
},
{
closed = 1;
nodes = (
(309,215,o),
(231,264,o),
(231,355,cs),
(231,444,o),
(309,492,o),
(393,492,c),
(393,215,l)
);
},
{
closed = 1;
nodes = (
(577,492,l),
(662,492,o),
(736,436,o),
(736,353,cs),
(736,270,o),
(658,215,o),
(577,215,c)
);
}
);
width = 967;
},
{
layerId = "8AF3DB8E-7EC5-4D7D-A87A-6DF3FCB8CADF";
shapes = (
{
closed = 1;
nodes = (
(492,-5,l),
(492,52,l),
(509,53,o),
(524,54,o),
(539,57,c),
(733,84,o),
(835,204,o),
(835,353,cs),
(835,498,o),
(733,623,o),
(539,647,c),
(524,650,o),
(509,652,o),
(492,652,c),
(492,709,l),
(391,709,l),
(391,652,l),
(375,652,o),
(360,650,o),
(344,647,c),
(147,623,o),
(45,500,o),
(45,351,cs),
(45,202,o),
(147,81,o),
(344,57,c),
(360,54,o),
(375,53,o),
(391,52,c),
(391,-5,l)
);
},
{
closed = 1;
nodes = (
(234,154,o),
(150,234,o),
(150,353,cs),
(150,469,o),
(234,552,o),
(391,560,c),
(391,143,l)
);
},
{
closed = 1;
nodes = (
(492,560,l),
(652,549,o),
(729,466,o),
(729,350,cs),
(729,234,o),
(652,154,o),
(492,143,c)
);
}
);
width = 880;
},
{
layerId = "F1A19D98-9E48-4F05-B6A0-CD51606DBCB8";
shapes = (
{
closed = 1;
nodes = (
(475,-5,l),
(475,52,l),
(494,53,o),
(512,55,o),
(529,58,cs),
(718,90,o),
(815,208,o),
(815,352,cs),
(815,492,o),
(718,616,o),
(529,645,cs),
(512,648,o),
(494,650,o),
(475,651,c),
(475,710,l),
(391,710,l),
(391,651,l),
(372,650,o),
(355,648,o),
(336,645,cs),
(144,616,o),
(47,495,o),
(47,350,cs),
(47,205,o),
(144,87,o),
(336,58,cs),
(355,55,o),
(372,53,o),
(391,52,c),
(391,-5,l)
);
},
{
closed = 1;
nodes = (
(219,142,o),
(134,228,o),
(134,352,cs),
(134,475,o),
(219,563,o),
(391,574,c),
(391,129,l)
);
},
{
closed = 1;
nodes = (
(475,574,l),
(650,561,o),
(728,472,o),
(728,349,cs),
(728,227,o),
(651,142,o),
(475,129,c)
);
}
);
width = 862;
}
);
unicode = 934;
},
{
glyphname = Chi;
lastChange = "2025-10-31 11:44:26 +0000";
layers = (
{
layerId = "F6364453-91B0-4CE2-A857-F52B6F68B874";
shapes = (
{
closed = 1;
nodes = (
(218,0,l),
(353,211,l),
(487,0,l),
(710,0,l),
(470,358,l),
(700,700,l),
(482,700,l),
(357,503,l),
(233,700,l),
(10,700,l),
(240,356,l),
(0,0,l)
);
}
);
width = 710;
},
{
layerId = "8AF3DB8E-7EC5-4D7D-A87A-6DF3FCB8CADF";
shapes = (
{
closed = 1;
nodes = (
(127,0,l),
(320,282,l),
(514,0,l),
(632,0,l),
(381,362,l),
(619,704,l),
(503,704,l),
(323,439,l),
(140,704,l),
(20,704,l),
(261,360,l),
(8,0,l)
);
}
);
width = 641;
},
{
layerId = "F1A19D98-9E48-4F05-B6A0-CD51606DBCB8";
shapes = (
{
closed = 1;
nodes = (
(109,0,l),
(313,296,l),
(519,0,l),
(616,0,l),
(363,363,l),
(603,705,l),
(507,705,l),
(316,426,l),
(121,705,l),
(22,705,l),
(265,361,l),
(10,0,l)
);
}
);
width = 627;
}
);
unicode = 935;
},
{
glyphname = Psi;
lastChange = "2025-10-31 11:44:26 +0000";
layers = (
{
layerId = "F6364453-91B0-4CE2-A857-F52B6F68B874";
shapes = (
{
closed = 1;
nodes = (
(571,0,l),
(571,127,l),
(782,127,o),
(899,241,o),
(899,452,cs),
(899,700,l),
(704,700,l),
(704,451,ls),
(704,350,o),
(652,302,o),
(573,302,c),
(573,700,l),
(378,700,l),
(378,302,l),
(299,302,o),
(247,350,o),
(247,451,cs),
(247,700,l),
(52,700,l),
(52,447,ls),
(52,243,o),
(176,127,o),
(376,127,c),
(376,0,l)
);
}
);
width = 952;
},
{
layerId = "8AF3DB8E-7EC5-4D7D-A87A-6DF3FCB8CADF";
shapes = (
{
closed = 1;
nodes = (
(459,0,l),
(459,134,l),
(636,134,o),
(747,241,o),
(747,445,cs),
(747,704,l),
(645,704,l),
(645,440,ls),
(645,317,o),
(587,228,o),
(458,228,c),
(458,704,l),
(356,704,l),
(356,228,l),
(227,228,o),
(170,317,o),
(170,440,cs),
(170,704,l),
(68,704,l),
(68,444,ls),
(68,241,o),
(182,134,o),
(356,134,c),
(356,0,l)
);
}
);
width = 816;
},
{
layerId = "F1A19D98-9E48-4F05-B6A0-CD51606DBCB8";
shapes = (
{
closed = 1;
nodes = (
(436,0,l),
(436,135,l),
(607,135,o),
(717,240,o),
(717,443,cs),
(717,702,l),
(633,705,l),
(633,438,ls),
(633,310,o),
(574,213,o),
(435,213,c),
(435,705,l),
(351,705,l),
(351,213,l),
(212,213,o),
(155,310,o),
(155,438,cs),
(155,705,l),
(71,705,l),
(71,443,ls),
(71,240,o),
(183,135,o),
(352,135,c),
(352,0,l)
);
}
);
width = 789;
}
);
unicode = 936;
},
{
glyphname = Omega;
lastChange = "2025-10-31 11:44:26 +0000";
layers = (
{
anchors = (
{
name = bottom;
pos = (431,0);
},
{
name = topleft;
pos = (250,712);
}
);
layerId = "F6364453-91B0-4CE2-A857-F52B6F68B874";
shapes = (
{
closed = 1;
nodes = (
(401,2,l),
(401,177,l),
(320,209,o),
(279,282,o),
(279,367,cs),
(279,462,o),
(327,539,o),
(429,539,cs),
(533,539,o),
(583,466,o),
(583,367,cs),
(583,281,o),
(542,212,o),
(461,177,c),
(461,2,l),
(812,2,l),
(812,167,l),
(649,167,l),
(735,205,o),
(782,317,o),
(782,405,cs),
(782,610,o),
(623,714,o),
(431,714,cs),
(239,714,o),
(80,610,o),
(80,405,cs),
(80,317,o),
(129,205,o),
(213,167,c),
(50,167,l),
(50,2,l)
);
}
);
width = 862;
},
{
anchors = (
{
name = bottom;
pos = (434,0);
},
{
name = topleft;
pos = (220,712);
}
);
layerId = "8AF3DB8E-7EC5-4D7D-A87A-6DF3FCB8CADF";
shapes = (
{
closed = 1;
nodes = (
(374,0,l),
(374,93,l),
(263,151,o),
(189,244,o),
(189,372,cs),
(189,521,o),
(286,625,o),
(435,625,cs),
(585,625,o),
(679,519,o),
(679,372,cs),
(679,242,o),
(607,156,o),
(499,93,c),
(499,0,l),
(802,0,l),
(802,91,l),
(627,91,l),
(726,153,o),
(785,261,o),
(785,378,cs),
(785,582,o),
(636,718,o),
(436,718,cs),
(240,718,o),
(83,582,o),
(83,381,cs),
(83,264,o),
(142,153,o),
(241,91,c),
(66,91,l),
(66,0,l)
);
}
);
width = 868;
},
{
anchors = (
{
name = bottom;
pos = (435,0);
},
{
name = topleft;
pos = (160,712);
}
);
layerId = "F1A19D98-9E48-4F05-B6A0-CD51606DBCB8";
shapes = (
{
closed = 1;
nodes = (
(368,0,l),
(368,76,l),
(252,141,o),
(171,235,o),
(171,373,cs),
(171,533,o),
(276,642,o),
(436,642,cs),
(595,642,o),
(698,530,o),
(698,373,cs),
(698,221,o),
(619,157,o),
(506,76,c),
(512,0,l),
(800,0,l),
(800,76,l),
(623,76,l),
(724,143,o),
(785,250,o),
(785,373,cs),
(785,576,o),
(639,719,o),
(437,719,cs),
(241,719,o),
(84,576,o),
(84,376,cs),
(84,253,o),
(143,142,o),
(246,76,c),
(69,76,l),
(69,0,l)
);
}
);
width = 869;
}
);
unicode = 937;
},
{
glyphname = Upsilondieresis;
lastChange = "2025-10-31 11:44:26 +0000";
layers = (
{
layerId = "F6364453-91B0-4CE2-A857-F52B6F68B874";
shapes = (
{
closed = 1;
nodes = (
(454,0,l),
(454,265,l),
(720,700,l),
(503,700,l),
(358,445,l),
(214,700,l),
(-7,700,l),
(259,262,l),
(259,0,l)
);
},
{
closed = 1;
nodes = (
(293,794,o),
(332,824,o),
(332,880,cs),
(332,936,o),
(293,965,o),
(244,965,cs),
(192,965,o),
(156,933,o),
(156,880,cs),
(156,824,o),
(195,794,o),
(244,794,cs)
);
},
{
closed = 1;
nodes = (
(519,794,o),
(558,824,o),
(558,880,cs),
(558,936,o),
(519,965,o),
(470,965,cs),
(418,965,o),
(382,933,o),
(382,880,cs),
(382,824,o),
(421,794,o),
(470,794,cs)
);
}
);
width = 713;
},
{
layerId = "8AF3DB8E-7EC5-4D7D-A87A-6DF3FCB8CADF";
shapes = (
{
closed = 1;
nodes = (
(370,0,l),
(370,278,l),
(639,704,l),
(524,704,l),
(321,373,l),
(117,704,l),
(-3,704,l),
(267,277,l),
(267,0,l)
);
},
{
closed = 1;
nodes = (
(258,792,o),
(288,818,o),
(288,855,cs),
(288,891,o),
(258,918,o),
(223,918,cs),
(186,918,o),
(159,892,o),
(159,855,cs),
(159,818,o),
(186,792,o),
(223,792,cs)
);
},
{
closed = 1;
nodes = (
(458,792,o),
(483,818,o),
(483,855,cs),
(483,891,o),
(458,918,o),
(419,918,cs),
(383,918,o),
(357,890,o),
(357,855,cs),
(357,818,o),
(384,792,o),
(419,792,cs)
);
}
);
width = 636;
},
{
layerId = "F1A19D98-9E48-4F05-B6A0-CD51606DBCB8";
shapes = (
{
closed = 1;
nodes = (
(353,281,l),
(623,705,l),
(528,705,l),
(314,358,l),
(98,705,l),
(-2,705,l),
(269,280,l),
(269,3,l),
(353,0,l)
);
},
{
closed = 1;
nodes = (
(251,791,o),
(279,817,o),
(279,850,cs),
(279,882,o),
(251,909,o),
(219,909,cs),
(187,909,o),
(160,884,o),
(160,851,cs),
(160,816,o),
(184,791,o),
(219,791,cs)
);
},
{
closed = 1;
nodes = (
(444,791,o),
(468,817,o),
(468,850,cs),
(468,882,o),
(444,909,o),
(409,909,cs),
(376,909,o),
(352,883,o),
(352,851,cs),
(352,816,o),
(377,791,o),
(409,791,cs)
);
}
);
width = 621;
}
);
unicode = 939;
},
{
glyphname = KaiSymbol;
lastChange = "2025-10-31 11:44:26 +0000";
layers = (
{
layerId = "F6364453-91B0-4CE2-A857-F52B6F68B874";
shapes = (
{
closed = 1;
nodes = (
(547,-252,o),
(732,-135,o),
(732,0,c),
(458,399,l),
(723,700,l),
(493,700,l),
(252,416,l),
(252,700,l),
(58,700,l),
(58,0,l),
(252,0,l),
(252,368,l),
(523,-35,l),
(523,-64,o),
(445,-115,o),
(348,-115,cs),
(262,-115,o),
(148,-74,o),
(93,-40,c),
(93,-190,l),
(173,-230,o),
(264,-252,o),
(351,-252,cs)
);
}
);
width = 724;
},
{
layerId = "8AF3DB8E-7EC5-4D7D-A87A-6DF3FCB8CADF";
shapes = (
{
closed = 1;
nodes = (
(476,-212,o),
(595,-113,o),
(595,0,c),
(273,379,l),
(570,704,l),
(441,704,l),
(179,410,l),
(179,704,l),
(76,704,l),
(76,0,l),
(179,0,l),
(179,336,l),
(489,-27,l),
(489,-78,o),
(412,-131,o),
(316,-131,cs),
(251,-131,o),
(166,-100,o),
(103,-63,c),
(103,-163,l),
(175,-194,o),
(240,-212,o),
(315,-212,cs)
);
}
);
width = 593;
},
{
layerId = "F1A19D98-9E48-4F05-B6A0-CD51606DBCB8";
shapes = (
{
closed = 1;
nodes = (
(462,-204,o),
(567,-108,o),
(567,0,c),
(236,375,l),
(539,705,l),
(431,705,l),
(164,409,l),
(164,705,l),
(80,705,l),
(80,0,l),
(164,0,l),
(164,330,l),
(482,-25,l),
(482,-81,o),
(404,-134,o),
(310,-134,cs),
(247,-134,o),
(171,-104,o),
(105,-67,c),
(105,-157,l),
(174,-185,o),
(236,-204,o),
(308,-204,cs)
);
}
);
width = 567;
}
);
unicode = 975;
},
{
color = 1;
glyphname = alpha;
lastChange = "2025-10-31 11:44:26 +0000";
layers = (
{
anchors = (
{
name = top;
pos = (338,536);
}
);
layerId = "F6364453-91B0-4CE2-A857-F52B6F68B874";
shapes = (
{
closed = 1;
nodes = (
(347,-12,o),
(384,18,o),
(433,72,c),
(623,0,l),
(623,541,l),
(433,541,l),
(433,469,l),
(390,525,o),
(338,553,o),
(269,553,cs),
(113,553,o),
(29,413,o),
(29,270,cs),
(29,129,o),
(113,-12,o),
(269,-12,cs)
);
},
{
closed = 1;
nodes = (
(262,147,o),
(216,208,o),
(216,269,cs),
(216,334,o),
(258,394,o),
(326,394,cs),
(394,394,o),
(436,336,o),
(436,272,cs),
(436,208,o),
(394,147,o),
(326,147,cs)
);
}
);
width = 676;
},
{
anchors = (
{
name = top;
pos = (309,536);
}
);
layerId = "8AF3DB8E-7EC5-4D7D-A87A-6DF3FCB8CADF";
shapes = (
{
closed = 1;
nodes = (
(354,-11,o),
(403,26,o),
(452,85,c),
(552,0,l),
(552,492,l),
(452,492,l),
(452,409,l),
(405,469,o),
(352,504,o),
(273,504,cs),
(127,504,o),
(34,386,o),
(34,246,cs),
(34,107,o),
(129,-11,o),
(273,-11,cs)
);
},
{
closed = 1;
nodes = (
(198,74,o),
(134,155,o),
(134,246,cs),
(134,344,o),
(196,419,o),
(294,419,cs),
(389,419,o),
(457,338,o),
(457,247,cs),
(457,155,o),
(388,74,o),
(294,74,cs)
);
}
);
width = 618;
},
{
anchors = (
{
name = top;
pos = (303,536);
}
);
layerId = "F1A19D98-9E48-4F05-B6A0-CD51606DBCB8";
shapes = (
{
closed = 1;
nodes = (
(355,-11,o),
(407,27,o),
(456,87,c),
(538,0,l),
(538,482,l),
(456,482,l),
(456,397,l),
(409,458,o),
(354,494,o),
(274,494,cs),
(130,494,o),
(35,381,o),
(35,241,cs),
(35,103,o),
(133,-11,o),
(274,-11,cs)
);
},
{
closed = 1;
nodes = (
(186,59,o),
(118,145,o),
(118,241,cs),
(118,345,o),
(183,424,o),
(288,424,cs),
(388,424,o),
(461,338,o),
(461,242,cs),
(461,145,o),
(387,59,o),
(287,59,cs)
);
}
);
width = 606;
}
);
unicode = 945;
},
{
glyphname = beta;
lastChange = "2025-10-31 11:44:26 +0000";
layers = (
{
layerId = "F6364453-91B0-4CE2-A857-F52B6F68B874";
shapes = (
{
closed = 1;
nodes = (
(241,-160,l),
(241,70,l),
(276,29,o),
(327,-12,o),
(410,-12,cs),
(529,-12,o),
(628,74,o),
(628,199,cs),
(628,300,o),
(572,358,o),
(489,382,c),
(549,405,o),
(593,454,o),
(593,530,cs),
(593,646,o),
(496,737,o),
(331,737,cs),
(158,737,o),
(51,633,o),
(51,477,cs),
(51,-160,l)
);
},
{
closed = 1;
nodes = (
(288,147,o),
(241,205,o),
(241,270,cs),
(241,479,ls),
(241,542,o),
(282,576,o),
(328,576,cs),
(365,576,o),
(407,554,o),
(407,499,cs),
(407,470,o),
(398,416,o),
(326,416,c),
(326,315,l),
(410,315,o),
(442,276,o),
(442,229,cs),
(442,184,o),
(406,147,o),
(355,147,cs)
);
}
);
width = 657;
},
{
layerId = "8AF3DB8E-7EC5-4D7D-A87A-6DF3FCB8CADF";
shapes = (
{
closed = 1;
nodes = (
(164,-183,l),
(164,82,l),
(207,26,o),
(274,-10,o),
(354,-10,cs),
(473,-10,o),
(576,80,o),
(576,204,cs),
(576,304,o),
(515,379,o),
(410,390,c),
(485,423,o),
(534,471,o),
(534,551,cs),
(534,660,o),
(446,736,o),
(309,736,cs),
(144,736,o),
(64,628,o),
(64,499,cs),
(64,-183,l)
);
},
{
closed = 1;
nodes = (
(246,76,o),
(164,145,o),
(164,246,cs),
(164,498,ls),
(164,577,o),
(209,649,o),
(308,649,cs),
(380,649,o),
(434,611,o),
(434,539,cs),
(434,467,o),
(378,428,o),
(293,415,c),
(293,347,l),
(417,340,o),
(475,288,o),
(475,209,cs),
(475,132,o),
(418,76,o),
(342,76,cs)
);
}
);
width = 610;
},
{
layerId = "F1A19D98-9E48-4F05-B6A0-CD51606DBCB8";
shapes = (
{
closed = 1;
nodes = (
(149,-188,l),
(149,84,l),
(193,25,o),
(263,-10,o),
(343,-10,cs),
(462,-10,o),
(565,81,o),
(565,205,cs),
(565,303,o),
(503,384,o),
(394,392,c),
(471,427,o),
(522,474,o),
(522,555,cs),
(522,664,o),
(436,736,o),
(305,736,cs),
(140,736,o),
(67,627,o),
(67,503,cs),
(67,-188,l)
);
},
{
closed = 1;
nodes = (
(238,62,o),
(149,134,o),
(149,241,cs),
(149,502,ls),
(149,584,o),
(196,664,o),
(304,664,cs),
(383,664,o),
(439,621,o),
(439,547,cs),
(439,466,o),
(375,431,o),
(286,415,c),
(286,353,l),
(418,346,o),
(482,289,o),
(482,205,cs),
(482,121,o),
(419,62,o),
(339,62,cs)
);
}
);
width = 600;
}
);
unicode = 946;
},
{
glyphname = gamma;
lastChange = "2025-10-31 11:44:26 +0000";
layers = (
{
layerId = "F6364453-91B0-4CE2-A857-F52B6F68B874";
shapes = (
{
closed = 1;
nodes = (
(392,-160,l),
(392,19,l),
(599,541,l),
(402,541,l),
(298,225,l),
(194,541,l),
(-6,541,l),
(202,16,l),
(202,-160,l)
);
}
);
width = 594;
},
{
layerId = "8AF3DB8E-7EC5-4D7D-A87A-6DF3FCB8CADF";
shapes = (
{
closed = 1;
nodes = (
(299,-183,l),
(299,5,l),
(501,491,l),
(396,491,l),
(250,113,l),
(104,491,l),
(-4,491,l),
(199,3,l),
(199,-183,l)
);
}
);
width = 497;
},
{
layerId = "F1A19D98-9E48-4F05-B6A0-CD51606DBCB8";
shapes = (
{
closed = 1;
nodes = (
(280,-188,l),
(280,2,l),
(481,481,l),
(395,481,l),
(240,91,l),
(86,481,l),
(-4,481,l),
(198,0,l),
(198,-188,l)
);
}
);
width = 477;
}
);
unicode = 947;
},
{
glyphname = delta;
lastChange = "2025-10-31 11:44:26 +0000";
layers = (
{
layerId = "F6364453-91B0-4CE2-A857-F52B6F68B874";
shapes = (
{
closed = 1;
nodes = (
(502,-13,o),
(622,102,o),
(622,256,cs),
(622,374,o),
(565,456,o),
(464,520,cs),
(365,584,l),
(535,584,l),
(535,735,l),
(87,735,l),
(87,584,l),
(275,487,l),
(155,500,o),
(30,409,o),
(30,254,cs),
(30,110,o),
(149,-13,o),
(325,-13,cs)
);
},
{
closed = 1;
nodes = (
(260,148,o),
(215,197,o),
(215,256,cs),
(215,308,o),
(253,363,o),
(324,363,cs),
(389,363,o),
(437,318,o),
(437,254,cs),
(437,198,o),
(395,148,o),
(327,148,cs)
);
}
);
width = 652;
},
{
layerId = "8AF3DB8E-7EC5-4D7D-A87A-6DF3FCB8CADF";
shapes = (
{
closed = 1;
nodes = (
(446,-11,o),
(563,100,o),
(563,244,cs),
(563,357,o),
(491,431,o),
(413,498,cs),
(235,652,l),
(492,652,l),
(492,736,l),
(85,736,l),
(85,652,l),
(298,480,l),
(150,493,o),
(34,381,o),
(34,243,cs),
(34,99,o),
(150,-11,o),
(297,-11,cs)
);
},
{
closed = 1;
nodes = (
(198,74,o),
(134,154,o),
(134,243,cs),
(134,335,o),
(206,400,o),
(304,400,cs),
(399,400,o),
(463,333,o),
(463,242,cs),
(463,158,o),
(397,74,o),
(298,74,cs)
);
}
);
width = 596;
},
{
layerId = "F1A19D98-9E48-4F05-B6A0-CD51606DBCB8";
shapes = (
{
closed = 1;
nodes = (
(434,-10,o),
(551,101,o),
(551,241,cs),
(551,354,o),
(477,427,o),
(403,493,cs),
(209,666,l),
(483,666,l),
(483,736,l),
(85,736,l),
(85,666,l),
(303,478,l),
(148,491,o),
(35,375,o),
(35,241,cs),
(35,97,o),
(151,-10,o),
(291,-10,cs)
);
},
{
closed = 1;
nodes = (
(187,59,o),
(118,145,o),
(118,240,cs),
(118,340,o),
(197,407,o),
(300,407,cs),
(400,407,o),
(468,337,o),
(468,240,cs),
(468,149,o),
(397,59,o),
(292,59,cs)
);
}
);
width = 585;
}
);
unicode = 948;
},
{
color = 1;
glyphname = epsilon;
lastChange = "2025-10-31 11:44:26 +0000";
layers = (
{
anchors = (
{
name = top;
pos = (267,536);
}
);
layerId = "F6364453-91B0-4CE2-A857-F52B6F68B874";
shapes = (
{
closed = 1;
nodes = (
(348,-13,o),
(427,3,o),
(499,38,c),
(466,192,l),
(389,156,o),
(343,148,o),
(295,148,cs),
(277,148,o),
(215,148,o),
(215,175,cs),
(215,192,o),
(234,203,o),
(290,203,cs),
(375,203,l),
(375,340,l),
(314,340,ls),
(274,340,o),
(237,343,o),
(237,366,cs),
(237,383,o),
(265,392,o),
(300,392,cs),
(331,392,o),
(379,386,o),
(444,347,c),
(491,493,l),
(422,537,o),
(350,553,o),
(282,553,cs),
(158,553,o),
(52,506,o),
(52,399,cs),
(52,343,o),
(85,302,o),
(142,279,c),
(69,259,o),
(30,212,o),
(30,152,cs),
(30,44,o),
(151,-13,o),
(279,-13,cs)
);
}
);
width = 534;
},
{
anchors = (
{
name = top;
pos = (219,536);
}
);
layerId = "8AF3DB8E-7EC5-4D7D-A87A-6DF3FCB8CADF";
shapes = (
{
closed = 1;
nodes = (
(291,-11,o),
(343,0,o),
(394,23,c),
(374,107,l),
(323,82,o),
(282,74,o),
(247,74,cs),
(204,74,o),
(134,92,o),
(134,146,cs),
(134,185,o),
(172,220,o),
(263,220,cs),
(303,220,l),
(303,299,l),
(267,299,ls),
(196,299,o),
(155,324,o),
(155,364,cs),
(155,400,o),
(192,420,o),
(243,420,cs),
(278,420,o),
(318,412,o),
(358,385,c),
(384,471,l),
(336,492,o),
(289,504,o),
(238,504,cs),
(137,504,o),
(55,458,o),
(55,375,cs),
(55,326,o),
(85,281,o),
(149,258,c),
(76,241,o),
(34,196,o),
(34,137,cs),
(34,50,o),
(129,-11,o),
(240,-11,cs)
);
}
);
width = 437;
},
{
anchors = (
{
name = top;
pos = (209,536);
}
);
layerId = "F1A19D98-9E48-4F05-B6A0-CD51606DBCB8";
shapes = (
{
closed = 1;
nodes = (
(279,-10,o),
(326,1,o),
(373,20,c),
(355,90,l),
(310,66,o),
(268,59,o),
(237,59,cs),
(189,59,o),
(118,81,o),
(118,140,cs),
(118,183,o),
(161,223,o),
(258,223,cs),
(289,223,l),
(289,291,l),
(257,291,ls),
(181,291,o),
(138,320,o),
(138,364,cs),
(138,403,o),
(178,425,o),
(231,425,cs),
(267,425,o),
(306,416,o),
(341,393,c),
(362,466,l),
(319,483,o),
(276,494,o),
(229,494,cs),
(133,494,o),
(55,447,o),
(55,370,cs),
(55,322,o),
(86,277,o),
(150,254,c),
(77,237,o),
(35,191,o),
(35,134,cs),
(35,50,o),
(124,-10,o),
(232,-10,cs)
);
}
);
width = 418;
}
);
unicode = 949;
},
{
glyphname = zeta;
lastChange = "2025-10-31 11:44:26 +0000";
layers = (
{
layerId = "F6364453-91B0-4CE2-A857-F52B6F68B874";
shapes = (
{
closed = 1;
nodes = (
(461,-119,o),
(479,-72,o),
(479,-21,cs),
(479,54,o),
(441,104,o),
(334,131,c),
(249,154,o),
(212,189,o),
(212,253,cs),
(212,366,o),
(313,493,o),
(480,596,c),
(480,735,l),
(77,735,l),
(77,585,l),
(247,585,l),
(106,481,o),
(30,360,o),
(30,239,cs),
(30,96,o),
(122,25,o),
(245,-7,cs),
(296,-20,o),
(310,-41,o),
(310,-67,cs),
(310,-96,o),
(293,-130,o),
(278,-154,c),
(437,-167,l)
);
}
);
width = 480;
},
{
layerId = "8AF3DB8E-7EC5-4D7D-A87A-6DF3FCB8CADF";
shapes = (
{
closed = 1;
nodes = (
(401,-140,o),
(411,-109,o),
(411,-70,cs),
(411,-5,o),
(375,53,o),
(272,72,c),
(171,92,o),
(134,147,o),
(134,224,cs),
(134,374,o),
(259,542,o),
(416,641,c),
(416,736,l),
(80,736,l),
(80,653,l),
(314,653,l),
(130,524,o),
(34,371,o),
(34,220,cs),
(34,84,o),
(115,13,o),
(235,-8,c),
(304,-21,o),
(314,-52,o),
(314,-84,cs),
(314,-104,o),
(309,-131,o),
(297,-158,c),
(390,-167,l)
);
}
);
width = 416;
},
{
layerId = "F1A19D98-9E48-4F05-B6A0-CD51606DBCB8";
shapes = (
{
closed = 1;
nodes = (
(388,-144,o),
(397,-115,o),
(397,-80,cs),
(397,-15,o),
(360,43,o),
(259,60,cs),
(154,79,o),
(118,137,o),
(118,218,cs),
(118,376,o),
(247,553,o),
(403,650,c),
(403,736,l),
(80,736,l),
(80,666,l),
(327,666,l),
(135,533,o),
(35,373,o),
(35,216,cs),
(35,81,o),
(113,11,o),
(233,-8,c),
(304,-21,o),
(315,-55,o),
(315,-87,cs),
(315,-106,o),
(312,-131,o),
(301,-159,c),
(381,-167,l)
);
}
);
width = 403;
}
);
unicode = 950;
},
{
color = 1;
glyphname = eta;
lastChange = "2025-10-31 11:44:26 +0000";
layers = (
{
anchors = (
{
name = top;
pos = (318,536);
}
);
layerId = "F6364453-91B0-4CE2-A857-F52B6F68B874";
shapes = (
{
closed = 1;
nodes = (
(241,0,l),
(241,293,ls),
(241,352,o),
(278,384,o),
(321,384,cs),
(364,384,o),
(397,352,o),
(397,293,cs),
(397,0,l),
(587,0,l),
(587,354,ls),
(587,467,o),
(517,553,o),
(403,553,cs),
(326,553,o),
(276,510,o),
(241,465,c),
(51,541,l),
(51,0,l)
);
}
);
width = 635;
},
{
anchors = (
{
name = top;
pos = (279,536);
}
);
layerId = "8AF3DB8E-7EC5-4D7D-A87A-6DF3FCB8CADF";
shapes = (
{
closed = 1;
nodes = (
(164,0,l),
(164,282,ls),
(164,383,o),
(235,415,o),
(288,415,cs),
(342,415,o),
(399,382,o),
(399,282,cs),
(399,0,l),
(499,0,l),
(499,312,ls),
(499,428,o),
(438,503,o),
(323,503,cs),
(254,503,o),
(202,472,o),
(166,428,c),
(64,492,l),
(64,0,l)
);
}
);
width = 558;
},
{
anchors = (
{
name = top;
pos = (271,536);
}
);
layerId = "F1A19D98-9E48-4F05-B6A0-CD51606DBCB8";
shapes = (
{
closed = 1;
nodes = (
(149,0,l),
(149,280,ls),
(149,390,o),
(226,421,o),
(281,421,cs),
(338,421,o),
(399,388,o),
(399,280,cs),
(399,0,l),
(481,0,l),
(481,303,ls),
(481,418,o),
(421,493,o),
(307,493,cs),
(238,493,o),
(187,464,o),
(151,421,c),
(67,482,l),
(67,0,l)
);
}
);
width = 542;
}
);
unicode = 951;
},
{
glyphname = theta;
lastChange = "2025-10-31 11:44:26 +0000";
layers = (
{
layerId = "F6364453-91B0-4CE2-A857-F52B6F68B874";
shapes = (
{
closed = 1;
nodes = (
(531,-13,o),
(603,187,o),
(603,367,cs),
(603,545,o),
(527,737,o),
(320,737,cs),
(140,737,o),
(33,588,o),
(33,361,cs),
(33,183,o),
(108,-13,o),
(318,-13,cs)
);
},
{
closed = 1;
nodes = (
(248,148,o),
(230,239,o),
(222,290,c),
(414,290,l),
(409,237,o),
(384,148,o),
(316,148,cs)
);
},
{
closed = 1;
nodes = (
(231,493,o),
(251,576,o),
(318,576,cs),
(385,576,o),
(405,492,o),
(413,441,c),
(223,441,l)
);
}
);
width = 636;
},
{
layerId = "8AF3DB8E-7EC5-4D7D-A87A-6DF3FCB8CADF";
shapes = (
{
closed = 1;
nodes = (
(505,-11,o),
(562,200,o),
(562,367,cs),
(562,533,o),
(494,736,o),
(300,736,cs),
(103,736,o),
(37,536,o),
(37,357,cs),
(37,194,o),
(101,-11,o),
(299,-11,cs)
);
},
{
closed = 1;
nodes = (
(213,74,o),
(148,172,o),
(140,335,c),
(460,335,l),
(457,240,o),
(423,74,o),
(299,74,cs)
);
},
{
closed = 1;
nodes = (
(145,506,o),
(184,652,o),
(299,652,cs),
(413,652,o),
(455,508,o),
(460,417,c),
(140,417,l)
);
}
);
width = 599;
},
{
layerId = "F1A19D98-9E48-4F05-B6A0-CD51606DBCB8";
shapes = (
{
closed = 1;
nodes = (
(499,-10,o),
(554,202,o),
(554,367,cs),
(554,531,o),
(490,736,o),
(296,736,cs),
(96,736,o),
(38,525,o),
(38,356,cs),
(38,196,o),
(99,-10,o),
(295,-10,cs)
);
},
{
closed = 1;
nodes = (
(207,59,o),
(131,158,o),
(123,344,c),
(469,344,l),
(466,241,o),
(431,59,o),
(296,59,cs)
);
},
{
closed = 1;
nodes = (
(128,509,o),
(171,667,o),
(295,667,cs),
(419,667,o),
(464,511,o),
(469,412,c),
(123,412,l)
);
}
);
width = 592;
}
);
unicode = 952;
},
{
color = 1;
glyphname = iota;
lastChange = "2025-10-31 11:44:26 +0000";
layers = (
{
anchors = (
{
name = top;
pos = (145,536);
}
);
layerId = "F6364453-91B0-4CE2-A857-F52B6F68B874";
shapes = (
{
closed = 1;
nodes = (
(241,0,l),
(241,541,l),
(51,541,l),
(51,0,l)
);
}
);
width = 289;
},
{
anchors = (
{
name = top;
pos = (112,536);
}
);
layerId = "8AF3DB8E-7EC5-4D7D-A87A-6DF3FCB8CADF";
shapes = (
{
closed = 1;
nodes = (
(164,0,l),
(164,492,l),
(64,492,l),
(64,0,l)
);
}
);
width = 224;
},
{
anchors = (
{
name = top;
pos = (104,536);
}
);
layerId = "F1A19D98-9E48-4F05-B6A0-CD51606DBCB8";
shapes = (
{
closed = 1;
nodes = (
(148,0,l),
(148,482,l),
(67,482,l),
(67,0,l)
);
}
);
width = 208;
}
);
unicode = 953;
},
{
glyphname = kappa;
lastChange = "2025-10-31 11:44:26 +0000";
layers = (
{
layerId = "F6364453-91B0-4CE2-A857-F52B6F68B874";
shapes = (
{
closed = 1;
nodes = (
(241,0,l),
(241,283,l),
(399,0,l),
(608,0,l),
(415,324,l),
(603,541,l),
(388,541,l),
(241,360,l),
(241,541,l),
(51,541,l),
(51,0,l)
);
}
);
width = 609;
},
{
layerId = "8AF3DB8E-7EC5-4D7D-A87A-6DF3FCB8CADF";
shapes = (
{
closed = 1;
nodes = (
(164,0,l),
(164,227,l),
(355,0,l),
(474,0,l),
(252,266,l),
(466,492,l),
(342,492,l),
(164,294,l),
(164,492,l),
(64,492,l),
(64,0,l)
);
}
);
width = 480;
},
{
layerId = "F1A19D98-9E48-4F05-B6A0-CD51606DBCB8";
shapes = (
{
closed = 1;
nodes = (
(149,0,l),
(149,216,l),
(346,0,l),
(447,0,l),
(219,254,l),
(438,482,l),
(333,482,l),
(149,281,l),
(149,482,l),
(67,482,l),
(67,0,l)
);
}
);
width = 454;
}
);
unicode = 954;
},
{
glyphname = lambda;
lastChange = "2025-10-31 11:44:26 +0000";
layers = (
{
layerId = "F6364453-91B0-4CE2-A857-F52B6F68B874";
shapes = (
{
closed = 1;
nodes = (
(195,0,l),
(303,326,l),
(405,0,l),
(600,0,l),
(402,528,l),
(362,633,o),
(322,737,o),
(189,737,cs),
(129,737,o),
(72,718,o),
(21,690,c),
(60,546,l),
(89,565,o),
(122,586,o),
(158,586,cs),
(189,586,o),
(208,562,o),
(208,532,c),
(208,531,l),
(-4,0,l)
);
}
);
width = 596;
},
{
layerId = "8AF3DB8E-7EC5-4D7D-A87A-6DF3FCB8CADF";
shapes = (
{
closed = 1;
nodes = (
(112,0,l),
(253,397,l),
(408,0,l),
(513,0,l),
(266,593,ls),
(237,661,o),
(206,736,o),
(120,736,cs),
(91,736,o),
(64,730,o),
(36,722,c),
(59,642,l),
(75,651,o),
(92,659,o),
(111,659,cs),
(147,659,o),
(194,535,o),
(202,513,c),
(202,512,l),
(4,0,l)
);
}
);
width = 510;
},
{
layerId = "F1A19D98-9E48-4F05-B6A0-CD51606DBCB8";
shapes = (
{
closed = 1;
nodes = (
(95,0,l),
(243,411,l),
(409,0,l),
(495,0,l),
(239,606,ls),
(212,667,o),
(182,736,o),
(106,736,cs),
(83,736,o),
(62,732,o),
(39,728,c),
(59,661,l),
(72,668,o),
(86,673,o),
(101,673,cs),
(138,673,o),
(190,530,o),
(201,509,c),
(201,508,l),
(6,0,l)
);
}
);
width = 493;
}
);
unicode = 955;
},
{
glyphname = mu;
lastChange = "2025-10-31 11:44:26 +0000";
layers = (
{
layerId = "F6364453-91B0-4CE2-A857-F52B6F68B874";
shapes = (
{
closed = 1;
nodes = (
(237,-160,l),
(237,36,l),
(248,11,o),
(274,-12,o),
(307,-12,cs),
(342,-12,o),
(372,14,o),
(393,74,c),
(583,0,l),
(583,541,l),
(393,541,l),
(393,248,ls),
(393,189,o),
(359,157,o),
(314,157,cs),
(268,157,o),
(237,189,o),
(237,248,cs),
(237,541,l),
(47,541,l),
(47,-160,l)
);
}
);
width = 634;
},
{
layerId = "8AF3DB8E-7EC5-4D7D-A87A-6DF3FCB8CADF";
shapes = (
{
closed = 1;
nodes = (
(169,-183,l),
(169,59,l),
(192,12,o),
(232,-10,o),
(277,-10,cs),
(330,-10,o),
(375,21,o),
(402,64,c),
(503,0,l),
(503,493,l),
(403,493,l),
(403,211,ls),
(403,121,o),
(346,77,o),
(278,77,cs),
(225,77,o),
(169,116,o),
(169,211,cs),
(169,493,l),
(69,493,l),
(69,-183,l)
);
}
);
width = 576;
},
{
layerId = "F1A19D98-9E48-4F05-B6A0-CD51606DBCB8";
shapes = (
{
closed = 1;
nodes = (
(155,-188,l),
(155,64,l),
(180,13,o),
(224,-10,o),
(271,-10,cs),
(327,-10,o),
(376,22,o),
(404,62,c),
(487,0,l),
(487,483,l),
(405,483,l),
(405,204,ls),
(405,107,o),
(344,61,o),
(271,61,cs),
(216,61,o),
(155,101,o),
(155,204,cs),
(155,483,l),
(73,483,l),
(73,-188,l)
);
}
);
width = 564;
}
);
unicode = 956;
},
{
glyphname = nu;
lastChange = "2025-10-31 11:44:26 +0000";
layers = (
{
layerId = "F6364453-91B0-4CE2-A857-F52B6F68B874";
shapes = (
{
closed = 1;
nodes = (
(383,-4,l),
(599,541,l),
(402,541,l),
(298,225,l),
(194,541,l),
(-6,541,l),
(210,-4,l)
);
}
);
width = 595;
},
{
layerId = "8AF3DB8E-7EC5-4D7D-A87A-6DF3FCB8CADF";
shapes = (
{
closed = 1;
nodes = (
(301,-1,l),
(506,491,l),
(401,491,l),
(255,113,l),
(109,491,l),
(1,491,l),
(205,-1,l)
);
}
);
width = 506;
},
{
layerId = "F1A19D98-9E48-4F05-B6A0-CD51606DBCB8";
shapes = (
{
closed = 1;
nodes = (
(285,0,l),
(487,481,l),
(401,481,l),
(246,91,l),
(92,481,l),
(2,481,l),
(204,0,l)
);
}
);
width = 488;
}
);
unicode = 957;
},
{
glyphname = xi;
lastChange = "2025-10-31 11:44:26 +0000";
layers = (
{
layerId = "F6364453-91B0-4CE2-A857-F52B6F68B874";
shapes = (
{
closed = 1;
nodes = (
(443,-119,o),
(461,-76,o),
(461,-24,cs),
(461,30,o),
(440,106,o),
(323,130,cs),
(251,145,o),
(213,175,o),
(213,216,cs),
(213,284,o),
(295,297,o),
(412,297,c),
(412,449,l),
(303,449,o),
(262,481,o),
(262,514,cs),
(262,571,o),
(349,576,o),
(466,576,c),
(466,735,l),
(60,735,l),
(60,583,l),
(149,583,l),
(112,564,o),
(79,535,o),
(79,490,cs),
(79,433,o),
(132,400,o),
(199,376,c),
(90,349,o),
(30,278,o),
(30,191,cs),
(30,77,o),
(116,10,o),
(218,-10,cs),
(288,-23,o),
(292,-57,o),
(292,-71,cs),
(292,-99,o),
(276,-130,o),
(261,-154,c),
(419,-167,l)
);
}
);
width = 475;
},
{
layerId = "8AF3DB8E-7EC5-4D7D-A87A-6DF3FCB8CADF";
shapes = (
{
closed = 1;
nodes = (
(397,-140,o),
(406,-107,o),
(406,-68,cs),
(406,-9,o),
(378,50,o),
(265,72,cs),
(181,88,o),
(134,131,o),
(134,204,cs),
(134,305,o),
(217,338,o),
(340,338,c),
(340,421,l),
(225,421,o),
(180,461,o),
(180,524,cs),
(180,628,o),
(300,649,o),
(404,649,c),
(404,736,l),
(67,736,l),
(67,652,l),
(191,652,l),
(118,629,o),
(80,578,o),
(80,518,cs),
(80,457,o),
(120,407,o),
(187,380,c),
(99,361,o),
(34,285,o),
(34,192,cs),
(34,77,o),
(126,10,o),
(229,-8,cs),
(307,-21,o),
(310,-66,o),
(310,-87,cs),
(310,-108,o),
(304,-131,o),
(293,-158,c),
(386,-167,l)
);
}
);
width = 417;
},
{
layerId = "F1A19D98-9E48-4F05-B6A0-CD51606DBCB8";
shapes = (
{
closed = 1;
nodes = (
(386,-144,o),
(395,-112,o),
(395,-77,cs),
(395,-17,o),
(365,38,o),
(253,60,cs),
(168,76,o),
(118,122,o),
(118,202,cs),
(118,309,o),
(201,346,o),
(326,346,c),
(326,415,l),
(209,415,o),
(163,457,o),
(163,526,cs),
(163,640,o),
(290,663,o),
(391,663,c),
(391,736,l),
(68,736,l),
(68,666,l),
(199,666,l),
(119,643,o),
(80,587,o),
(80,523,cs),
(80,460,o),
(117,408,o),
(185,381,c),
(101,365,o),
(35,285,o),
(35,192,cs),
(35,76,o),
(127,9,o),
(231,-8,cs),
(311,-21,o),
(313,-66,o),
(313,-90,cs),
(313,-110,o),
(310,-131,o),
(299,-159,c),
(379,-167,l)
);
}
);
width = 405;
}
);
unicode = 958;
},
{
color = 1;
glyphname = omicron;
lastChange = "2025-10-31 11:44:26 +0000";
layers = (
{
anchors = (
{
name = top;
pos = (329,536);
}
);
layerId = "F6364453-91B0-4CE2-A857-F52B6F68B874";
shapes = (
{
closed = 1;
nodes = (
(491,-13,o),
(628,108,o),
(628,272,cs),
(628,427,o),
(503,553,o),
(330,553,cs),
(157,553,o),
(30,425,o),
(30,270,cs),
(30,115,o),
(155,-13,o),
(328,-13,cs)
);
},
{
closed = 1;
nodes = (
(263,148,o),
(215,205,o),
(215,272,cs),
(215,337,o),
(259,392,o),
(328,392,cs),
(395,392,o),
(443,334,o),
(443,270,cs),
(443,205,o),
(399,148,o),
(330,148,cs)
);
}
);
width = 657;
},
{
anchors = (
{
name = top;
pos = (299,536);
}
);
layerId = "8AF3DB8E-7EC5-4D7D-A87A-6DF3FCB8CADF";
shapes = (
{
closed = 1;
nodes = (
(445,-11,o),
(564,100,o),
(564,247,cs),
(564,390,o),
(451,504,o),
(298,504,cs),
(145,504,o),
(34,389,o),
(34,245,cs),
(34,102,o),
(145,-11,o),
(297,-11,cs)
);
},
{
closed = 1;
nodes = (
(205,74,o),
(134,149,o),
(134,247,cs),
(134,343,o),
(198,420,o),
(297,420,cs),
(396,420,o),
(464,340,o),
(464,246,cs),
(464,154,o),
(394,74,o),
(298,74,cs)
);
}
);
width = 598;
},
{
anchors = (
{
name = top;
pos = (293,536);
}
);
layerId = "F1A19D98-9E48-4F05-B6A0-CD51606DBCB8";
shapes = (
{
closed = 1;
nodes = (
(437,-10,o),
(551,98,o),
(551,242,cs),
(551,383,o),
(441,494,o),
(292,494,cs),
(143,494,o),
(35,382,o),
(35,240,cs),
(35,99,o),
(143,-10,o),
(291,-10,cs)
);
},
{
closed = 1;
nodes = (
(193,59,o),
(118,138,o),
(118,242,cs),
(118,343,o),
(187,425,o),
(291,425,cs),
(396,425,o),
(468,341,o),
(468,241,cs),
(468,142,o),
(394,59,o),
(292,59,cs)
);
}
);
width = 586;
}
);
unicode = 959;
},
{
glyphname = pi;
lastChange = "2025-10-31 11:44:26 +0000";
layers = (
{
layerId = "F6364453-91B0-4CE2-A857-F52B6F68B874";
shapes = (
{
closed = 1;
nodes = (
(241,0,l),
(241,390,l),
(387,390,l),
(387,0,l),
(577,0,l),
(577,541,l),
(51,541,l),
(51,0,l)
);
}
);
width = 625;
},
{
layerId = "8AF3DB8E-7EC5-4D7D-A87A-6DF3FCB8CADF";
shapes = (
{
closed = 1;
nodes = (
(164,0,l),
(164,410,l),
(389,410,l),
(389,0,l),
(489,0,l),
(489,492,l),
(64,492,l),
(64,0,l)
);
}
);
width = 548;
},
{
layerId = "F1A19D98-9E48-4F05-B6A0-CD51606DBCB8";
shapes = (
{
closed = 1;
nodes = (
(149,0,l),
(149,414,l),
(389,414,l),
(389,0,l),
(471,0,l),
(471,482,l),
(67,482,l),
(67,0,l)
);
}
);
width = 532;
}
);
unicode = 960;
},
{
glyphname = rho;
lastChange = "2025-10-31 11:44:26 +0000";
layers = (
{
layerId = "F6364453-91B0-4CE2-A857-F52B6F68B874";
shapes = (
{
closed = 1;
nodes = (
(238,-160,l),
(238,66,l),
(285,10,o),
(337,-12,o),
(402,-12,cs),
(559,-12,o),
(642,130,o),
(642,271,cs),
(642,443,o),
(511,553,o),
(345,553,cs),
(177,553,o),
(48,446,o),
(48,271,cs),
(48,-160,l)
);
},
{
closed = 1;
nodes = (
(279,147,o),
(235,203,o),
(235,270,cs),
(235,343,o),
(284,394,o),
(344,394,cs),
(411,394,o),
(455,338,o),
(455,272,cs),
(455,207,o),
(415,147,o),
(344,147,cs)
);
}
);
width = 671;
},
{
layerId = "8AF3DB8E-7EC5-4D7D-A87A-6DF3FCB8CADF";
shapes = (
{
closed = 1;
nodes = (
(159,-183,l),
(159,81,l),
(203,21,o),
(263,-10,o),
(339,-10,cs),
(486,-10,o),
(579,108,o),
(579,247,cs),
(579,400,o),
(468,504,o),
(320,504,cs),
(170,504,o),
(59,399,o),
(59,247,cs),
(59,-183,l)
);
},
{
closed = 1;
nodes = (
(226,74,o),
(155,145,o),
(155,241,cs),
(155,343,o),
(225,417,o),
(317,417,cs),
(414,417,o),
(479,340,o),
(479,247,cs),
(479,156,o),
(420,74,o),
(321,74,cs)
);
}
);
width = 612;
},
{
layerId = "F1A19D98-9E48-4F05-B6A0-CD51606DBCB8";
shapes = (
{
closed = 1;
nodes = (
(143,-188,l),
(143,84,l),
(187,24,o),
(249,-10,o),
(326,-10,cs),
(471,-10,o),
(566,104,o),
(566,242,cs),
(566,391,o),
(459,494,o),
(315,494,cs),
(168,494,o),
(61,390,o),
(61,242,cs),
(61,-188,l)
);
},
{
closed = 1;
nodes = (
(215,59,o),
(139,133,o),
(139,235,cs),
(139,343,o),
(213,422,o),
(312,422,cs),
(415,422,o),
(484,342,o),
(484,242,cs),
(484,144,o),
(422,59,o),
(316,59,cs)
);
}
);
width = 600;
}
);
unicode = 961;
},
{
glyphname = sigmafinal;
lastChange = "2025-10-31 11:44:26 +0000";
layers = (
{
layerId = "F6364453-91B0-4CE2-A857-F52B6F68B874";
shapes = (
{
closed = 1;
nodes = (
(432,-120,o),
(461,-77,o),
(461,-24,cs),
(461,38,o),
(415,90,o),
(332,130,cs),
(293,148,o),
(213,195,o),
(213,282,cs),
(213,341,o),
(255,392,o),
(315,392,cs),
(358,392,o),
(395,371,o),
(419,336,c),
(513,461,l),
(461,522,o),
(381,552,o),
(301,552,cs),
(136,552,o),
(30,420,o),
(30,263,cs),
(30,111,o),
(113,37,o),
(208,-5,cs),
(244,-21,o),
(291,-41,o),
(291,-81,cs),
(291,-112,o),
(269,-137,o),
(246,-154,c),
(409,-167,l)
);
}
);
width = 553;
},
{
layerId = "8AF3DB8E-7EC5-4D7D-A87A-6DF3FCB8CADF";
shapes = (
{
closed = 1;
nodes = (
(410,-136,o),
(419,-106,o),
(419,-71,cs),
(419,5,o),
(365,43,o),
(294,69,cs),
(211,101,o),
(147,149,o),
(147,253,cs),
(147,336,o),
(195,418,o),
(286,418,cs),
(323,418,o),
(369,407,o),
(401,388,c),
(426,464,l),
(383,491,o),
(336,502,o),
(285,502,cs),
(141,502,o),
(48,393,o),
(48,251,cs),
(48,125,o),
(116,36,o),
(229,-4,cs),
(290,-25,o),
(323,-43,o),
(323,-79,cs),
(323,-107,o),
(315,-133,o),
(304,-158,c),
(397,-167,l)
);
}
);
width = 501;
},
{
layerId = "F1A19D98-9E48-4F05-B6A0-CD51606DBCB8";
shapes = (
{
closed = 1;
nodes = (
(406,-140,o),
(411,-111,o),
(411,-80,cs),
(411,1,o),
(354,31,o),
(286,57,cs),
(193,92,o),
(134,140,o),
(134,247,cs),
(134,335,o),
(183,423,o),
(280,423,cs),
(316,423,o),
(364,413,o),
(397,398,c),
(408,465,l),
(369,484,o),
(326,492,o),
(282,492,cs),
(142,492,o),
(51,388,o),
(51,249,cs),
(51,129,o),
(117,36,o),
(233,-4,c),
(299,-25,o),
(329,-43,o),
(329,-79,cs),
(329,-106,o),
(324,-132,o),
(315,-159,c),
(395,-167,l)
);
}
);
width = 491;
}
);
unicode = 962;
},
{
glyphname = sigma;
lastChange = "2025-10-31 11:44:26 +0000";
layers = (
{
layerId = "F6364453-91B0-4CE2-A857-F52B6F68B874";
shapes = (
{
closed = 1;
nodes = (
(480,-13,o),
(628,85,o),
(628,248,cs),
(628,316,o),
(594,361,o),
(549,388,c),
(695,388,l),
(695,541,l),
(330,541,ls),
(153,541,o),
(30,421,o),
(30,264,cs),
(30,109,o),
(152,-13,o),
(328,-13,cs)
);
},
{
closed = 1;
nodes = (
(260,148,o),
(215,206,o),
(215,266,cs),
(215,335,o),
(259,380,o),
(328,380,cs),
(398,380,o),
(443,333,o),
(443,264,cs),
(443,199,o),
(398,148,o),
(330,148,cs)
);
}
);
width = 704;
},
{
layerId = "8AF3DB8E-7EC5-4D7D-A87A-6DF3FCB8CADF";
shapes = (
{
closed = 1;
nodes = (
(433,-11,o),
(564,98,o),
(564,238,cs),
(564,302,o),
(537,368,o),
(472,408,c),
(615,408,l),
(615,492,l),
(316,492,ls),
(137,492,o),
(34,368,o),
(34,239,cs),
(34,103,o),
(145,-11,o),
(297,-11,cs)
);
},
{
closed = 1;
nodes = (
(205,74,o),
(134,154,o),
(134,241,cs),
(134,333,o),
(199,408,o),
(300,408,cs),
(400,408,o),
(464,338,o),
(464,240,cs),
(464,148,o),
(393,74,o),
(298,74,cs)
);
}
);
width = 629;
},
{
layerId = "F1A19D98-9E48-4F05-B6A0-CD51606DBCB8";
shapes = (
{
closed = 1;
nodes = (
(423,-10,o),
(551,100,o),
(551,236,cs),
(551,300,o),
(525,369,o),
(457,412,c),
(599,412,l),
(600,482,l),
(313,482,ls),
(135,482,o),
(35,357,o),
(35,234,cs),
(35,102,o),
(143,-10,o),
(291,-10,cs)
);
},
{
closed = 1;
nodes = (
(193,59,o),
(118,143,o),
(118,236,cs),
(118,332,o),
(187,413,o),
(294,413,cs),
(400,413,o),
(468,339,o),
(468,235,cs),
(468,137,o),
(393,59,o),
(292,59,cs)
);
}
);
width = 614;
}
);
unicode = 963;
},
{
glyphname = tau;
lastChange = "2025-10-31 11:44:26 +0000";
layers = (
{
layerId = "F6364453-91B0-4CE2-A857-F52B6F68B874";
shapes = (
{
closed = 1;
nodes = (
(371,-11,o),
(415,1,o),
(450,20,c),
(450,169,l),
(427,158,o),
(401,151,o),
(378,151,cs),
(343,151,o),
(326,166,o),
(326,205,cs),
(326,388,l),
(452,388,l),
(452,541,l),
(10,541,l),
(10,388,l),
(136,388,l),
(136,168,ls),
(136,39,o),
(205,-11,o),
(318,-11,cs)
);
}
);
width = 462;
},
{
layerId = "8AF3DB8E-7EC5-4D7D-A87A-6DF3FCB8CADF";
shapes = (
{
closed = 1;
nodes = (
(292,-11,o),
(311,-6,o),
(330,3,c),
(330,86,l),
(319,78,o),
(304,74,o),
(289,74,cs),
(253,74,o),
(240,98,o),
(240,137,cs),
(240,408,l),
(372,408,l),
(372,492,l),
(14,492,l),
(14,408,l),
(142,408,l),
(142,128,ls),
(142,39,o),
(192,-11,o),
(267,-11,cs)
);
}
);
width = 386;
},
{
layerId = "F1A19D98-9E48-4F05-B6A0-CD51606DBCB8";
shapes = (
{
closed = 1;
nodes = (
(276,-11,o),
(291,-7,o),
(306,0,c),
(306,69,l),
(297,62,o),
(283,59,o),
(271,59,cs),
(235,59,o),
(223,86,o),
(223,123,cs),
(223,412,l),
(356,412,l),
(356,482,l),
(15,482,l),
(15,412,l),
(143,412,l),
(143,120,ls),
(143,39,o),
(189,-11,o),
(257,-11,cs)
);
}
);
width = 371;
}
);
unicode = 964;
},
{
color = 1;
glyphname = upsilon;
lastChange = "2025-10-31 11:44:26 +0000";
layers = (
{
anchors = (
{
name = top;
pos = (316,536);
}
);
layerId = "F6364453-91B0-4CE2-A857-F52B6F68B874";
shapes = (
{
closed = 1;
nodes = (
(476,-12,o),
(584,65,o),
(584,241,cs),
(584,541,l),
(394,541,l),
(394,245,ls),
(394,193,o),
(370,150,o),
(315,150,cs),
(259,150,o),
(238,193,o),
(238,245,cs),
(238,541,l),
(48,541,l),
(48,237,ls),
(48,68,o),
(150,-12,o),
(315,-12,cs)
);
}
);
width = 631;
},
{
anchors = (
{
name = top;
pos = (276,536);
}
);
layerId = "8AF3DB8E-7EC5-4D7D-A87A-6DF3FCB8CADF";
shapes = (
{
closed = 1;
nodes = (
(423,-11,o),
(493,76,o),
(493,224,cs),
(493,493,l),
(393,493,l),
(393,202,ls),
(393,133,o),
(349,76,o),
(276,76,cs),
(196,76,o),
(159,131,o),
(159,203,cs),
(159,493,l),
(59,493,l),
(59,221,ls),
(59,70,o),
(130,-11,o),
(278,-11,cs)
);
}
);
width = 551;
},
{
anchors = (
{
name = top;
pos = (268,536);
}
);
layerId = "F1A19D98-9E48-4F05-B6A0-CD51606DBCB8";
shapes = (
{
closed = 1;
nodes = (
(412,-11,o),
(475,77,o),
(475,220,cs),
(475,483,l),
(393,483,l),
(393,193,ls),
(393,121,o),
(345,61,o),
(268,61,cs),
(184,61,o),
(143,119,o),
(143,195,cs),
(143,483,l),
(61,483,l),
(61,218,ls),
(61,70,o),
(126,-11,o),
(270,-11,cs)
);
}
);
width = 535;
}
);
unicode = 965;
},
{
glyphname = phi;
lastChange = "2025-10-31 11:44:26 +0000";
layers = (
{
layerId = "F6364453-91B0-4CE2-A857-F52B6F68B874";
shapes = (
{
closed = 1;
nodes = (
(529,-160,l),
(529,-3,l),
(721,5,o),
(854,155,o),
(854,303,cs),
(854,440,o),
(762,555,o),
(589,555,cs),
(404,555,o),
(346,431,o),
(346,271,cs),
(346,144,l),
(234,144,o),
(210,228,o),
(210,328,cs),
(210,389,o),
(238,455,o),
(315,555,c),
(137,555,l),
(61,467,o),
(33,382,o),
(33,306,cs),
(33,116,o),
(170,10,o),
(346,-3,c),
(346,-160,l)
);
},
{
closed = 1;
nodes = (
(529,295,l),
(534,354,o),
(552,395,o),
(604,395,cs),
(668,395,o),
(680,331,o),
(675,280,cs),
(664,188,o),
(621,144,o),
(529,144,c)
);
}
);
width = 883;
},
{
layerId = "8AF3DB8E-7EC5-4D7D-A87A-6DF3FCB8CADF";
shapes = (
{
closed = 1;
nodes = (
(421,-180,l),
(421,-8,l),
(593,3,o),
(707,105,o),
(707,277,cs),
(707,418,o),
(636,511,o),
(508,511,cs),
(332,511,o),
(321,357,o),
(321,221,cs),
(321,74,l),
(205,82,o),
(136,160,o),
(136,277,cs),
(136,350,o),
(171,428,o),
(258,509,c),
(150,509,l),
(79,449,o),
(37,362,o),
(37,269,cs),
(37,98,o),
(162,2,o),
(321,-9,c),
(321,-180,l)
);
},
{
closed = 1;
nodes = (
(421,263,ls),
(421,388,o),
(460,426,o),
(507,426,cs),
(585,426,o),
(608,336,o),
(608,273,c),
(607,146,o),
(544,84,o),
(421,75,c)
);
}
);
width = 741;
},
{
layerId = "F1A19D98-9E48-4F05-B6A0-CD51606DBCB8";
shapes = (
{
closed = 1;
nodes = (
(399,-184,l),
(399,-9,l),
(566,2,o),
(678,94,o),
(678,272,cs),
(678,413,o),
(609,502,o),
(492,502,cs),
(317,502,o),
(316,342,o),
(316,211,cs),
(316,60,l),
(200,68,o),
(121,146,o),
(121,267,cs),
(121,342,o),
(157,421,o),
(246,500,c),
(152,500,l),
(84,447,o),
(38,358,o),
(38,262,cs),
(38,94,o),
(160,1,o),
(316,-10,c),
(316,-184,l)
);
},
{
closed = 1;
nodes = (
(399,256,ls),
(399,395,o),
(441,432,o),
(488,432,cs),
(568,432,o),
(595,337,o),
(595,271,cs),
(595,138,o),
(528,72,o),
(399,61,c)
);
}
);
width = 712;
}
);
unicode = 966;
},
{
glyphname = chi;
lastChange = "2025-10-31 11:44:26 +0000";
layers = (
{
layerId = "F6364453-91B0-4CE2-A857-F52B6F68B874";
shapes = (
{
closed = 1;
nodes = (
(201,-160,l),
(286,20,l),
(369,-160,l),
(574,-160,l),
(388,201,l),
(570,541,l),
(369,541,l),
(289,368,l),
(209,541,l),
(4,541,l),
(186,198,l),
(1,-160,l)
);
}
);
width = 575;
},
{
layerId = "8AF3DB8E-7EC5-4D7D-A87A-6DF3FCB8CADF";
shapes = (
{
closed = 1;
nodes = (
(114,-183,l),
(251,81,l),
(387,-183,l),
(500,-183,l),
(306,180,l),
(488,491,l),
(379,491,l),
(254,271,l),
(130,491,l),
(17,491,l),
(199,176,l),
(6,-183,l)
);
}
);
width = 505;
},
{
layerId = "F1A19D98-9E48-4F05-B6A0-CD51606DBCB8";
shapes = (
{
closed = 1;
nodes = (
(97,-188,l),
(244,93,l),
(391,-188,l),
(485,-188,l),
(289,176,l),
(471,481,l),
(381,481,l),
(247,252,l),
(114,481,l),
(20,481,l),
(202,171,l),
(7,-188,l)
);
}
);
width = 491;
}
);
unicode = 967;
},
{
glyphname = psi;
lastChange = "2025-10-31 11:44:26 +0000";
layers = (
{
layerId = "F6364453-91B0-4CE2-A857-F52B6F68B874";
shapes = (
{
closed = 1;
nodes = (
(544,-160,l),
(544,-12,l),
(708,-12,o),
(854,65,o),
(854,241,cs),
(854,541,l),
(664,541,l),
(664,241,ls),
(664,182,o),
(620,150,o),
(544,150,c),
(544,730,l),
(354,730,l),
(354,150,l),
(278,150,o),
(238,182,o),
(238,241,cs),
(238,541,l),
(48,541,l),
(48,237,ls),
(48,62,o),
(197,-12,o),
(354,-12,c),
(354,-160,l)
);
}
);
width = 902;
},
{
layerId = "8AF3DB8E-7EC5-4D7D-A87A-6DF3FCB8CADF";
shapes = (
{
closed = 1;
nodes = (
(417,-183,l),
(417,-10,l),
(555,-10,o),
(672,57,o),
(672,235,cs),
(672,493,l),
(572,493,l),
(572,234,ls),
(572,114,o),
(486,76,o),
(417,76,c),
(417,732,l),
(316,732,l),
(316,76,l),
(241,76,o),
(159,104,o),
(159,236,cs),
(159,493,l),
(59,493,l),
(59,233,ls),
(59,73,o),
(161,-10,o),
(317,-10,c),
(317,-183,l)
);
}
);
width = 730;
},
{
layerId = "F1A19D98-9E48-4F05-B6A0-CD51606DBCB8";
shapes = (
{
closed = 1;
nodes = (
(391,-188,l),
(391,-10,l),
(524,-10,o),
(636,55,o),
(636,234,cs),
(636,483,l),
(554,483,l),
(554,233,ls),
(554,100,o),
(459,61,o),
(391,61,c),
(391,732,l),
(308,732,l),
(308,61,l),
(235,61,o),
(143,87,o),
(143,235,cs),
(143,483,l),
(61,483,l),
(61,232,ls),
(61,75,o),
(154,-10,o),
(309,-10,c),
(309,-188,l)
);
}
);
width = 696;
}
);
unicode = 968;
},
{
color = 1;
glyphname = omega;
lastChange = "2025-10-31 11:44:26 +0000";
layers = (
{
anchors = (
{
name = bottom;
pos = (460,0);
},
{
name = top;
pos = (460,536);
}
);
layerId = "F6364453-91B0-4CE2-A857-F52B6F68B874";
shapes = (
{
closed = 1;
nodes = (
(363,-13,o),
(413,9,o),
(460,66,c),
(497,21,o),
(543,-13,o),
(632,-13,cs),
(797,-13,o),
(890,104,o),
(890,276,cs),
(890,369,o),
(864,456,o),
(777,555,c),
(587,555,l),
(683,430,o),
(705,362,o),
(705,287,cs),
(705,200,o),
(675,148,o),
(625,148,cs),
(581,148,o),
(553,188,o),
(553,255,cs),
(553,438,l),
(363,438,l),
(363,255,ls),
(363,188,o),
(339,148,o),
(295,148,cs),
(245,148,o),
(215,200,o),
(215,287,cs),
(215,362,o),
(237,430,o),
(333,555,c),
(143,555,l),
(55,455,o),
(30,360,o),
(30,276,cs),
(30,117,o),
(120,-13,o),
(288,-13,cs)
);
}
);
width = 919;
},
{
anchors = (
{
name = bottom;
pos = (392,0);
},
{
name = top;
pos = (392,536);
}
);
layerId = "8AF3DB8E-7EC5-4D7D-A87A-6DF3FCB8CADF";
shapes = (
{
closed = 1;
nodes = (
(310,-11,o),
(363,24,o),
(392,79,c),
(420,27,o),
(472,-11,o),
(545,-11,cs),
(673,-11,o),
(751,100,o),
(751,249,cs),
(751,357,o),
(708,442,o),
(637,509,c),
(527,509,l),
(615,421,o),
(651,340,o),
(651,248,cs),
(651,144,o),
(609,67,o),
(542,67,cs),
(491,67,o),
(442,110,o),
(442,248,cs),
(442,366,l),
(341,366,l),
(341,248,ls),
(341,179,o),
(322,67,o),
(241,67,cs),
(176,67,o),
(134,147,o),
(134,248,cs),
(134,341,o),
(169,421,o),
(257,509,c),
(148,509,l),
(77,440,o),
(34,356,o),
(34,249,cs),
(34,102,o),
(110,-11,o),
(238,-11,cs)
);
}
);
width = 784;
},
{
anchors = (
{
name = bottom;
pos = (379,0);
},
{
name = top;
pos = (379,536);
}
);
layerId = "F1A19D98-9E48-4F05-B6A0-CD51606DBCB8";
shapes = (
{
closed = 1;
nodes = (
(300,-10,o),
(353,28,o),
(378,81,c),
(405,28,o),
(456,-10,o),
(527,-10,cs),
(648,-10,o),
(723,99,o),
(723,243,cs),
(723,354,o),
(676,439,o),
(609,500,c),
(515,500,l),
(603,417,o),
(640,336,o),
(640,240,cs),
(640,133,o),
(596,51,o),
(525,51,cs),
(473,51,o),
(420,94,o),
(420,246,cs),
(420,352,l),
(337,352,l),
(337,246,ls),
(337,176,o),
(318,51,o),
(230,51,cs),
(162,51,o),
(118,136,o),
(118,240,cs),
(118,336,o),
(154,420,o),
(242,500,c),
(149,500,l),
(81,437,o),
(35,354,o),
(35,243,cs),
(35,99,o),
(108,-10,o),
(228,-10,cs)
);
}
);
width = 757;
}
);
unicode = 969;
},
{
glyphname = kaiSymbol;
lastChange = "2025-10-31 11:44:26 +0000";
layers = (
{
layerId = "F6364453-91B0-4CE2-A857-F52B6F68B874";
shapes = (
{
closed = 1;
nodes = (
(473,-232,o),
(608,-135,o),
(608,0,c),
(415,324,l),
(603,541,l),
(388,541,l),
(241,360,l),
(241,541,l),
(51,541,l),
(51,0,l),
(241,0,l),
(241,283,l),
(416,-29,l),
(416,-58,o),
(371,-95,o),
(294,-95,cs),
(209,-95,o),
(124,-54,o),
(69,-20,c),
(69,-170,l),
(148,-210,o),
(212,-232,o),
(297,-232,cs)
);
}
);
width = 609;
},
{
layerId = "8AF3DB8E-7EC5-4D7D-A87A-6DF3FCB8CADF";
shapes = (
{
closed = 1;
nodes = (
(372,-192,o),
(474,-113,o),
(474,0,c),
(252,266,l),
(466,492,l),
(342,492,l),
(164,294,l),
(164,492,l),
(64,492,l),
(64,0,l),
(164,0,l),
(164,227,l),
(371,-20,l),
(371,-76,o),
(314,-111,o),
(246,-111,cs),
(185,-111,o),
(122,-86,o),
(74,-51,c),
(74,-151,l),
(131,-176,o),
(182,-192,o),
(245,-192,cs)
);
}
);
width = 480;
},
{
layerId = "F1A19D98-9E48-4F05-B6A0-CD51606DBCB8";
shapes = (
{
closed = 1;
nodes = (
(352,-184,o),
(447,-108,o),
(447,0,c),
(219,254,l),
(438,482,l),
(333,482,l),
(149,281,l),
(149,482,l),
(67,482,l),
(67,0,l),
(149,0,l),
(149,216,l),
(362,-18,l),
(362,-79,o),
(302,-114,o),
(236,-114,cs),
(179,-114,o),
(123,-92,o),
(75,-57,c),
(75,-147,l),
(127,-170,o),
(177,-184,o),
(234,-184,cs)
);
}
);
width = 454;
}
);
unicode = 983;
},
{
export = 0;
glyphname = mu.001;
lastChange = "2025-10-31 11:44:26 +0000";
layers = (
{
layerId = "F6364453-91B0-4CE2-A857-F52B6F68B874";
shapes = (
{
closed = 1;
nodes = (
(237,-160,l),
(237,36,l),
(248,11,o),
(274,-12,o),
(307,-12,cs),
(342,-12,o),
(372,14,o),
(393,74,c),
(583,0,l),
(583,541,l),
(393,541,l),
(393,248,ls),
(393,189,o),
(359,157,o),
(314,157,cs),
(268,157,o),
(237,189,o),
(237,248,cs),
(237,541,l),
(47,541,l),
(47,-160,l)
);
}
);
width = 634;
},
{
layerId = "8AF3DB8E-7EC5-4D7D-A87A-6DF3FCB8CADF";
shapes = (
{
closed = 1;
nodes = (
(169,-183,l),
(169,59,l),
(192,12,o),
(232,-10,o),
(277,-10,cs),
(330,-10,o),
(375,21,o),
(402,64,c),
(503,0,l),
(503,493,l),
(403,493,l),
(403,211,ls),
(403,121,o),
(346,77,o),
(278,77,cs),
(225,77,o),
(169,116,o),
(169,211,cs),
(169,493,l),
(69,493,l),
(69,-183,l)
);
}
);
width = 576;
},
{
layerId = "F1A19D98-9E48-4F05-B6A0-CD51606DBCB8";
shapes = (
{
closed = 1;
nodes = (
(155,-188,l),
(155,64,l),
(180,13,o),
(224,-10,o),
(271,-10,cs),
(327,-10,o),
(376,22,o),
(404,62,c),
(487,0,l),
(487,483,l),
(405,483,l),
(405,204,ls),
(405,107,o),
(344,61,o),
(271,61,cs),
(216,61,o),
(155,101,o),
(155,204,cs),
(155,483,l),
(73,483,l),
(73,-188,l)
);
}
);
width = 564;
}
);
},
{
glyphname = zero;
lastChange = "2025-10-31 11:44:26 +0000";
layers = (
{
layerId = "F6364453-91B0-4CE2-A857-F52B6F68B874";
shapes = (
{
closed = 1;
nodes = (
(561,-14,o),
(686,155,o),
(686,352,cs),
(686,547,o),
(564,714,o),
(363,714,cs),
(164,714,o),
(38,548,o),
(38,350,cs),
(38,152,o),
(161,-14,o),
(361,-14,cs)
);
},
{
closed = 1;
nodes = (
(286,158,o),
(233,240,o),
(233,352,cs),
(233,431,o),
(265,542,o),
(361,542,cs),
(438,542,o),
(491,461,o),
(491,350,cs),
(491,239,o),
(441,158,o),
(363,158,cs)
);
}
);
width = 723;
},
{
layerId = "8AF3DB8E-7EC5-4D7D-A87A-6DF3FCB8CADF";
shapes = (
{
closed = 1;
nodes = (
(498,-14,o),
(594,141,o),
(594,352,cs),
(594,531,o),
(521,718,o),
(319,718,cs),
(140,718,o),
(43,564,o),
(43,353,cs),
(43,134,o),
(140,-14,o),
(318,-14,cs)
);
},
{
closed = 1;
nodes = (
(209,78,o),
(148,188,o),
(148,356,cs),
(148,463,o),
(184,626,o),
(318,626,cs),
(426,626,o),
(489,515,o),
(489,352,cs),
(489,193,o),
(428,78,o),
(320,78,cs)
);
}
);
width = 636;
},
{
layerId = "F1A19D98-9E48-4F05-B6A0-CD51606DBCB8";
shapes = (
{
closed = 1;
nodes = (
(485,-14,o),
(576,139,o),
(576,352,cs),
(576,527,o),
(512,719,o),
(310,719,cs),
(136,719,o),
(44,567,o),
(44,354,cs),
(44,130,o),
(136,-14,o),
(309,-14,cs)
);
},
{
closed = 1;
nodes = (
(194,62,o),
(131,178,o),
(131,357,cs),
(131,464,o),
(168,646,o),
(310,640,cs),
(424,636,o),
(489,527,o),
(489,352,cs),
(489,184,o),
(425,62,o),
(311,62,cs)
);
}
);
width = 619;
}
);
unicode = 48;
},
{
glyphname = one;
lastChange = "2025-10-31 11:44:26 +0000";
layers = (
{
layerId = "F6364453-91B0-4CE2-A857-F52B6F68B874";
shapes = (
{
closed = 1;
nodes = (
(360,0,l),
(360,705,l),
(14,705,l),
(14,524,l),
(169,524,l),
(169,0,l)
);
}
);
width = 435;
},
{
layerId = "8AF3DB8E-7EC5-4D7D-A87A-6DF3FCB8CADF";
shapes = (
{
closed = 1;
nodes = (
(227,0,l),
(227,708,l),
(9,708,l),
(9,612,l),
(125,612,l),
(125,0,l)
);
}
);
width = 330;
},
{
layerId = "F1A19D98-9E48-4F05-B6A0-CD51606DBCB8";
shapes = (
{
closed = 1;
nodes = (
(200,0,l),
(200,708,l),
(8,708,l),
(8,630,l),
(116,630,l),
(116,0,l)
);
}
);
width = 309;
}
);
unicode = 49;
},
{
glyphname = two;
lastChange = "2025-10-31 11:44:26 +0000";
layers = (
{
layerId = "F6364453-91B0-4CE2-A857-F52B6F68B874";
shapes = (
{
closed = 1;
nodes = (
(554,0,l),
(554,158,l),
(366,158,l),
(429,242,ls),
(506,343,o),
(547,406,o),
(547,489,cs),
(547,643,o),
(414,712,o),
(279,712,cs),
(133,712,o),
(4,622,o),
(4,453,c),
(181,453,l),
(181,517,o),
(229,543,o),
(274,543,cs),
(320,543,o),
(352,516,o),
(352,472,cs),
(352,437,o),
(332,389,o),
(280,328,cs),
(0,0,l)
);
}
);
width = 595;
},
{
layerId = "8AF3DB8E-7EC5-4D7D-A87A-6DF3FCB8CADF";
shapes = (
{
closed = 1;
nodes = (
(519,0,l),
(519,90,l),
(224,90,l),
(367,262,ls),
(464,379,o),
(506,448,o),
(506,522,cs),
(506,648,o),
(397,717,o),
(283,717,cs),
(149,717,o),
(61,650,o),
(40,503,c),
(147,503,l),
(158,577,o),
(206,626,o),
(283,626,cs),
(367,626,o),
(400,577,o),
(400,525,cs),
(400,473,o),
(368,409,o),
(288,313,cs),
(29,0,l)
);
}
);
width = 586;
},
{
layerId = "F1A19D98-9E48-4F05-B6A0-CD51606DBCB8";
shapes = (
{
closed = 1;
nodes = (
(512,0,l),
(512,76,l),
(196,76,l),
(355,266,ls),
(456,386,o),
(498,458,o),
(498,528,cs),
(498,649,o),
(392,720,o),
(283,720,cs),
(153,720,o),
(71,654,o),
(47,513,c),
(140,513,l),
(153,589,o),
(201,642,o),
(285,642,cs),
(377,642,o),
(409,589,o),
(409,536,cs),
(409,480,o),
(373,414,o),
(289,310,cs),
(35,0,l)
);
}
);
width = 584;
}
);
unicode = 50;
},
{
glyphname = three;
lastChange = "2025-10-31 11:44:26 +0000";
layers = (
{
layerId = "F6364453-91B0-4CE2-A857-F52B6F68B874";
shapes = (
{
closed = 1;
nodes = (
(493,-14,o),
(601,80,o),
(601,221,cs),
(601,340,o),
(520,397,o),
(420,418,c),
(587,561,l),
(587,700,l),
(81,700,l),
(81,543,l),
(349,543,l),
(188,398,l),
(216,297,l),
(231,297,o),
(285,297,o),
(298,297,cs),
(371,297,o),
(412,270,o),
(412,225,cs),
(412,182,o),
(376,152,o),
(317,152,cs),
(266,152,o),
(213,175,o),
(168,219,c),
(33,110,l),
(101,34,o),
(200,-14,o),
(328,-14,cs)
);
}
);
width = 642;
},
{
layerId = "8AF3DB8E-7EC5-4D7D-A87A-6DF3FCB8CADF";
shapes = (
{
closed = 1;
nodes = (
(444,-13,o),
(548,92,o),
(548,224,cs),
(548,357,o),
(454,433,o),
(331,438,c),
(521,630,l),
(521,715,l),
(94,715,l),
(94,626,l),
(393,626,l),
(190,412,l),
(204,358,l),
(225,363,o),
(256,364,o),
(277,364,cs),
(374,364,o),
(445,323,o),
(445,222,cs),
(445,133,o),
(383,78,o),
(300,78,cs),
(216,78,o),
(166,124,o),
(131,208,c),
(51,148,l),
(94,52,o),
(178,-13,o),
(301,-13,cs)
);
}
);
width = 615;
},
{
layerId = "F1A19D98-9E48-4F05-B6A0-CD51606DBCB8";
shapes = (
{
closed = 1;
nodes = (
(434,-13,o),
(537,93,o),
(537,225,cs),
(537,360,o),
(441,439,o),
(313,442,c),
(508,644,l),
(508,718,l),
(96,718,l),
(96,642,l),
(402,642,l),
(190,415,l),
(201,370,l),
(225,375,o),
(249,377,o),
(273,377,cs),
(373,377,o),
(452,334,o),
(452,221,cs),
(452,123,o),
(384,63,o),
(296,63,cs),
(207,63,o),
(155,114,o),
(124,206,c),
(55,156,l),
(91,56,o),
(174,-13,o),
(295,-13,cs)
);
}
);
width = 609;
}
);
unicode = 51;
},
{
glyphname = four;
lastChange = "2025-10-31 11:44:26 +0000";
layers = (
{
layerId = "F6364453-91B0-4CE2-A857-F52B6F68B874";
shapes = (
{
closed = 1;
nodes = (
(581,0,l),
(581,136,l),
(670,136,l),
(670,281,l),
(581,281,l),
(581,705,l),
(385,705,l),
(22,274,l),
(54,136,l),
(393,136,l),
(393,0,l)
);
},
{
closed = 1;
nodes = (
(393,481,l),
(393,281,l),
(226,281,l)
);
}
);
width = 695;
},
{
layerId = "8AF3DB8E-7EC5-4D7D-A87A-6DF3FCB8CADF";
shapes = (
{
closed = 1;
nodes = (
(501,0,l),
(501,150,l),
(598,150,l),
(598,235,l),
(501,235,l),
(501,711,l),
(363,711,l),
(15,237,l),
(33,150,l),
(401,150,l),
(401,0,l)
);
},
{
closed = 1;
nodes = (
(401,609,l),
(401,235,l),
(129,235,l)
);
}
);
width = 632;
},
{
layerId = "F1A19D98-9E48-4F05-B6A0-CD51606DBCB8";
shapes = (
{
closed = 1;
nodes = (
(485,0,l),
(485,153,l),
(583,153,l),
(583,226,l),
(485,226,l),
(485,712,l),
(358,712,l),
(13,229,l),
(29,153,l),
(403,153,l),
(403,0,l)
);
},
{
closed = 1;
nodes = (
(403,635,l),
(403,226,l),
(110,226,l)
);
}
);
width = 619;
}
);
unicode = 52;
},
{
glyphname = five;
lastChange = "2025-10-31 11:44:26 +0000";
layers = (
{
layerId = "F6364453-91B0-4CE2-A857-F52B6F68B874";
shapes = (
{
closed = 1;
nodes = (
(480,-14,o),
(598,81,o),
(598,237,cs),
(598,389,o),
(483,459,o),
(358,459,cs),
(311,459,o),
(278,449,o),
(246,434,c),
(252,540,l),
(567,540,l),
(567,700,l),
(99,700,l),
(79,345,l),
(194,281,l),
(227,301,o),
(263,316,o),
(306,316,cs),
(367,316,o),
(409,286,o),
(409,235,cs),
(409,184,o),
(370,151,o),
(306,151,cs),
(246,151,o),
(193,179,o),
(136,227,c),
(25,97,l),
(98,29,o),
(184,-14,o),
(309,-14,cs)
);
}
);
width = 635;
},
{
layerId = "8AF3DB8E-7EC5-4D7D-A87A-6DF3FCB8CADF";
shapes = (
{
closed = 1;
nodes = (
(411,-13,o),
(514,81,o),
(514,225,cs),
(514,363,o),
(405,447,o),
(273,447,cs),
(234,447,o),
(204,438,o),
(165,426,c),
(185,615,l),
(484,615,l),
(490,704,l),
(102,704,l),
(72,375,l),
(146,339,l),
(178,352,o),
(210,360,o),
(246,360,cs),
(340,360,o),
(412,304,o),
(412,221,cs),
(412,136,o),
(354,77,o),
(255,77,cs),
(188,77,o),
(134,106,o),
(83,154,c),
(23,85,l),
(90,24,o),
(155,-13,o),
(256,-13,cs)
);
}
);
width = 574;
},
{
layerId = "F1A19D98-9E48-4F05-B6A0-CD51606DBCB8";
shapes = (
{
closed = 1;
nodes = (
(397,-13,o),
(497,81,o),
(497,222,cs),
(497,358,o),
(389,444,o),
(256,444,cs),
(219,444,o),
(188,436,o),
(149,424,c),
(171,630,l),
(467,630,l),
(474,705,l),
(103,705,l),
(71,381,l),
(136,350,l),
(168,362,o),
(199,369,o),
(234,369,cs),
(335,369,o),
(412,306,o),
(412,218,cs),
(412,126,o),
(349,62,o),
(245,62,cs),
(177,62,o),
(121,91,o),
(72,139,c),
(23,83,l),
(87,23,o),
(149,-13,o),
(245,-13,cs)
);
}
);
width = 562;
}
);
unicode = 53;
},
